<svg xmlns="http://www.w3.org/2000/svg" width="79.999" height="80" viewBox="0 0 79.999 80">
  <g id="Group_22371" data-name="Group 22371" transform="translate(-257.07 -346.127)">
    <g id="Group_6354" data-name="Group 6354" transform="translate(257.07 346.127)">
      <g id="Group_6353" data-name="Group 6353">
        <path id="Path_2678" data-name="Path 2678" d="M327.835,367.245a35.766,35.766,0,1,0,6.108,19.994A35.75,35.75,0,0,0,327.835,367.245Zm-43.086-11.7L285.763,358a31.8,31.8,0,0,0-9.8,6.551l-1.874-1.873A34.55,34.55,0,0,1,284.749,355.542Zm-11.129,7.607,1.873,1.873a31.793,31.793,0,0,0-6.512,9.71l-2.454-1.021A34.558,34.558,0,0,1,273.62,363.149Zm-7.344,11.178,2.454,1.02a31.612,31.612,0,0,0-2.3,11.56h-2.666A34.249,34.249,0,0,1,266.276,374.328Zm-2.513,13.246h2.666a31.631,31.631,0,0,0,2.266,11.469l-2.456,1.012A34.216,34.216,0,0,1,263.763,387.573Zm2.723,13.1,2.456-1.013a31.812,31.812,0,0,0,6.551,9.8l-1.873,1.873A34.512,34.512,0,0,1,266.486,400.674Zm7.6,11.129,1.875-1.874a31.78,31.78,0,0,0,9.71,6.511l-1.021,2.454A34.573,34.573,0,0,1,274.09,411.8Zm23.76,9.857a34.248,34.248,0,0,1-12.579-2.514l1.021-2.453A31.638,31.638,0,0,0,297.85,419Zm0-66.175a31.655,31.655,0,0,0-11.469,2.265l-1.013-2.456a34.284,34.284,0,0,1,12.481-2.476ZM332.6,386.907h-2.667a31.633,31.633,0,0,0-2.266-11.469l2.47-1.02A34.34,34.34,0,0,1,332.6,386.907Zm-5.873-18.917a34.435,34.435,0,0,1,3.157,5.813l-2.464,1.015a31.774,31.774,0,0,0-6.551-9.8l1.888-1.89A34.693,34.693,0,0,1,326.731,367.991Zm-4.448-5.323L320.4,364.55a31.8,31.8,0,0,0-9.711-6.511l1.017-2.446A34.437,34.437,0,0,1,322.283,362.667Zm-23.768-9.845a34.376,34.376,0,0,1,12.58,2.512l-1.02,2.451a31.638,31.638,0,0,0-11.56-2.3Zm0,68.838V419a31.7,31.7,0,0,0,11.469-2.267L311,419.185A34.23,34.23,0,0,1,298.515,421.66Zm13.1-2.722-1.013-2.456a31.811,31.811,0,0,0,9.8-6.553l1.873,1.874A34.551,34.551,0,0,1,311.616,418.938Zm11.13-7.606-1.873-1.873a31.845,31.845,0,0,0,6.511-9.712l2.454,1.021A34.521,34.521,0,0,1,322.746,411.332Zm7.343-11.18-2.453-1.018a31.663,31.663,0,0,0,2.3-11.56H332.6A34.223,34.223,0,0,1,330.089,400.151Z" transform="translate(-258.183 -347.24)" fill="#f6c95b"/>
        <path id="Path_2679" data-name="Path 2679" d="M297.071,346.127a40,40,0,1,0,40,40A40,40,0,0,0,297.071,346.127Zm0,77.314a37.314,37.314,0,1,1,37.313-37.314A37.314,37.314,0,0,1,297.071,423.441Z" transform="translate(-257.07 -346.127)" fill="#f6c95b"/>
      </g>
    </g>
    <path id="Path_2680" data-name="Path 2680" d="M277.486,416.528a31.464,31.464,0,0,0,2.982,2.677,31.926,31.926,0,0,0,5.224,3.5,53.633,53.633,0,0,0,5.437,2.037c1.59-3.453,5.33-2.24,5.71-7.558.387-5.405-4.245-6.756-.966-9.651,1.936-1.708,2.069-2.824,1.676-5.2-.368-2.222-1.107-4.956,2.212-5.327.809-.091-3.694-11.415-6.2-11.479,0,0-5.019-1.351-5.983,6.176s-4.439,1.931-9.265,7.142c-4.117,4.447-.966,8.3-3.861,9.265-.684.228-1.533.492-2.446.848a32.029,32.029,0,0,0,3.349,5.146C276.041,414.97,276.745,415.77,277.486,416.528Z" transform="translate(-3.105 -8.174)" fill="#f6c95b"/>
    <g id="Group_6367" data-name="Group 6367" transform="translate(268.898 355.837)">
      <g id="Group_6358" data-name="Group 6358" transform="translate(16.577)">
        <path id="Path_2681" data-name="Path 2681" d="M309.744,389.088c-1.184-.2-2.182-.184-2.93.861-1.245,1.741-.284,6.234-2.889,6.829l-10.992-20.305c1.922-1.855,5.159,1.405,7.3,1.313,1.285-.054,1.845-.881,2.324-1.982,1.21-2.771,1.147-5.427,1.812-8.242.686-2.894,4.388-5.037,6.8-6.34,9.5-5.146,20.615-3.088,25.122,4.542l.011,0c.02.038.044.074.065.111.031.057.056.116.087.175s.066.11.1.167c.021.038.036.077.057.114l-.01.006c3.926,7.945-.428,18.373-9.93,23.518-2.409,1.3-6.227,3.233-9.026,2.225C314.914,391.095,312.726,389.589,309.744,389.088Z" transform="translate(-292.932 -358.387)" fill="#2f267f"/>
        <g id="Group_6355" data-name="Group 6355" transform="translate(0 18.049)">
          <path id="Path_2682" data-name="Path 2682" d="M303.924,401.515l-10.992-20.3c2.145-.454,5.931,3.1,8.783,8.371S305.476,399.967,303.924,401.515Z" transform="translate(-292.932 -381.174)" fill="#f463e5"/>
          <path id="Path_2683" data-name="Path 2683" d="M305.334,399.2l-9.216-17.023c1.984,1.291,4.335,4.061,6.26,7.616S305.339,396.833,305.334,399.2Z" transform="translate(-293.595 -381.382)" fill="#f463e5" style="mix-blend-mode: multiply;isolation: isolate"/>
        </g>
        <path id="Path_2684" data-name="Path 2684" d="M336.951,384.048a23.309,23.309,0,0,1-7.076,5.852,19.469,19.469,0,0,1-6.439,2.448,45.4,45.4,0,0,0-5.113-13.515c-3.8-7.021-7.387-10.878-9.934-12.961,1.4-2.024,4.089-3.573,5.986-4.6a23.4,23.4,0,0,1,8.089-2.649,86.492,86.492,0,0,1,9.683,13.312A71.484,71.484,0,0,1,336.951,384.048Z" transform="translate(-296.146 -358.436)" fill="#6148ec"/>
        <g id="Group_6356" data-name="Group 6356" transform="translate(10.954 0.128)">
          <path id="Path_2685" data-name="Path 2685" d="M314.8,383.817a72.175,72.175,0,0,1,4.8,10.744c-.321-.133-.639-.27-.951-.412a72.905,72.905,0,0,0-4.525-9.965,69.245,69.245,0,0,0-7.358-11.115c.049-.338.1-.676.159-1.016A69.022,69.022,0,0,1,314.8,383.817Z" transform="translate(-306.761 -361.356)" fill="#6148ec"/>
          <path id="Path_2686" data-name="Path 2686" d="M345.185,378.422c-.132.356-.279.708-.434,1.06a66.738,66.738,0,0,0-3.863-8.885,83.786,83.786,0,0,0-8.39-12.049q.567.062,1.119.155a82.239,82.239,0,0,1,7.95,11.526A65.374,65.374,0,0,1,345.185,378.422Z" transform="translate(-312.113 -358.548)" fill="#6148ec"/>
        </g>
        <path id="Path_2687" data-name="Path 2687" d="M319.891,392.248c-2.721-.981-4.909-2.487-7.892-2.988-1.184-.2-2.182-.184-2.93.861-1.245,1.741-.284,6.234-2.89,6.83l-1.313-2.424a13.232,13.232,0,0,0,.925-14.135l-.183-.339a13.259,13.259,0,0,0-1.826-2.558,3.848,3.848,0,0,0,1.026-1.518,14.328,14.328,0,0,0,.877-2.844,14.55,14.55,0,0,0,10.285,11.786c.175.053.348.106.523.157a14.647,14.647,0,0,0,12.85-25.862,14.971,14.971,0,0,1,9.2,6.722l.011,0c.02.038.044.074.065.111.031.057.056.115.087.175s.066.109.1.167c.02.038.036.077.057.114l-.01.007c3.926,7.945-.427,18.373-9.93,23.518C326.508,391.328,322.69,393.256,319.891,392.248Z" transform="translate(-295.188 -358.559)" fill="#1d255b" opacity="0.4" style="mix-blend-mode: multiply;isolation: isolate"/>
        <g id="Group_6357" data-name="Group 6357" transform="translate(15.21 4.756)" style="mix-blend-mode: screen;isolation: isolate">
          <path id="Path_2688" data-name="Path 2688" d="M315.015,365.994c.221.31.9.249,1.521-.14s.94-.956.715-1.263-.9-.249-1.518.137S314.794,365.683,315.015,365.994Z" transform="translate(-312.719 -364.391)" fill="#fad0bf"/>
          <path id="Path_2689" data-name="Path 2689" d="M312.2,368.593c.181.207.668.121,1.083-.2s.608-.749.427-.96-.667-.122-1.084.2S312.022,368.381,312.2,368.593Z" transform="translate(-312.135 -364.998)" fill="#fad0bf"/>
        </g>
      </g>
      <g id="Group_6366" data-name="Group 6366" transform="translate(0 21.427)">
        <g id="Group_6361" data-name="Group 6361">
          <path id="Path_2690" data-name="Path 2690" d="M277.486,416.528a31.464,31.464,0,0,0,2.982,2.677,31.926,31.926,0,0,0,5.224,3.5,53.633,53.633,0,0,0,5.437,2.037c1.59-3.453,5.33-2.24,5.71-7.558.387-5.405-4.245-6.756-.966-9.651,1.936-1.708,2.069-2.824,1.676-5.2-.368-2.222-1.107-4.956,2.212-5.327.809-.091-3.694-11.415-6.2-11.479,0,0-5.019-1.351-5.983,6.176s-4.439,1.931-9.265,7.142c-4.117,4.447-.966,8.3-3.861,9.265-.684.228-1.533.492-2.446.848a32.029,32.029,0,0,0,3.349,5.146C276.041,414.97,276.745,415.77,277.486,416.528Z" transform="translate(-272.003 -385.438)" fill="#fff"/>
          <path id="Path_2691" data-name="Path 2691" d="M294.107,385.533a4.318,4.318,0,0,0-2.633.267,16.354,16.354,0,0,1,4.061,10.735v.258a16.255,16.255,0,0,1-20.889,15.617c.4.579.816,1.149,1.255,1.7.689.861,1.394,1.661,2.135,2.419a31.458,31.458,0,0,0,2.982,2.677,31.931,31.931,0,0,0,5.224,3.5,53.591,53.591,0,0,0,5.437,2.038c1.59-3.454,5.33-2.241,5.71-7.558.387-5.405-4.246-6.756-.965-9.651,1.936-1.708,2.069-2.823,1.675-5.2-.368-2.222-1.106-4.956,2.212-5.326C301.12,396.921,296.617,385.6,294.107,385.533Z" transform="translate(-272.553 -385.438)" fill="#6148ec" opacity="0.2"/>
          <g id="Group_6360" data-name="Group 6360" transform="translate(2.829 1.38)">
            <g id="Group_6359" data-name="Group 6359">
              <path id="Path_2692" data-name="Path 2692" d="M301.915,394.394a10.8,10.8,0,0,0-1.818,1.07,7.96,7.96,0,0,0-2.241,2.514,6.491,6.491,0,0,0-.665,1.829A13.208,13.208,0,0,0,297,401.76a7.482,7.482,0,0,1-.586,3.458,4.524,4.524,0,0,1-.993,1.186c-.415.362-.807.7-1.168,1.018a11.34,11.34,0,0,0-1.714,1.729,4.356,4.356,0,0,0-.383.641,2.3,2.3,0,0,0-.113.245,3.94,3.94,0,0,0-.241.989,8.568,8.568,0,0,0,.144,2.479,30.513,30.513,0,0,1,.5,3.207,8.116,8.116,0,0,1-.38,3.527c-.651,1.72-2.283,2.828-3.506,4.012.17.094.337.2.51.284.38-.324.794-.65,1.226-.992a10.342,10.342,0,0,0,1.405-1.292c.208-.263.434-.517.631-.794l.485-.908a8.85,8.85,0,0,0,.58-3.9,29.989,29.989,0,0,0-.406-3.313,7.639,7.639,0,0,1-.074-2.161,2.88,2.88,0,0,1,.194-.719,3.1,3.1,0,0,1,.344-.654,10.587,10.587,0,0,1,1.506-1.6l1.135-1.052a5.533,5.533,0,0,0,1.16-1.493,8.136,8.136,0,0,0,.555-3.887,12.885,12.885,0,0,1,.1-1.85,6.005,6.005,0,0,1,.516-1.655,7.832,7.832,0,0,1,1.948-2.457,12.991,12.991,0,0,1,1.642-1.178C301.985,394.555,301.95,394.475,301.915,394.394Z" transform="translate(-278.275 -388.681)" fill="#6148ec"/>
              <path id="Path_2693" data-name="Path 2693" d="M283.271,402.5a6.164,6.164,0,0,1,1.438-1.452,4.136,4.136,0,0,1,.658-.407,6.493,6.493,0,0,1,.706-.37,20.9,20.9,0,0,1,2.01-.816,8.723,8.723,0,0,0,2.946-1.5,5.317,5.317,0,0,0,1.18-1.514,10.2,10.2,0,0,0,.751-1.778,30.2,30.2,0,0,0,.408-3.637,5.223,5.223,0,0,1,.886-2.8,2.652,2.652,0,0,1,1.845-.812h.132c-.061-.081-.122-.158-.182-.233a2.775,2.775,0,0,0-2.123.74,5.527,5.527,0,0,0-1.195,3.023,34.272,34.272,0,0,1-.552,3.5,6.534,6.534,0,0,1-1.768,2.79,8,8,0,0,1-2.673,1.22,21.309,21.309,0,0,0-2.133.793,8.132,8.132,0,0,0-.8.389,5.169,5.169,0,0,0-.767.505,7.244,7.244,0,0,0-1.64,1.757,11.592,11.592,0,0,0-1.366,2.992c-.36,1.129-.63,2.338-.954,3.511a11.17,11.17,0,0,1-1.328,3.228,4.946,4.946,0,0,1-2.275,1.877,8.319,8.319,0,0,1-.9.281c.085.111.169.224.255.335a5.7,5.7,0,0,0,.8-.2A5.327,5.327,0,0,0,279.275,412a11.394,11.394,0,0,0,1.583-3.367c.383-1.188.7-2.376,1.079-3.44A10.747,10.747,0,0,1,283.271,402.5Z" transform="translate(-275.575 -387.181)" fill="#6148ec"/>
            </g>
          </g>
        </g>
        <g id="Group_6365" data-name="Group 6365" transform="translate(5.626 12.696)" opacity="0.2">
          <g id="Group_6364" data-name="Group 6364">
            <g id="Group_6362" data-name="Group 6362" transform="translate(1.732)">
              <path id="Path_2694" data-name="Path 2694" d="M281.422,403.436c.283.254.935.048,1.454-.467s.709-1.137.423-1.39-.932-.047-1.452.464S281.14,403.18,281.422,403.436Z" transform="translate(-281.291 -401.468)" fill="#6148ec"/>
            </g>
            <g id="Group_6363" data-name="Group 6363" transform="translate(0 2.872)">
              <path id="Path_2695" data-name="Path 2695" d="M279.227,406.616c.222.163.679-.028,1.014-.431s.431-.864.209-1.032-.679.025-1.016.429S279,406.45,279.227,406.616Z" transform="translate(-279.106 -405.094)" fill="#6148ec"/>
            </g>
          </g>
        </g>
      </g>
    </g>
    <path id="Path_2696" data-name="Path 2696" d="M323.461,412.52v4.316h-1.29v-3.455a3.1,3.1,0,0,0-2.818,3.455h-1.312v-3.455a3.1,3.1,0,0,0-2.818,3.455h-1.3v-3.455a3.1,3.1,0,0,0-2.818,3.455h-.821a4.226,4.226,0,0,1,1.208-3.217,3.884,3.884,0,0,1,2.43-1.1.677.677,0,0,1,.089,0h1.2v1.552a3.53,3.53,0,0,1,.4-.453,3.889,3.889,0,0,1,2.432-1.1.662.662,0,0,1,.088,0h1.2v1.571a3.407,3.407,0,0,1,.412-.472,3.879,3.879,0,0,1,2.429-1.1.662.662,0,0,1,.088,0h1.2Zm-1.2,5.546a.662.662,0,0,0-.088,0,3.892,3.892,0,0,0-2.429,1.1,3.538,3.538,0,0,0-.412.47v-1.571h-1.2a.662.662,0,0,0-.088,0,3.9,3.9,0,0,0-2.432,1.1,3.555,3.555,0,0,0-.4.452v-1.553h-1.2a.677.677,0,0,0-.089,0,3.9,3.9,0,0,0-2.43,1.1,4.22,4.22,0,0,0-1.208,3.215h.821a3.1,3.1,0,0,1,2.818-3.452v3.452h1.3a3.1,3.1,0,0,1,2.818-3.452v3.452h1.313a3.1,3.1,0,0,1,2.818-3.452v3.452h1.29v-4.316h-1.2Z" transform="translate(-11.065 -13.805)" fill="#fff"/>
  </g>
</svg>
