<svg id="Group_22364" data-name="Group 22364" xmlns="http://www.w3.org/2000/svg" width="89.879" height="80" viewBox="0 0 89.879 80">
  <g id="Group_6131" data-name="Group 6131" transform="translate(0 0)">
    <g id="Group_6088" data-name="Group 6088" transform="translate(4.685)">
      <g id="Group_6087" data-name="Group 6087">
        <path id="Path_2377" data-name="Path 2377" d="M98.157,56.293a35.723,35.723,0,1,0,6.147,20A35.43,35.43,0,0,0,98.157,56.293ZM54.8,44.591l1.02,2.456a32.007,32.007,0,0,0-9.86,6.551L44.07,51.726A34.754,34.754,0,0,1,54.8,44.591ZM43.6,52.2l1.885,1.872a31.794,31.794,0,0,0-6.553,9.71l-2.469-1.02A34.523,34.523,0,0,1,43.6,52.2ZM36.2,63.375,38.674,64.4a31.468,31.468,0,0,0-2.316,11.558H33.677A34.067,34.067,0,0,1,36.2,63.375ZM33.677,76.622h2.682A31.486,31.486,0,0,0,38.639,88.09L36.168,89.1A34.035,34.035,0,0,1,33.677,76.622Zm2.739,13.1,2.473-1.013a31.788,31.788,0,0,0,6.593,9.8L43.6,100.38A34.533,34.533,0,0,1,36.415,89.722Zm7.655,11.129,1.885-1.872a32.01,32.01,0,0,0,9.772,6.511L54.7,107.944A34.8,34.8,0,0,1,44.07,100.851Zm23.91,9.857a34.643,34.643,0,0,1-12.66-2.514l1.027-2.454a32.03,32.03,0,0,0,11.633,2.3Zm0-66.175A32.012,32.012,0,0,0,56.439,46.8l-1.02-2.456a34.65,34.65,0,0,1,12.562-2.475Zm34.976,31.421h-2.684a31.479,31.479,0,0,0-2.281-11.468l2.485-1.019A34.115,34.115,0,0,1,102.957,75.955ZM97.045,57.039a34.28,34.28,0,0,1,3.177,5.814l-2.478,1.015a31.808,31.808,0,0,0-6.594-9.8l1.9-1.888A34.649,34.649,0,0,1,97.045,57.039Zm-4.476-5.322L90.676,53.6A32,32,0,0,0,80.9,47.088l1.024-2.447A34.643,34.643,0,0,1,92.569,51.717ZM68.65,41.871a34.787,34.787,0,0,1,12.66,2.512l-1.027,2.452a32.025,32.025,0,0,0-11.633-2.3Zm0,68.838v-2.665a32.05,32.05,0,0,0,11.542-2.267l1.02,2.456A34.65,34.65,0,0,1,68.65,110.709Zm13.184-2.722-1.02-2.456a32.021,32.021,0,0,0,9.861-6.551l1.884,1.872A34.768,34.768,0,0,1,81.834,107.986Zm11.2-7.606L91.15,98.507A31.78,31.78,0,0,0,97.7,88.8l2.469,1.021A34.53,34.53,0,0,1,93.035,100.38Zm7.39-11.179-2.469-1.02a31.491,31.491,0,0,0,2.316-11.559h2.682A34.057,34.057,0,0,1,100.425,89.2Z" transform="translate(-28.061 -36.289)" fill="#f6c95b"/>
        <path id="Path_2378" data-name="Path 2378" d="M67.23,35.176a40,40,0,1,0,40.255,40A40.128,40.128,0,0,0,67.23,35.176Zm0,77.314a37.315,37.315,0,1,1,37.551-37.315A37.435,37.435,0,0,1,67.23,112.49Z" transform="translate(-26.975 -35.176)" fill="#f6c95b"/>
      </g>
    </g>
    <g id="Group_6130" data-name="Group 6130" transform="translate(0 11.527)">
      <g id="Group_6091" data-name="Group 6091" transform="translate(17.931 26.509)">
        <g id="Group_6089" data-name="Group 6089">
          <path id="Path_2379" data-name="Path 2379" d="M56.3,83.2S41.788,86.87,43.78,93.089,54.591,91.111,56.3,83.2Z" transform="translate(-43.592 -83.196)" fill="#6148ec"/>
          <path id="Path_2380" data-name="Path 2380" d="M54.817,86.454s-8.335,2.277-7.192,6.131S53.837,91.359,54.817,86.454Z" transform="translate(-44.389 -83.873)" fill="#2f267f"/>
        </g>
        <g id="Group_6090" data-name="Group 6090" transform="translate(40.772)">
          <path id="Path_2381" data-name="Path 2381" d="M94.741,83.2s14.51,3.674,12.518,9.893S96.448,91.111,94.741,83.2Z" transform="translate(-94.741 -83.196)" fill="#6148ec"/>
          <path id="Path_2382" data-name="Path 2382" d="M97.6,86.454s8.336,2.277,7.192,6.131S98.577,91.359,97.6,86.454Z" transform="translate(-95.32 -83.873)" fill="#2f267f"/>
        </g>
      </g>
      <g id="Group_6116" data-name="Group 6116" transform="translate(29.813 17.603)">
        <path id="Path_2383" data-name="Path 2383" d="M82.156,71.953H65c-3.646,0-6.413,8.869-6.5,11.6-.2,6.363,6.626,26.334,15.08,26.413C88.223,110.1,93.167,71.953,82.156,71.953Z" transform="translate(-58.499 -71.953)" fill="#6148ec"/>
        <g id="Group_6115" data-name="Group 6115" transform="translate(0.475 7.67)">
          <g id="Group_6101" data-name="Group 6101">
            <g id="Group_6100" data-name="Group 6100">
              <g id="Group_6099" data-name="Group 6099">
                <g id="Group_6094" data-name="Group 6094" transform="translate(0.694 10.932)">
                  <g id="Group_6093" data-name="Group 6093">
                    <g id="Group_6092" data-name="Group 6092">
                      <path id="Path_2384" data-name="Path 2384" d="M60.939,95.439a6.893,6.893,0,0,0-.974.09,47.7,47.7,0,0,0,6.072,13.657,5.855,5.855,0,0,0,1.229-1.662,9.38,9.38,0,0,0,1.4-4.407A7.7,7.7,0,0,0,60.939,95.439Z" transform="translate(-59.965 -95.439)" fill="#ffe031" opacity="0.4" style="mix-blend-mode: screen;isolation: isolate"/>
                      <path id="Path_2385" data-name="Path 2385" d="M63.211,97.623c-.076.315-.628.452-1.233.309s-1.033-.52-.956-.835.629-.453,1.235-.307S63.289,97.309,63.211,97.623Z" transform="translate(-60.178 -95.708)" fill="#fad0bf" style="mix-blend-mode: screen;isolation: isolate"/>
                    </g>
                  </g>
                </g>
                <g id="Group_6097" data-name="Group 6097" transform="translate(0 8.134)">
                  <g id="Group_6096" data-name="Group 6096">
                    <g id="Group_6095" data-name="Group 6095">
                      <path id="Path_2386" data-name="Path 2386" d="M64.89,94.958a5.213,5.213,0,0,1-2.9-3.052l-2.9.691a13.95,13.95,0,0,0,.9,1.091,8.122,8.122,0,0,1,1.619-.034c-.1.067-.613.472-.949.74,2.232,2.2,6.349,4.878,8.988-1.723C69.648,92.671,67.1,95.809,64.89,94.958Z" transform="translate(-59.094 -91.906)" fill="#2f267f"/>
                    </g>
                  </g>
                </g>
                <g id="Group_6098" data-name="Group 6098" transform="translate(5.225)">
                  <path id="Path_2387" data-name="Path 2387" d="M69.752,82.374c.152.622-.64,1.349-1.766,1.621s-2.167-.01-2.319-.634.64-1.35,1.766-1.621S69.6,81.751,69.752,82.374Z" transform="translate(-65.649 -81.637)" fill="#2f267f"/>
                </g>
              </g>
            </g>
          </g>
          <g id="Group_6110" data-name="Group 6110" transform="translate(18.657)">
            <g id="Group_6109" data-name="Group 6109">
              <g id="Group_6104" data-name="Group 6104" transform="translate(1.159 10.932)">
                <g id="Group_6103" data-name="Group 6103">
                  <g id="Group_6102" data-name="Group 6102">
                    <path id="Path_2388" data-name="Path 2388" d="M91.679,95.439a7.7,7.7,0,0,0-7.726,7.679,7.939,7.939,0,0,0,2.308,5.438,2.422,2.422,0,0,0,1.233.869q.476-.681.914-1.423l.006-.009q.438-.739.838-1.531a39.1,39.1,0,0,0,3.46-10.923h0A7.2,7.2,0,0,0,91.679,95.439Z" transform="translate(-83.953 -95.439)" fill="#ffe031" opacity="0.4" style="mix-blend-mode: screen;isolation: isolate"/>
                    <path id="Path_2389" data-name="Path 2389" d="M91.062,97.623c.076.315.628.452,1.232.309s1.033-.52.956-.835-.628-.453-1.234-.307S90.984,97.309,91.062,97.623Z" transform="translate(-85.393 -95.708)" fill="#fad0bf" style="mix-blend-mode: screen;isolation: isolate"/>
                  </g>
                </g>
              </g>
              <g id="Group_6107" data-name="Group 6107" transform="translate(0 8.134)">
                <g id="Group_6106" data-name="Group 6106">
                  <g id="Group_6105" data-name="Group 6105">
                    <path id="Path_2390" data-name="Path 2390" d="M87.258,94.958a5.213,5.213,0,0,0,2.9-3.052l2.9.691a13.952,13.952,0,0,1-.9,1.091,8.131,8.131,0,0,0-1.62-.034c.1.067.614.472.949.74-2.232,2.2-6.349,4.878-8.988-1.723C82.5,92.671,85.051,95.809,87.258,94.958Z" transform="translate(-82.499 -91.906)" fill="#2f267f"/>
                  </g>
                </g>
              </g>
              <g id="Group_6108" data-name="Group 6108" transform="translate(1.208)">
                <path id="Path_2391" data-name="Path 2391" d="M84.033,82.374c-.152.622.639,1.349,1.766,1.621s2.166-.01,2.319-.634-.641-1.35-1.766-1.621S84.185,81.751,84.033,82.374Z" transform="translate(-84.014 -81.637)" fill="#2f267f"/>
              </g>
            </g>
          </g>
          <g id="Group_6114" data-name="Group 6114" transform="translate(9.842 21.131)">
            <g id="Group_6111" data-name="Group 6111" transform="translate(1.283)">
              <path id="Path_2392" data-name="Path 2392" d="M80.327,108.317c.073.019.057.324-.062.78a3.46,3.46,0,0,1-.962,1.469,3.818,3.818,0,0,1-1.623.84,5.076,5.076,0,0,1-.836.12l-.23-.027a3.153,3.153,0,0,1-.593-.108,4.5,4.5,0,0,1-1.609-.766,4.086,4.086,0,0,1-1.134-1.3c-.2-.42-.27-.719-.2-.75s.277.186.568.486a5.021,5.021,0,0,0,1.208.879,4.016,4.016,0,0,0,1.371.41,4.986,4.986,0,0,0,.634.026,4.863,4.863,0,0,0,.63-.013,3.176,3.176,0,0,0,1.318-.442,3.817,3.817,0,0,0,1.055-1.019C80.083,108.55,80.246,108.293,80.327,108.317Z" transform="translate(-73.05 -108.315)" fill="#2f267f"/>
            </g>
            <g id="Group_6112" data-name="Group 6112" transform="translate(0 4.631)">
              <path id="Path_2393" data-name="Path 2393" d="M81.3,114.165c.06.018.015.4-.257.917a3.993,3.993,0,0,1-1.521,1.5,6.272,6.272,0,0,1-2.039.706l-.709.074a1.31,1.31,0,0,1-.269.011l-.267-.025a4.8,4.8,0,0,1-.7-.1,7.54,7.54,0,0,1-2.006-.68,5.447,5.447,0,0,1-1.64-1.3c-.357-.447-.491-.806-.434-.84.077-.053.332.209.748.52a6.7,6.7,0,0,0,1.657.882,7.665,7.665,0,0,0,1.823.374,4.136,4.136,0,0,0,.607.023h.23a1.065,1.065,0,0,0,.231.012h.609a5.976,5.976,0,0,0,1.794-.382,4.183,4.183,0,0,0,1.517-1.027C81.018,114.446,81.207,114.129,81.3,114.165Z" transform="translate(-71.441 -114.162)" fill="#2f267f"/>
            </g>
            <g id="Group_6113" data-name="Group 6113" transform="translate(4.354 2.832)">
              <path id="Path_2394" data-name="Path 2394" d="M77.483,116.781c-.319,0-.579-2.452-.579-2.452s.26-2.439.579-2.439.579,2.439.579,2.439S77.8,116.781,77.483,116.781Z" transform="translate(-76.904 -111.89)" fill="#2f267f"/>
            </g>
          </g>
        </g>
      </g>
      <g id="Group_6129" data-name="Group 6129">
        <g id="Group_6122" data-name="Group 6122" transform="translate(45.467)">
          <path id="Path_2395" data-name="Path 2395" d="M89.438,71.942s-2.35-11.393,10.685-9.265C114.3,64.994,113.332,81.207,107.116,87s-14.181,3.282-14.181,3.282,7.1,9.077,17.289,4.247c12.626-5.984,20.008-30.884-.389-41.5S77.4,60.168,78.172,67.7C78.172,67.7,81.281,75.223,89.438,71.942Z" transform="translate(-78.137 -49.728)" fill="#fff"/>
          <g id="Group_6117" data-name="Group 6117" transform="translate(2.335 0.408)">
            <path id="Path_2396" data-name="Path 2396" d="M123.379,96.776a6.531,6.531,0,0,0-.623-1c-.163-.234-.257-.366-.257-.366l-.316-.314a6.671,6.671,0,0,0-.87-.779,9.283,9.283,0,0,0-3.109-1.6c-.234-.071-.469-.12-.7-.167-.117.227-.241.449-.367.666a7.828,7.828,0,0,1,.81.271,8.868,8.868,0,0,1,2.686,1.642,5.834,5.834,0,0,1,.723.733l.262.288.241.307a5.91,5.91,0,0,1,.6.838,7,7,0,0,1,.925,2.276c.251-.261.5-.531.737-.806A7.141,7.141,0,0,0,123.379,96.776Z" transform="translate(-88.383 -59.041)" fill="#f463e5"/>
            <path id="Path_2397" data-name="Path 2397" d="M120.893,65.282c-.308.163-.484.258-.484.258l-.432.333a8.169,8.169,0,0,0-1.086.928,11.361,11.361,0,0,0-2.45,3.5v0c.194.246.376.5.548.753.065-.134.118-.272.19-.4a10.911,10.911,0,0,1,2.44-3.08,7.3,7.3,0,0,1,1.022-.788l.4-.282.423-.249a7.4,7.4,0,0,1,1.147-.6,9.588,9.588,0,0,1,3.843-.83l.9.036c-.163-.272-.341-.54-.517-.808l-.354-.04a10.148,10.148,0,0,0-4.277.664A8.178,8.178,0,0,0,120.893,65.282Z" transform="translate(-88.243 -53.104)" fill="#f463e5"/>
            <path id="Path_2398" data-name="Path 2398" d="M89.535,70.235a7.669,7.669,0,0,1-1.886-.537,8.82,8.82,0,0,1-1.675-1,9.592,9.592,0,0,1-1.239-1.171,15.571,15.571,0,0,1-1.849-2.752A11.146,11.146,0,0,1,81.8,61.281c-.012-.1-.013-.191-.023-.288-.25.367-.489.734-.711,1.1a11.49,11.49,0,0,0,.853,3.122,11.671,11.671,0,0,0,.592,1.184l.262.432a10.692,10.692,0,0,0,1.184,1.414,10.2,10.2,0,0,0,1.452,1.217,9.271,9.271,0,0,0,1.939.987,7.892,7.892,0,0,0,2.128.421c.171.006.328-.009.493-.012q.041-.291.1-.589C89.891,70.263,89.718,70.259,89.535,70.235Z" transform="translate(-81.066 -52.479)" fill="#f463e5"/>
            <path id="Path_2399" data-name="Path 2399" d="M95.211,61.109a10.878,10.878,0,0,1-.8-3.838,7.367,7.367,0,0,1,.053-1.285c.026-.308.04-.485.04-.485l.081-.482a7.2,7.2,0,0,1,.276-1.259A9.439,9.439,0,0,1,96.7,50.3l.055-.059q-.69.143-1.351.33a9.256,9.256,0,0,0-1.558,2.864,7.9,7.9,0,0,0-.375,1.385c-.074.339-.114.535-.114.535s-.008.2-.022.542a8.106,8.106,0,0,0,.014,1.424,11.318,11.318,0,0,0,1.116,4.118,10.239,10.239,0,0,0,1.308,2.032c.183-.1.377-.189.58-.273A10.544,10.544,0,0,1,95.211,61.109Z" transform="translate(-83.549 -50.244)" fill="#f463e5"/>
            <path id="Path_2400" data-name="Path 2400" d="M130.478,84.324a8.21,8.21,0,0,0-2.992-1.872,6.558,6.558,0,0,0-1.134-.323c-.278-.065-.438-.1-.438-.1l-.446-.021a6.692,6.692,0,0,0-1.171,0,9.318,9.318,0,0,0-3.385.89,7.869,7.869,0,0,0-1.053.61c-.016.284-.037.565-.066.845a8.486,8.486,0,0,1,1.445-.71,8.91,8.91,0,0,1,3.1-.577,5.812,5.812,0,0,1,1.031.059l.388.038.386.067a5.786,5.786,0,0,1,1.009.223,7.626,7.626,0,0,1,2.772,1.465,5.252,5.252,0,0,1,.421.386c.071-.307.125-.618.185-.927C130.512,84.363,130.5,84.341,130.478,84.324Z" transform="translate(-88.923 -56.843)" fill="#f463e5"/>
            <path id="Path_2401" data-name="Path 2401" d="M110.562,53.77a8.186,8.186,0,0,0-.976,1.056c-.222.268-.349.421-.349.422l-.271.47a8,8,0,0,0-.65,1.27,11.274,11.274,0,0,0-.923,4.165,10.165,10.165,0,0,0,.206,2.362c.227.059.45.121.669.187a10.584,10.584,0,0,1-.058-2.5,10.881,10.881,0,0,1,1.076-3.771,7.272,7.272,0,0,1,.643-1.116l.261-.411.3-.39a7.163,7.163,0,0,1,.83-.991,8.875,8.875,0,0,1,2.566-1.9c-.365-.163-.722-.3-1.081-.444A8.89,8.89,0,0,0,110.562,53.77Z" transform="translate(-86.406 -50.646)" fill="#f463e5"/>
            <path id="Path_2402" data-name="Path 2402" d="M112.031,106.234a7.63,7.63,0,0,0,.155-2.508c-.022-.259-.036-.408-.036-.408s-.041-.143-.11-.392a5.953,5.953,0,0,0-.339-1.011,7.967,7.967,0,0,0-1.427-2.3q-.395.2-.788.371a7.654,7.654,0,0,1,1.215,2.293,5.389,5.389,0,0,1,.235.9l.074.343s.018.126.052.349a5.2,5.2,0,0,1,.094.925,5.585,5.585,0,0,1-.122,1.507C111.362,106.292,111.692,106.272,112.031,106.234Z" transform="translate(-86.832 -60.51)" fill="#f463e5"/>
          </g>
          <path id="Path_2403" data-name="Path 2403" d="M110.281,95c-4.273-1.544,1.943-5.791,4.856-12.16s-.583-21.232-14.374-22.391S85.417,72.226,80.949,69.524c-1.691-1.023-2.073-2.819-1.9-4.657a11.337,11.337,0,0,0-.881,5.043s3.109,7.528,11.266,4.246c0,0-2.35-11.393,10.685-9.265,14.18,2.317,13.209,18.53,6.993,24.321s-14.181,3.282-14.181,3.282,7.1,9.077,17.289,4.247a16.639,16.639,0,0,0,2.726-1.655A4.734,4.734,0,0,1,110.281,95Z" transform="translate(-78.137 -51.943)" fill="#6148ec" opacity="0.2"/>
          <g id="Group_6121" data-name="Group 6121" transform="translate(15.661 1.766)" opacity="0.2">
            <g id="Group_6120" data-name="Group 6120">
              <g id="Group_6118" data-name="Group 6118">
                <path id="Path_2404" data-name="Path 2404" d="M101.509,52.728c.065.531-.712,1.069-1.741,1.2s-1.915-.205-1.981-.742.713-1.069,1.739-1.2S101.442,52.191,101.509,52.728Z" transform="translate(-97.783 -51.958)" fill="#6148ec"/>
              </g>
              <g id="Group_6119" data-name="Group 6119" transform="translate(5.282 0.285)">
                <path id="Path_2405" data-name="Path 2405" d="M107.127,52.988c.012.387-.588.724-1.337.745s-1.368-.278-1.38-.668.587-.726,1.337-.747S107.117,52.6,107.127,52.988Z" transform="translate(-104.41 -52.318)" fill="#6148ec"/>
              </g>
            </g>
          </g>
        </g>
        <g id="Group_6128" data-name="Group 6128">
          <path id="Path_2406" data-name="Path 2406" d="M54.207,71.942s2.351-11.393-10.684-9.265C29.342,64.994,30.314,81.207,36.53,87s14.181,3.282,14.181,3.282-7.1,9.077-17.289,4.247c-12.626-5.984-20.008-30.884.388-41.5S66.251,60.168,65.473,67.7C65.473,67.7,62.366,75.223,54.207,71.942Z" transform="translate(-21.097 -49.728)" fill="#fff"/>
          <g id="Group_6123" data-name="Group 6123" transform="translate(0.469 0.408)">
            <path id="Path_2407" data-name="Path 2407" d="M29.794,96.776a6.539,6.539,0,0,1,.622-1c.163-.234.257-.366.257-.366l.316-.314a6.725,6.725,0,0,1,.87-.779,9.291,9.291,0,0,1,3.109-1.6c.234-.071.47-.12.7-.167q.177.341.367.666a7.75,7.75,0,0,0-.809.271,8.859,8.859,0,0,0-2.686,1.642,5.851,5.851,0,0,0-.724.733c-.167.182-.261.288-.261.288l-.241.307a5.782,5.782,0,0,0-.6.838,7,7,0,0,0-.925,2.276c-.251-.261-.5-.531-.737-.806A7.141,7.141,0,0,1,29.794,96.776Z" transform="translate(-23.182 -59.041)" fill="#f463e5"/>
            <path id="Path_2408" data-name="Path 2408" d="M31.28,65.282c.308.163.484.258.484.258l.432.333a8.117,8.117,0,0,1,1.086.928,11.347,11.347,0,0,1,2.45,3.5v0c-.194.246-.375.5-.548.753-.065-.134-.118-.272-.19-.4a10.925,10.925,0,0,0-2.44-3.08,7.392,7.392,0,0,0-1.022-.788l-.4-.282-.423-.249a7.346,7.346,0,0,0-1.146-.6,9.588,9.588,0,0,0-3.844-.83l-.9.036c.162-.272.34-.54.517-.808l.354-.04a10.151,10.151,0,0,1,4.277.664A8.132,8.132,0,0,1,31.28,65.282Z" transform="translate(-22.323 -53.104)" fill="#f463e5"/>
            <path id="Path_2409" data-name="Path 2409" d="M63.123,70.235a7.663,7.663,0,0,0,1.885-.537,8.8,8.8,0,0,0,1.676-1,9.583,9.583,0,0,0,1.238-1.171,15.518,15.518,0,0,0,1.85-2.752,11.146,11.146,0,0,0,1.086-3.494c.012-.1.013-.191.022-.288.25.367.49.734.711,1.1a11.519,11.519,0,0,1-.852,3.122,11.644,11.644,0,0,1-.593,1.184l-.261.432A10.665,10.665,0,0,1,68.7,68.25a10.149,10.149,0,0,1-1.452,1.217,9.259,9.259,0,0,1-1.939.987,7.88,7.88,0,0,1-2.127.421c-.171.006-.328-.009-.493-.012q-.039-.291-.1-.589C62.768,70.263,62.94,70.259,63.123,70.235Z" transform="translate(-29.985 -52.479)" fill="#f463e5"/>
            <path id="Path_2410" data-name="Path 2410" d="M58.86,61.109a10.842,10.842,0,0,0,.8-3.838,7.3,7.3,0,0,0-.052-1.285c-.026-.308-.04-.485-.04-.485s-.029-.175-.082-.482a7.263,7.263,0,0,0-.275-1.259A9.439,9.439,0,0,0,57.372,50.3l-.056-.059c.461.1.91.205,1.352.33a9.273,9.273,0,0,1,1.558,2.864,7.972,7.972,0,0,1,.375,1.385c.073.339.114.535.114.535s.007.2.022.542a7.953,7.953,0,0,1-.014,1.424,11.3,11.3,0,0,1-1.116,4.118A10.275,10.275,0,0,1,58.3,63.474c-.184-.1-.377-.189-.58-.273A10.54,10.54,0,0,0,58.86,61.109Z" transform="translate(-28.915 -50.244)" fill="#f463e5"/>
            <path id="Path_2411" data-name="Path 2411" d="M21.739,84.324a8.207,8.207,0,0,1,2.992-1.872,6.6,6.6,0,0,1,1.134-.323c.279-.065.439-.1.439-.1l.446-.021a6.692,6.692,0,0,1,1.171,0,9.31,9.31,0,0,1,3.385.89,7.829,7.829,0,0,1,1.054.61c.015.284.037.565.065.845a8.457,8.457,0,0,0-1.445-.71,8.9,8.9,0,0,0-3.1-.577,5.812,5.812,0,0,0-1.031.059l-.388.038-.386.067a5.777,5.777,0,0,0-1.01.223,7.639,7.639,0,0,0-2.772,1.465,5.537,5.537,0,0,0-.421.386c-.07-.307-.125-.618-.185-.927C21.705,84.363,21.719,84.341,21.739,84.324Z" transform="translate(-21.686 -56.843)" fill="#f463e5"/>
            <path id="Path_2412" data-name="Path 2412" d="M42.735,53.77a8.244,8.244,0,0,1,.976,1.056c.222.268.348.421.348.422l.272.47a8.139,8.139,0,0,1,.65,1.27,11.306,11.306,0,0,1,.923,4.165,10.209,10.209,0,0,1-.206,2.362c-.228.059-.45.121-.669.187a10.628,10.628,0,0,0,.057-2.5,10.882,10.882,0,0,0-1.075-3.771,7.339,7.339,0,0,0-.643-1.116l-.261-.411s-.107-.142-.3-.39a7.149,7.149,0,0,0-.829-.991,8.887,8.887,0,0,0-2.566-1.9c.364-.163.721-.3,1.081-.444A8.89,8.89,0,0,1,42.735,53.77Z" transform="translate(-25.283 -50.646)" fill="#f463e5"/>
            <path id="Path_2413" data-name="Path 2413" d="M42.218,106.234a7.6,7.6,0,0,1-.155-2.508c.022-.259.037-.408.037-.408l.109-.392a5.9,5.9,0,0,1,.34-1.011,7.963,7.963,0,0,1,1.426-2.3q.395.2.788.371a7.65,7.65,0,0,0-1.214,2.293,5.311,5.311,0,0,0-.235.9c-.048.218-.075.343-.075.343l-.051.349a5.125,5.125,0,0,0-.094.925,5.549,5.549,0,0,0,.121,1.507C42.887,106.292,42.556,106.272,42.218,106.234Z" transform="translate(-25.809 -60.51)" fill="#f463e5"/>
          </g>
          <path id="Path_2414" data-name="Path 2414" d="M35.01,95c4.273-1.544-1.943-5.791-4.857-12.16s.583-21.232,14.375-22.391,15.345,11.774,19.813,9.072c1.691-1.023,2.073-2.819,1.9-4.657a11.324,11.324,0,0,1,.88,5.043s-3.108,7.528-11.266,4.246c0,0,2.351-11.393-10.684-9.265-14.181,2.317-13.209,18.53-6.993,24.321s14.181,3.282,14.181,3.282-7.1,9.077-17.289,4.247a16.68,16.68,0,0,1-2.727-1.655A4.736,4.736,0,0,0,35.01,95Z" transform="translate(-22.741 -51.943)" fill="#6148ec" opacity="0.2"/>
          <g id="Group_6127" data-name="Group 6127" transform="translate(20.752 1.766)" opacity="0.2">
            <g id="Group_6126" data-name="Group 6126">
              <g id="Group_6124" data-name="Group 6124" transform="translate(4.27)">
                <path id="Path_2415" data-name="Path 2415" d="M52.491,52.728c-.065.531.712,1.069,1.741,1.2s1.916-.205,1.982-.742-.713-1.069-1.739-1.2S52.558,52.191,52.491,52.728Z" transform="translate(-52.487 -51.958)" fill="#6148ec"/>
              </g>
              <g id="Group_6125" data-name="Group 6125" transform="translate(0 0.285)">
                <path id="Path_2416" data-name="Path 2416" d="M47.131,52.988c-.012.387.587.724,1.338.745s1.368-.278,1.38-.668-.587-.726-1.338-.747S47.141,52.6,47.131,52.988Z" transform="translate(-47.131 -52.318)" fill="#6148ec"/>
              </g>
            </g>
          </g>
        </g>
      </g>
    </g>
    <path id="Path_2417" data-name="Path 2417" d="M80.671,47.653c-2.094-.416-2.7,1.59-3.084,2.648-.2.569-1.2,4.284-1.82,6.613-.619-2.329-1.616-6.044-1.82-6.613-.381-1.058-.989-3.064-3.084-2.648s-1.79,2.988-1.79,2.988h1.447s-.037-1.4.914-1.438a1.055,1.055,0,0,1,1.142.718l2.687,8.891H76.27l2.688-8.891A1.055,1.055,0,0,1,80.1,49.2c.952.039.913,1.438.913,1.438h1.448S82.765,48.069,80.671,47.653Z" transform="translate(-30.828 -37.759)" fill="#6148ec"/>
  </g>
</svg>
