<svg id="Group_22353" data-name="Group 22353" xmlns="http://www.w3.org/2000/svg" width="80.494" height="80" viewBox="0 0 80.494 80">
  <g id="Group_6252" data-name="Group 6252" transform="translate(0 0)">
    <g id="Group_6251" data-name="Group 6251">
      <path id="Path_2526" data-name="Path 2526" d="M444.442,56.293a35.724,35.724,0,1,0,6.145,20A35.429,35.429,0,0,0,444.442,56.293Zm-43.353-11.7,1.02,2.456A32,32,0,0,0,392.25,53.6l-1.886-1.872A34.769,34.769,0,0,1,401.089,44.591Zm-11.2,7.606,1.884,1.872a31.81,31.81,0,0,0-6.552,9.71l-2.468-1.02A34.494,34.494,0,0,1,389.892,52.2ZM382.5,63.375l2.469,1.022a31.424,31.424,0,0,0-2.315,11.558h-2.683A34.074,34.074,0,0,1,382.5,63.375Zm-2.529,13.247h2.683a31.439,31.439,0,0,0,2.279,11.468L382.464,89.1A34.056,34.056,0,0,1,379.973,76.622Zm2.739,13.1,2.471-1.013a31.777,31.777,0,0,0,6.592,9.8l-1.884,1.873A34.506,34.506,0,0,1,382.712,89.722Zm7.652,11.129,1.887-1.872a31.981,31.981,0,0,0,9.769,6.511l-1.027,2.454A34.821,34.821,0,0,1,390.364,100.851Zm23.907,9.857a34.625,34.625,0,0,1-12.657-2.514l1.026-2.454a32.008,32.008,0,0,0,11.63,2.3Zm0-66.175A32.005,32.005,0,0,0,402.732,46.8l-1.019-2.456a34.633,34.633,0,0,1,12.559-2.475ZM449.24,75.955h-2.683a31.449,31.449,0,0,0-2.28-11.468l2.485-1.019A34.135,34.135,0,0,1,449.24,75.955Zm-5.909-18.916a34.334,34.334,0,0,1,3.177,5.814l-2.479,1.015a31.752,31.752,0,0,0-6.592-9.8l1.9-1.888A34.709,34.709,0,0,1,443.331,57.039Zm-4.476-5.322L436.962,53.6a31.976,31.976,0,0,0-9.77-6.511l1.024-2.447A34.637,34.637,0,0,1,438.855,51.717ZM414.94,41.871A34.771,34.771,0,0,1,427.6,44.383l-1.026,2.452a32.018,32.018,0,0,0-11.632-2.3Zm0,68.838v-2.665a32.046,32.046,0,0,0,11.54-2.267l1.019,2.456A34.634,34.634,0,0,1,414.94,110.709Zm13.182-2.722L427.1,105.53a32.015,32.015,0,0,0,9.859-6.551l1.885,1.872A34.775,34.775,0,0,1,428.122,107.986Zm11.2-7.606-1.884-1.873a31.824,31.824,0,0,0,6.552-9.71l2.468,1.021A34.518,34.518,0,0,1,439.32,100.38ZM446.71,89.2l-2.469-1.02a31.465,31.465,0,0,0,2.316-11.559h2.682A34.062,34.062,0,0,1,446.71,89.2Z" transform="translate(-374.359 -36.289)" fill="#fff"/>
      <path id="Path_2527" data-name="Path 2527" d="M413.52,35.176a40,40,0,1,0,40.246,40A40.124,40.124,0,0,0,413.52,35.176Zm0,77.314a37.315,37.315,0,1,1,37.544-37.315A37.431,37.431,0,0,1,413.52,112.49Z" transform="translate(-373.272 -35.176)" fill="#fff"/>
    </g>
  </g>
  <g id="Group_6291" data-name="Group 6291" transform="translate(6.868 14.88)">
    <g id="Group_6255" data-name="Group 6255" transform="translate(23.745 12.671)">
      <g id="Group_6253" data-name="Group 6253">
        <path id="Path_2528" data-name="Path 2528" d="M417.627,72.914a2.972,2.972,0,1,1-2.972-2.954A2.963,2.963,0,0,1,417.627,72.914Z" transform="translate(-411.683 -69.96)" fill="#f6c95b"/>
        <path id="Path_2529" data-name="Path 2529" d="M415.957,70.352a2.457,2.457,0,0,1-.221,3.191,2.5,2.5,0,0,1-3.484,0l-.109-.109a2.349,2.349,0,0,1-.441-.628c0,.064-.019.124-.019.189a2.972,2.972,0,1,0,4.274-2.643Z" transform="translate(-411.683 -70.041)" fill="#f6c95b" style="mix-blend-mode: multiply;isolation: isolate"/>
      </g>
      <g id="Group_6254" data-name="Group 6254" transform="translate(14.198)">
        <path id="Path_2530" data-name="Path 2530" d="M435.442,72.914a2.972,2.972,0,1,1-2.972-2.954A2.963,2.963,0,0,1,435.442,72.914Z" transform="translate(-429.498 -69.96)" fill="#f6c95b"/>
        <path id="Path_2531" data-name="Path 2531" d="M433.278,74.13a2.461,2.461,0,0,1-1.966-3.876,2.958,2.958,0,1,0,4.13,2.721c0-.067-.016-.13-.02-.2A2.227,2.227,0,0,1,433.278,74.13Z" transform="translate(-429.498 -70.021)" fill="#f6c95b" style="mix-blend-mode: multiply;isolation: isolate"/>
      </g>
    </g>
    <g id="Group_6271" data-name="Group 6271" transform="translate(41.934)">
      <g id="Group_6269" data-name="Group 6269">
        <g id="Group_6262" data-name="Group 6262">
          <g id="Group_6256" data-name="Group 6256">
            <path id="Path_2532" data-name="Path 2532" d="M444.641,77.9c-1.213,1.933-1.2,4.119.029,4.882s3.211-.187,4.424-2.12,1.2-4.12-.029-4.882S445.855,75.963,444.641,77.9Z" transform="translate(-436.38 -58.443)" fill="#f6c95b"/>
            <path id="Path_2533" data-name="Path 2533" d="M448.334,72.566a2.634,2.634,0,1,0,1.786-3.435A2.757,2.757,0,0,0,448.334,72.566Z" transform="translate(-437.291 -57.099)" fill="#f6c95b"/>
            <path id="Path_2534" data-name="Path 2534" d="M442.862,62.072s-4.281-5.106-6.151-7.252c2.4-1.556,6.161-.972,8.984,1.575,3.224,2.9,4.009,7.259,1.759,9.727s-6.692,2.115-9.913-.79c-2.736-2.464-3.708-5.971-2.566-8.485Z" transform="translate(-434.506 -53.963)" fill="#f6c95b"/>
          </g>
          <g id="Group_6257" data-name="Group 6257" transform="translate(9.303 13.79)">
            <path id="Path_2535" data-name="Path 2535" d="M449.874,86.015c2.255-.409,4.269.259,4.5,1.495s-1.418,2.568-3.673,2.976-4.269-.259-4.5-1.494S447.617,86.425,449.874,86.015Z" transform="translate(-446.179 -74.393)" fill="#f6c95b"/>
            <path id="Path_2536" data-name="Path 2536" d="M456.5,81.63c1.18-1.606,2.9-2.35,3.852-1.663s.755,2.547-.426,4.151-2.907,2.35-3.853,1.663S455.319,83.236,456.5,81.63Z" transform="translate(-448.066 -73.107)" fill="#f6c95b"/>
            <path id="Path_2537" data-name="Path 2537" d="M463.294,71.373c-.446,1.533-.145,2.375-1.352,3.732-.663.745-1.835,2.851-.107,3.2,1.15.232,2.4-1.158,2.806-3.107A4.341,4.341,0,0,0,463.294,71.373Z" transform="translate(-449.174 -71.373)" fill="#f6c95b"/>
          </g>
          <g id="Group_6261" data-name="Group 6261" transform="translate(2.041 32.978)">
            <g id="Group_6258" data-name="Group 6258" transform="translate(6.307)">
              <path id="Path_2538" data-name="Path 2538" d="M448.426,99.489c1.96.1,3.592-.681,3.652-1.753s-1.485-2.026-3.444-2.129-3.593.681-3.652,1.754S446.468,99.386,448.426,99.489Z" transform="translate(-444.981 -95.598)" fill="#f6c95b"/>
              <path id="Path_2539" data-name="Path 2539" d="M454.471,102.187c1.18,1.235,2.725,1.68,3.451.994s.363-2.242-.814-3.476-2.723-1.679-3.451-.994S453.292,100.953,454.471,102.187Z" transform="translate(-446.666 -96.178)" fill="#f6c95b"/>
              <path id="Path_2540" data-name="Path 2540" d="M461.323,110.021c-.548-1.251-.385-2-1.557-3.019-.645-.562-1.868-2.222-.441-2.7.949-.322,2.167.722,2.721,2.332A3.709,3.709,0,0,1,461.323,110.021Z" transform="translate(-447.759 -97.394)" fill="#f6c95b"/>
            </g>
            <g id="Group_6259" data-name="Group 6259" transform="translate(4.147 4.79)">
              <path id="Path_2541" data-name="Path 2541" d="M444.683,104.969c1.571.466,3.052.147,3.31-.711s-.806-1.933-2.374-2.4-3.051-.147-3.31.713S443.116,104.5,444.683,104.969Z" transform="translate(-442.271 -101.646)" fill="#f6c95b"/>
              <path id="Path_2542" data-name="Path 2542" d="M449.083,108.269c.711,1.232,1.877,1.894,2.6,1.48s.736-1.75.024-2.981-1.879-1.893-2.605-1.479S448.367,107.039,449.083,108.269Z" transform="translate(-443.546 -102.377)" fill="#f6c95b"/>
              <path id="Path_2543" data-name="Path 2543" d="M453.134,115.957c-.2-1.122.082-1.7-.669-2.754-.413-.581-1.078-2.167.174-2.281.834-.075,1.616,1.009,1.749,2.424A3.1,3.1,0,0,1,453.134,115.957Z" transform="translate(-444.229 -103.574)" fill="#f6c95b"/>
            </g>
            <g id="Group_6260" data-name="Group 6260" transform="translate(0 7.614)">
              <path id="Path_2544" data-name="Path 2544" d="M438.67,108.321c1.245.783,2.6.866,3.04.184s-.228-1.868-1.471-2.65-2.606-.863-3.039-.182S437.426,107.54,438.67,108.321Z" transform="translate(-437.067 -105.211)" fill="#f6c95b"/>
              <path id="Path_2545" data-name="Path 2545" d="M441.651,112.214c.317,1.239,1.164,2.093,1.893,1.91s1.066-1.337.749-2.575-1.164-2.092-1.894-1.91S441.333,110.976,441.651,112.214Z" transform="translate(-437.973 -106.126)" fill="#f6c95b"/>
              <path id="Path_2546" data-name="Path 2546" d="M443.333,119.839c.1-1.019.485-1.449.094-2.545-.215-.6-.4-2.137.709-1.933.741.135,1.154,1.263.922,2.52A2.807,2.807,0,0,1,443.333,119.839Z" transform="translate(-438.325 -107.317)" fill="#f6c95b"/>
            </g>
          </g>
        </g>
        <g id="Group_6263" data-name="Group 6263" transform="translate(0.021 3.306)" style="mix-blend-mode: multiply;isolation: isolate">
          <path id="Path_2547" data-name="Path 2547" d="M448.57,76.536a3.1,3.1,0,0,1,1.251.25,1.864,1.864,0,0,0-.755-1.008c-1.231-.764-3.211.186-4.425,2.12s-1.2,4.119.029,4.882a2.6,2.6,0,0,0,2.809-.394C444.7,81.372,445.057,76.536,448.57,76.536Z" transform="translate(-436.401 -61.749)" fill="#f6c95b"/>
          <path id="Path_2548" data-name="Path 2548" d="M452.012,73.607a2.091,2.091,0,0,1-2.078-2.065v-.109a2.087,2.087,0,0,1,2.029-2.059,2.494,2.494,0,0,0-1.843-.242,2.865,2.865,0,0,0,1.5,5.51,2.516,2.516,0,0,0,1.647-1.473A2.052,2.052,0,0,1,452.012,73.607Z" transform="translate(-437.312 -60.406)" fill="#f6c95b"/>
          <path id="Path_2549" data-name="Path 2549" d="M442.737,66.126c-5.213,0-7.842-3.974-7.9-7.99-.868,2.474.117,5.731,2.707,8.063,3.221,2.9,7.659,3.259,9.913.79a5.1,5.1,0,0,0,1.278-3.5A7.526,7.526,0,0,1,442.737,66.126Z" transform="translate(-434.531 -58.136)" fill="#f6c95b"/>
        </g>
        <g id="Group_6264" data-name="Group 6264" transform="translate(9.303 13.79)" style="mix-blend-mode: multiply;isolation: isolate">
          <path id="Path_2550" data-name="Path 2550" d="M451.6,86.789a2.754,2.754,0,0,1,2.624,1.616,1.43,1.43,0,0,0,.149-.9c-.227-1.236-2.241-1.9-4.5-1.495s-3.9,1.743-3.674,2.977c.158.857,1.185,1.43,2.549,1.571A2.943,2.943,0,0,1,451.6,86.789Z" transform="translate(-446.179 -74.393)" fill="#f6c95b"/>
          <path id="Path_2551" data-name="Path 2551" d="M460.527,80.472c.083,0,.154.018.233.024a1.343,1.343,0,0,0-.407-.528c-.947-.688-2.672.056-3.852,1.663s-1.374,3.464-.427,4.152a2.094,2.094,0,0,0,2.263-.2C456.848,83.891,457.577,80.472,460.527,80.472Z" transform="translate(-448.066 -73.107)" fill="#f6c95b"/>
          <path id="Path_2552" data-name="Path 2552" d="M464.554,73.524a3.824,3.824,0,0,0-1.26-2.151c-.446,1.533-.145,2.375-1.352,3.732-.663.745-1.835,2.851-.107,3.2a1.53,1.53,0,0,0,1.133-.275A3.1,3.1,0,0,1,464.554,73.524Z" transform="translate(-449.174 -71.373)" fill="#f6c95b"/>
        </g>
        <g id="Group_6268" data-name="Group 6268" transform="translate(2.048 32.978)" style="mix-blend-mode: multiply;isolation: isolate">
          <g id="Group_6265" data-name="Group 6265" transform="translate(6.3)">
            <path id="Path_2553" data-name="Path 2553" d="M448.634,95.607c-1.959-.1-3.593.681-3.652,1.754-.032.588.428,1.132,1.16,1.528a2.477,2.477,0,0,1,2.458-2.4h.111a2.479,2.479,0,0,1,2.462,2.439,1.574,1.574,0,0,0,.9-1.194C452.135,96.663,450.593,95.71,448.634,95.607Z" transform="translate(-444.981 -95.598)" fill="#f6c95b"/>
            <path id="Path_2554" data-name="Path 2554" d="M457.11,99.7c-1.18-1.235-2.723-1.679-3.451-.994a1.472,1.472,0,0,0-.334,1.348,2.423,2.423,0,0,1,1.257-.361h.11a2.479,2.479,0,0,1,2.463,2.448,2.417,2.417,0,0,1-.409,1.332,1.4,1.4,0,0,0,1.179-.3C458.654,102.5,458.288,100.939,457.11,99.7Z" transform="translate(-446.669 -96.178)" fill="#f6c95b"/>
            <path id="Path_2555" data-name="Path 2555" d="M462.046,106.629c-.554-1.609-1.772-2.653-2.721-2.332a.824.824,0,0,0-.657.924,2.872,2.872,0,0,1,.414-.04A2.464,2.464,0,0,1,461,109.124a7.672,7.672,0,0,0,.322.9A3.709,3.709,0,0,0,462.046,106.629Z" transform="translate(-447.759 -97.394)" fill="#f6c95b"/>
          </g>
          <g id="Group_6266" data-name="Group 6266" transform="translate(4.141 4.79)">
            <path id="Path_2556" data-name="Path 2556" d="M445.619,101.859c-1.568-.464-3.051-.147-3.31.713a1.465,1.465,0,0,0,.581,1.415,2.231,2.231,0,0,1,2.079-1.206,2.284,2.284,0,0,1,2.358,2.158,1.162,1.162,0,0,0,.665-.681C448.252,103.4,447.188,102.325,445.619,101.859Z" transform="translate(-442.272 -101.646)" fill="#f6c95b"/>
            <path id="Path_2557" data-name="Path 2557" d="M451.723,106.767c-.714-1.231-1.879-1.893-2.605-1.479a1.086,1.086,0,0,0-.479.685c0,.063-.016.121-.022.181.059,0,.112-.017.172-.017a2.448,2.448,0,0,1,2.084,3.678,1.091,1.091,0,0,0,.826-.068C452.424,109.333,452.435,108,451.723,106.767Z" transform="translate(-443.56 -102.377)" fill="#f6c95b"/>
            <path id="Path_2558" data-name="Path 2558" d="M454.391,113.346c-.132-1.415-.914-2.5-1.749-2.424a.691.691,0,0,0-.713.617c2.034.362,2.424,2.964,1.177,4.2.009.073.016.142.03.219A3.1,3.1,0,0,0,454.391,113.346Z" transform="translate(-444.232 -103.574)" fill="#f6c95b"/>
          </g>
          <g id="Group_6267" data-name="Group 6267" transform="translate(0 7.614)">
            <path id="Path_2559" data-name="Path 2559" d="M440.241,105.854c-1.244-.781-2.606-.863-3.039-.182a.952.952,0,0,0-.109.675,2.409,2.409,0,0,1,1.208-.309,2.376,2.376,0,0,1,2.342,2.92,1.208,1.208,0,0,0,1.069-.454C442.144,107.823,441.484,106.636,440.241,105.854Z" transform="translate(-437.076 -105.211)" fill="#f6c95b"/>
            <path id="Path_2560" data-name="Path 2560" d="M444.346,111.548c-.316-1.238-1.164-2.092-1.894-1.91a1.041,1.041,0,0,0-.657.612,2.517,2.517,0,0,1,1.167,3.785.933.933,0,0,0,.634.088C444.329,113.94,444.663,112.786,444.346,111.548Z" transform="translate(-438.034 -106.126)" fill="#f6c95b"/>
            <path id="Path_2561" data-name="Path 2561" d="M444.154,115.361a.628.628,0,0,0-.8.465,2.618,2.618,0,0,1,.037,3.721c-.016.093-.03.188-.041.291a2.807,2.807,0,0,0,1.725-1.958C445.308,116.624,444.895,115.5,444.154,115.361Z" transform="translate(-438.35 -107.317)" fill="#f6c95b"/>
          </g>
        </g>
      </g>
      <g id="Group_6270" data-name="Group 6270" transform="translate(7.909 2.053)" style="mix-blend-mode: screen;isolation: isolate">
        <path id="Path_2562" data-name="Path 2562" d="M447.606,59.1c-.293.266-.117.937.4,1.5s1.17.8,1.465.528.117-.937-.4-1.5S447.9,58.828,447.606,59.1Z" transform="translate(-445.046 -57.06)" fill="#f6c95b"/>
        <path id="Path_2563" data-name="Path 2563" d="M444.509,56.659c-.194.212-.02.686.389,1.055s.9.5,1.1.283.02-.685-.39-1.055S444.7,56.445,444.509,56.659Z" transform="translate(-444.43 -56.555)" fill="#f6c95b"/>
      </g>
    </g>
    <g id="Group_6288" data-name="Group 6288">
      <g id="Group_6286" data-name="Group 6286">
        <g id="Group_6278" data-name="Group 6278">
          <g id="Group_6272" data-name="Group 6272" transform="translate(8.604)">
            <path id="Path_2564" data-name="Path 2564" d="M401.31,77.9c1.213,1.933,1.2,4.119-.029,4.882s-3.212-.187-4.424-2.12-1.2-4.12.029-4.882S400.1,75.963,401.31,77.9Z" transform="translate(-393.349 -58.443)" fill="#f6c95b"/>
            <path id="Path_2565" data-name="Path 2565" d="M397.864,72.566a2.634,2.634,0,1,1-1.787-3.435A2.758,2.758,0,0,1,397.864,72.566Z" transform="translate(-392.686 -57.099)" fill="#f6c95b"/>
            <path id="Path_2566" data-name="Path 2566" d="M401.057,62.072s4.281-5.106,6.15-7.252c-2.4-1.556-6.16-.972-8.983,1.575-3.224,2.9-4.01,7.259-1.759,9.727s6.691,2.115,9.913-.79c2.736-2.464,3.708-5.971,2.566-8.485Z" transform="translate(-393.192 -53.963)" fill="#f6c95b"/>
          </g>
          <g id="Group_6273" data-name="Group 6273" transform="translate(0 13.79)">
            <path id="Path_2567" data-name="Path 2567" d="M395.579,86.015c-2.255-.409-4.268.259-4.5,1.495s1.418,2.568,3.673,2.976,4.268-.259,4.5-1.494S397.835,86.425,395.579,86.015Z" transform="translate(-383.752 -74.393)" fill="#f6c95b"/>
            <path id="Path_2568" data-name="Path 2568" d="M389.648,81.63c-1.18-1.606-2.9-2.35-3.852-1.663s-.755,2.547.426,4.151,2.907,2.35,3.853,1.663S390.83,83.236,389.648,81.63Z" transform="translate(-382.56 -73.107)" fill="#f6c95b"/>
            <path id="Path_2569" data-name="Path 2569" d="M383.291,71.373c.448,1.533.147,2.375,1.353,3.732.664.745,1.835,2.851.107,3.2-1.149.232-2.4-1.158-2.805-3.107A4.344,4.344,0,0,1,383.291,71.373Z" transform="translate(-381.889 -71.373)" fill="#f6c95b"/>
          </g>
          <g id="Group_6277" data-name="Group 6277" transform="translate(2.049 32.978)">
            <g id="Group_6274" data-name="Group 6274">
              <path id="Path_2570" data-name="Path 2570" d="M397.311,99.489c-1.961.1-3.594-.681-3.653-1.753s1.484-2.026,3.443-2.129,3.594.681,3.652,1.754S399.268,99.386,397.311,99.489Z" transform="translate(-386.327 -95.598)" fill="#f6c95b"/>
              <path id="Path_2571" data-name="Path 2571" d="M391.8,102.187c-1.18,1.235-2.724,1.68-3.452.994s-.363-2.242.816-3.476,2.724-1.679,3.451-.994S392.975,100.953,391.8,102.187Z" transform="translate(-385.172 -96.178)" fill="#f6c95b"/>
              <path id="Path_2572" data-name="Path 2572" d="M385.324,110.021c.547-1.251.384-2,1.557-3.019.645-.562,1.868-2.222.441-2.7-.95-.322-2.167.722-2.721,2.332A3.707,3.707,0,0,0,385.324,110.021Z" transform="translate(-384.46 -97.394)" fill="#f6c95b"/>
            </g>
            <g id="Group_6275" data-name="Group 6275" transform="translate(6.422 4.79)">
              <path id="Path_2573" data-name="Path 2573" d="M401.394,104.969c-1.572.466-3.052.147-3.31-.711s.805-1.933,2.374-2.4,3.05-.147,3.31.713S402.962,104.5,401.394,104.969Z" transform="translate(-393.64 -101.646)" fill="#f6c95b"/>
              <path id="Path_2574" data-name="Path 2574" d="M397.523,108.269c-.711,1.232-1.877,1.894-2.6,1.48s-.736-1.75-.022-2.981,1.878-1.893,2.6-1.479S398.239,107.039,397.523,108.269Z" transform="translate(-392.893 -102.377)" fill="#f6c95b"/>
              <path id="Path_2575" data-name="Path 2575" d="M393.78,115.957c.2-1.122-.083-1.7.667-2.754.413-.581,1.079-2.167-.174-2.281-.834-.075-1.617,1.009-1.749,2.424A3.1,3.1,0,0,0,393.78,115.957Z" transform="translate(-392.517 -103.574)" fill="#f6c95b"/>
            </g>
            <g id="Group_6276" data-name="Group 6276" transform="translate(13.938 7.614)">
              <path id="Path_2576" data-name="Path 2576" d="M407.658,108.321c-1.245.783-2.6.866-3.04.184s.227-1.868,1.471-2.65,2.606-.863,3.038-.182S408.9,107.54,407.658,108.321Z" transform="translate(-402.464 -105.211)" fill="#f6c95b"/>
              <path id="Path_2577" data-name="Path 2577" d="M405.16,112.214c-.317,1.239-1.164,2.093-1.892,1.91s-1.067-1.337-.75-2.575,1.164-2.092,1.894-1.91S405.478,110.976,405.16,112.214Z" transform="translate(-402.04 -106.126)" fill="#f6c95b"/>
              <path id="Path_2578" data-name="Path 2578" d="M403.738,119.839c-.1-1.019-.485-1.449-.094-2.545.216-.6.4-2.137-.709-1.933-.74.135-1.153,1.263-.921,2.52A2.807,2.807,0,0,0,403.738,119.839Z" transform="translate(-401.949 -107.317)" fill="#f6c95b"/>
            </g>
          </g>
        </g>
        <g id="Group_6285" data-name="Group 6285" transform="translate(0.144 3.306)" style="mix-blend-mode: multiply;isolation: isolate">
          <g id="Group_6279" data-name="Group 6279" transform="translate(8.708)">
            <path id="Path_2579" data-name="Path 2579" d="M397.426,76.536a3.107,3.107,0,0,0-1.252.25,1.869,1.869,0,0,1,.756-1.008c1.23-.764,3.211.186,4.425,2.12s1.2,4.119-.029,4.882a2.6,2.6,0,0,1-2.809-.394C401.295,81.372,400.938,76.536,397.426,76.536Z" transform="translate(-393.641 -61.749)" fill="#f6c95b"/>
            <path id="Path_2580" data-name="Path 2580" d="M394.249,73.607a2.091,2.091,0,0,0,2.078-2.065v-.109a2.087,2.087,0,0,0-2.029-2.059,2.494,2.494,0,0,1,1.843-.242,2.865,2.865,0,0,1-1.5,5.51A2.515,2.515,0,0,1,393,73.168,2.048,2.048,0,0,0,394.249,73.607Z" transform="translate(-392.996 -60.406)" fill="#f6c95b"/>
            <path id="Path_2581" data-name="Path 2581" d="M401.188,66.126c5.213,0,7.842-3.974,7.9-7.99.868,2.474-.117,5.731-2.707,8.063-3.221,2.9-7.659,3.259-9.913.79a5.1,5.1,0,0,1-1.279-3.5A7.529,7.529,0,0,0,401.188,66.126Z" transform="translate(-393.441 -58.136)" fill="#f6c95b"/>
          </g>
          <g id="Group_6280" data-name="Group 6280" transform="translate(0 10.485)">
            <path id="Path_2582" data-name="Path 2582" d="M393.856,86.789a2.753,2.753,0,0,0-2.624,1.616,1.424,1.424,0,0,1-.149-.9c.227-1.236,2.24-1.9,4.5-1.495s3.9,1.743,3.674,2.977c-.158.857-1.186,1.43-2.549,1.571A2.943,2.943,0,0,0,393.856,86.789Z" transform="translate(-383.896 -74.393)" fill="#f6c95b"/>
            <path id="Path_2583" data-name="Path 2583" d="M385.67,80.472c-.082,0-.152.018-.233.024a1.346,1.346,0,0,1,.408-.528c.947-.688,2.671.056,3.852,1.663s1.374,3.464.427,4.152a2.1,2.1,0,0,1-2.263-.2C389.35,83.891,388.621,80.472,385.67,80.472Z" transform="translate(-382.754 -73.107)" fill="#f6c95b"/>
            <path id="Path_2584" data-name="Path 2584" d="M382.07,73.524a3.826,3.826,0,0,1,1.258-2.151c.448,1.533.147,2.375,1.353,3.732.664.745,1.835,2.851.107,3.2a1.526,1.526,0,0,1-1.132-.275A3.1,3.1,0,0,0,382.07,73.524Z" transform="translate(-382.07 -71.373)" fill="#f6c95b"/>
          </g>
          <g id="Group_6284" data-name="Group 6284" transform="translate(1.905 29.672)">
            <g id="Group_6281" data-name="Group 6281">
              <path id="Path_2585" data-name="Path 2585" d="M397.1,95.607c1.959-.1,3.594.681,3.652,1.754.033.588-.427,1.132-1.16,1.528a2.477,2.477,0,0,0-2.458-2.4h-.11a2.48,2.48,0,0,0-2.462,2.439,1.572,1.572,0,0,1-.9-1.194C393.6,96.663,395.143,95.71,397.1,95.607Z" transform="translate(-386.327 -95.598)" fill="#f6c95b"/>
              <path id="Path_2586" data-name="Path 2586" d="M389.16,99.7c1.179-1.235,2.724-1.679,3.451-.994a1.472,1.472,0,0,1,.334,1.348,2.423,2.423,0,0,0-1.257-.361h-.11a2.479,2.479,0,0,0-2.463,2.448,2.412,2.412,0,0,0,.41,1.332,1.405,1.405,0,0,1-1.181-.3C387.616,102.5,387.981,100.939,389.16,99.7Z" transform="translate(-385.172 -96.178)" fill="#f6c95b"/>
              <path id="Path_2587" data-name="Path 2587" d="M384.6,106.629c.554-1.609,1.771-2.653,2.721-2.332a.824.824,0,0,1,.657.924,2.875,2.875,0,0,0-.415-.04,2.464,2.464,0,0,0-1.917,3.944,7.707,7.707,0,0,1-.322.9A3.707,3.707,0,0,1,384.6,106.629Z" transform="translate(-384.46 -97.394)" fill="#f6c95b"/>
            </g>
            <g id="Group_6282" data-name="Group 6282" transform="translate(6.422 4.79)">
              <path id="Path_2588" data-name="Path 2588" d="M400.458,101.859c1.568-.464,3.05-.147,3.31.713a1.467,1.467,0,0,1-.581,1.415,2.23,2.23,0,0,0-2.078-1.206,2.285,2.285,0,0,0-2.359,2.158,1.162,1.162,0,0,1-.665-.681C397.825,103.4,398.889,102.325,400.458,101.859Z" transform="translate(-393.64 -101.646)" fill="#f6c95b"/>
              <path id="Path_2589" data-name="Path 2589" d="M394.9,106.767c.713-1.231,1.878-1.893,2.6-1.479a1.083,1.083,0,0,1,.478.685c0,.063.017.121.022.181-.06,0-.112-.017-.172-.017a2.448,2.448,0,0,0-2.084,3.678,1.093,1.093,0,0,1-.826-.068C394.2,109.333,394.184,108,394.9,106.767Z" transform="translate(-392.893 -102.377)" fill="#f6c95b"/>
              <path id="Path_2590" data-name="Path 2590" d="M392.525,113.346c.131-1.415.914-2.5,1.749-2.424a.691.691,0,0,1,.713.617c-2.035.362-2.424,2.964-1.177,4.2-.009.073-.016.142-.029.219A3.1,3.1,0,0,1,392.525,113.346Z" transform="translate(-392.517 -103.574)" fill="#f6c95b"/>
            </g>
            <g id="Group_6283" data-name="Group 6283" transform="translate(13.938 7.614)">
              <path id="Path_2591" data-name="Path 2591" d="M406.089,105.854c1.244-.781,2.606-.863,3.038-.182a.948.948,0,0,1,.11.675,2.41,2.41,0,0,0-1.208-.309,2.376,2.376,0,0,0-2.342,2.92,1.207,1.207,0,0,1-1.069-.454C404.185,107.823,404.845,106.636,406.089,105.854Z" transform="translate(-402.464 -105.211)" fill="#f6c95b"/>
              <path id="Path_2592" data-name="Path 2592" d="M402.518,111.548c.316-1.238,1.164-2.092,1.894-1.91a1.043,1.043,0,0,1,.657.612,2.516,2.516,0,0,0-1.167,3.785.932.932,0,0,1-.634.088C402.536,113.94,402.2,112.786,402.518,111.548Z" transform="translate(-402.04 -106.126)" fill="#f6c95b"/>
              <path id="Path_2593" data-name="Path 2593" d="M402.935,115.361a.627.627,0,0,1,.8.465,2.618,2.618,0,0,0-.036,3.721c.016.093.03.188.041.291a2.807,2.807,0,0,1-1.725-1.958C401.782,116.624,402.194,115.5,402.935,115.361Z" transform="translate(-401.949 -107.317)" fill="#f6c95b"/>
            </g>
          </g>
        </g>
      </g>
      <g id="Group_6287" data-name="Group 6287" transform="translate(12.35 2.053)" style="mix-blend-mode: screen;isolation: isolate">
        <path id="Path_2594" data-name="Path 2594" d="M399.392,59.1c.293.266.117.937-.4,1.5s-1.171.8-1.466.528-.116-.937.394-1.5S399.1,58.828,399.392,59.1Z" transform="translate(-397.386 -57.06)" fill="#f6c95b"/>
        <path id="Path_2595" data-name="Path 2595" d="M402.618,56.659c.194.212.02.686-.389,1.055s-.9.5-1.1.283-.02-.685.39-1.055S402.423,56.445,402.618,56.659Z" transform="translate(-398.131 -56.555)" fill="#f6c95b"/>
      </g>
    </g>
    <g id="Group_6290" data-name="Group 6290" transform="translate(14.133 17.541)">
      <path id="Path_2596" data-name="Path 2596" d="M438.07,88.505c0,8.781-8.454,17.357-19.072,17.357s-19.376-8.576-19.376-17.357,8.457-12.4,19.074-12.4S438.07,79.725,438.07,88.505Z" transform="translate(-399.622 -76.108)" fill="#f6c95b"/>
      <path id="Path_2597" data-name="Path 2597" d="M432.755,80.075a15.091,15.091,0,0,1-3.623,15.831,15.488,15.488,0,0,1-10.872,4.475h-.44a15.488,15.488,0,0,1-10.872-4.475,15.3,15.3,0,0,1-4.5-10.8,15.125,15.125,0,0,1,.45-3.583,10.232,10.232,0,0,0-3.272,7.811c0,8.781,8.76,17.357,19.376,17.357S438.07,98.111,438.07,89.33A10.342,10.342,0,0,0,432.755,80.075Z" transform="translate(-399.622 -76.933)" fill="#f6c95b" opacity="0.5" style="mix-blend-mode: multiply;isolation: isolate"/>
      <g id="Group_6289" data-name="Group 6289" transform="translate(26.902 2.48)" style="mix-blend-mode: screen;isolation: isolate">
        <path id="Path_2598" data-name="Path 2598" d="M437,81.068c-.224.327.1.939.736,1.366s1.325.505,1.551.175-.107-.939-.736-1.366S437.223,80.739,437,81.068Z" transform="translate(-434.098 -79.577)" fill="#f6c95b"/>
        <path id="Path_2599" data-name="Path 2599" d="M433.412,79.423c-.138.251.141.672.624.936s.992.276,1.133.023-.14-.672-.625-.937S433.552,79.169,433.412,79.423Z" transform="translate(-433.377 -79.239)" fill="#f6c95b"/>
      </g>
    </g>
  </g>
  <g id="Group_6293" data-name="Group 6293" transform="translate(34.237 12.526)">
    <g id="Group_6292" data-name="Group 6292">
      <path id="Path_2600" data-name="Path 2600" d="M427.624,54.508l.626-.623a9.728,9.728,0,0,0-9.471-2.556l0,0a3.089,3.089,0,1,0,2.282.543A8.771,8.771,0,0,1,427.624,54.508Zm-8.35-2.353a2.167,2.167,0,1,1-.224.011v0l.013,0C419.133,52.158,419.2,52.154,419.275,52.154Z" transform="translate(-416.231 -50.991)" fill="#6148ec"/>
      <path id="Path_2601" data-name="Path 2601" d="M427.835,60.294a3.009,3.009,0,0,0-.609-1.811,3.086,3.086,0,0,0-2.264-1.211,2.5,2.5,0,0,0-.327.006c-.081.007-.163.013-.245.023a2.944,2.944,0,0,0-.481.1,3.011,3.011,0,0,0-1.053,5.221,8.756,8.756,0,0,1-6-2.63l-.627.623a9.736,9.736,0,0,0,9.143,2.643A3.03,3.03,0,0,0,427.835,60.294Zm-2.4,2.058a2.154,2.154,0,1,1,1.525-2.058A2.184,2.184,0,0,1,425.438,62.352Z" transform="translate(-416.231 -52.296)" fill="#6148ec"/>
    </g>
  </g>
</svg>
