<svg xmlns="http://www.w3.org/2000/svg" width="79.999" height="80" viewBox="0 0 79.999 80">
  <g id="Group_22370" data-name="Group 22370" transform="translate(-141.748 -346.127)">
    <g id="Group_5959" data-name="Group 5959" transform="translate(141.748 346.127)">
      <g id="Group_5958" data-name="Group 5958">
        <path id="Path_2243" data-name="Path 2243" d="M212.513,367.245a35.767,35.767,0,1,0,6.107,19.994A35.752,35.752,0,0,0,212.513,367.245Zm-43.086-11.7L170.44,358a31.8,31.8,0,0,0-9.8,6.55l-1.874-1.872A34.537,34.537,0,0,1,169.427,355.542ZM158.3,363.149l1.873,1.872a31.8,31.8,0,0,0-6.512,9.71l-2.454-1.021A34.536,34.536,0,0,1,158.3,363.149Zm-7.344,11.179,2.454,1.02a31.644,31.644,0,0,0-2.3,11.56H148.44A34.241,34.241,0,0,1,150.953,374.328Zm-2.513,13.246h2.665a31.664,31.664,0,0,0,2.266,11.468l-2.456,1.012A34.231,34.231,0,0,1,148.44,387.574Zm2.722,13.1,2.457-1.013a31.808,31.808,0,0,0,6.551,9.8l-1.873,1.872A34.543,34.543,0,0,1,151.163,400.674Zm7.605,11.129,1.874-1.874a31.783,31.783,0,0,0,9.71,6.512l-1.02,2.454A34.559,34.559,0,0,1,158.768,411.8Zm23.76,9.857a34.246,34.246,0,0,1-12.58-2.514l1.02-2.453a31.645,31.645,0,0,0,11.56,2.3Zm0-66.175a31.657,31.657,0,0,0-11.469,2.265l-1.013-2.455a34.29,34.29,0,0,1,12.482-2.476Zm34.755,31.422h-2.667a31.649,31.649,0,0,0-2.267-11.469l2.47-1.019A34.336,34.336,0,0,1,217.282,386.907Zm-5.874-18.916a34.37,34.37,0,0,1,3.157,5.813l-2.463,1.015a31.8,31.8,0,0,0-6.552-9.8l1.888-1.89A34.634,34.634,0,0,1,211.408,367.991Zm-4.447-5.323-1.882,1.882a31.781,31.781,0,0,0-9.71-6.511l1.018-2.446A34.429,34.429,0,0,1,206.961,362.668Zm-23.768-9.845a34.375,34.375,0,0,1,12.579,2.512l-1.019,2.451a31.629,31.629,0,0,0-11.559-2.3Zm0,68.838V419a31.691,31.691,0,0,0,11.468-2.267l1.014,2.456A34.242,34.242,0,0,1,183.193,421.66Zm13.1-2.722-1.013-2.456a31.8,31.8,0,0,0,9.8-6.553l1.873,1.874A34.537,34.537,0,0,1,196.293,418.938Zm11.13-7.606-1.873-1.872a31.822,31.822,0,0,0,6.512-9.712l2.453,1.021A34.537,34.537,0,0,1,207.423,411.332Zm7.343-11.18-2.454-1.019a31.658,31.658,0,0,0,2.3-11.559h2.665A34.241,34.241,0,0,1,214.767,400.152Z" transform="translate(-142.861 -347.24)" fill="#fff"/>
        <path id="Path_2244" data-name="Path 2244" d="M181.748,346.127a40,40,0,1,0,40,40A40,40,0,0,0,181.748,346.127Zm0,77.314a37.314,37.314,0,1,1,37.314-37.315A37.314,37.314,0,0,1,181.748,423.441Z" transform="translate(-141.748 -346.127)" fill="#fff"/>
      </g>
    </g>
    <g id="Group_5996" data-name="Group 5996" transform="translate(150.085 355.812)">
      <g id="Group_5960" data-name="Group 5960" transform="translate(27.554 56.87)">
        <path id="Path_2245" data-name="Path 2245" d="M189.062,430.153s-5.6,5.6,1.93,12.161c0,0,7.045-5.7,1.93-11.774Z" transform="translate(-187.06 -430.153)" fill="#f6c95b"/>
        <path id="Path_2246" data-name="Path 2246" d="M190.735,434.144a4.659,4.659,0,0,1,3.943,2.24,6.9,6.9,0,0,0-1.756-5.845l-3.86-.387a7.577,7.577,0,0,0-1.955,5.779A4.639,4.639,0,0,1,190.735,434.144Z" transform="translate(-187.061 -430.153)" fill="#f6c95b" opacity="0.5" style="mix-blend-mode: multiply;isolation: isolate"/>
      </g>
      <g id="Group_5990" data-name="Group 5990" transform="translate(6.709 13.758)">
        <g id="Group_5962" data-name="Group 5962">
          <g id="Group_5961" data-name="Group 5961">
            <path id="Path_2247" data-name="Path 2247" d="M175.238,385.535s-7.578-12.8-12.991-9.157S167.164,386.13,175.238,385.535Z" transform="translate(-160.743 -375.724)" fill="#f6c95b"/>
            <path id="Path_2248" data-name="Path 2248" d="M172.79,384.833s-4.512-7.311-7.891-5.136S167.81,385.275,172.79,384.833Z" transform="translate(-161.409 -376.466)" fill="#2f267f"/>
          </g>
        </g>
        <g id="Group_5964" data-name="Group 5964" transform="translate(34.23)">
          <g id="Group_5963" data-name="Group 5963">
            <path id="Path_2249" data-name="Path 2249" d="M203.959,385.535s7.578-12.8,12.991-9.157S212.033,386.13,203.959,385.535Z" transform="translate(-203.959 -375.724)" fill="#f6c95b"/>
            <path id="Path_2250" data-name="Path 2250" d="M207.89,384.833s4.512-7.311,7.891-5.136S212.87,385.275,207.89,384.833Z" transform="translate(-204.776 -376.466)" fill="#2f267f"/>
          </g>
        </g>
        <g id="Group_5989" data-name="Group 5989" transform="translate(9.585 6.974)">
          <path id="Path_2251" data-name="Path 2251" d="M196.352,384.529H179.307c-3.624,0-6.373,8.869-6.459,11.6-.2,6.363,6.585,26.332,14.984,26.412C202.381,422.676,207.294,384.529,196.352,384.529Z" transform="translate(-172.845 -384.529)" fill="#f6c95b"/>
          <path id="Path_2252" data-name="Path 2252" d="M189.813,391.162s-2.831,12.74-6.562,13.9l7.053,12.862,6.716-12.476S191.744,401.972,189.813,391.162Z" transform="translate(-175.008 -385.908)" fill="#fff"/>
          <g id="Group_5988" data-name="Group 5988" transform="translate(0.472 7.671)">
            <g id="Group_5974" data-name="Group 5974">
              <g id="Group_5973" data-name="Group 5973">
                <g id="Group_5972" data-name="Group 5972">
                  <g id="Group_5967" data-name="Group 5967" transform="translate(0.69 10.933)">
                    <g id="Group_5966" data-name="Group 5966">
                      <g id="Group_5965" data-name="Group 5965">
                        <path id="Path_2253" data-name="Path 2253" d="M175.28,408.016a6.821,6.821,0,0,0-.969.09,47.81,47.81,0,0,0,6.035,13.656,5.86,5.86,0,0,0,1.221-1.663,9.4,9.4,0,0,0,1.391-4.406A7.678,7.678,0,0,0,175.28,408.016Z" transform="translate(-174.311 -408.016)" fill="#ffe031" opacity="0.4" style="mix-blend-mode: screen;isolation: isolate"/>
                        <path id="Path_2254" data-name="Path 2254" d="M177.543,410.2c-.076.315-.625.452-1.225.308s-1.027-.518-.951-.835.624-.453,1.227-.307S177.62,409.885,177.543,410.2Z" transform="translate(-174.529 -408.285)" fill="#fad0bf" style="mix-blend-mode: screen;isolation: isolate"/>
                      </g>
                    </g>
                  </g>
                  <g id="Group_5970" data-name="Group 5970" transform="translate(0 8.133)">
                    <g id="Group_5969" data-name="Group 5969">
                      <g id="Group_5968" data-name="Group 5968">
                        <path id="Path_2255" data-name="Path 2255" d="M179.2,407.534a5.2,5.2,0,0,1-2.878-3.053l-2.882.691a13.837,13.837,0,0,0,.89,1.092,7.994,7.994,0,0,1,1.609-.033c-.1.067-.611.472-.943.739,2.218,2.2,6.309,4.878,8.931-1.722C183.928,405.248,181.392,408.386,179.2,407.534Z" transform="translate(-173.44 -404.481)" fill="#2f267f"/>
                      </g>
                    </g>
                  </g>
                  <g id="Group_5971" data-name="Group 5971" transform="translate(5.192)">
                    <path id="Path_2256" data-name="Path 2256" d="M184.073,394.951c.151.623-.637,1.35-1.754,1.621s-2.153-.01-2.3-.633.635-1.35,1.754-1.621S183.921,394.327,184.073,394.951Z" transform="translate(-179.995 -394.214)" fill="#2f267f"/>
                  </g>
                </g>
              </g>
            </g>
            <g id="Group_5983" data-name="Group 5983" transform="translate(18.539)">
              <g id="Group_5982" data-name="Group 5982">
                <g id="Group_5977" data-name="Group 5977" transform="translate(1.152 10.933)">
                  <g id="Group_5976" data-name="Group 5976">
                    <g id="Group_5975" data-name="Group 5975">
                      <path id="Path_2257" data-name="Path 2257" d="M205.978,408.016a7.677,7.677,0,0,0-7.678,7.678,7.969,7.969,0,0,0,2.293,5.439,2.408,2.408,0,0,0,1.225.869q.473-.681.909-1.423l0-.009q.435-.74.832-1.53A39.3,39.3,0,0,0,207,408.117v0A7.209,7.209,0,0,0,205.978,408.016Z" transform="translate(-198.3 -408.016)" fill="#ffe031" opacity="0.4" style="mix-blend-mode: screen;isolation: isolate"/>
                      <path id="Path_2258" data-name="Path 2258" d="M205.408,410.2c.075.315.624.452,1.225.308s1.027-.518.95-.835-.624-.453-1.226-.307S205.33,409.885,205.408,410.2Z" transform="translate(-199.776 -408.285)" fill="#fad0bf" style="mix-blend-mode: screen;isolation: isolate"/>
                    </g>
                  </g>
                </g>
                <g id="Group_5980" data-name="Group 5980" transform="translate(0 8.133)">
                  <g id="Group_5979" data-name="Group 5979">
                    <g id="Group_5978" data-name="Group 5978">
                      <path id="Path_2259" data-name="Path 2259" d="M201.574,407.534a5.205,5.205,0,0,0,2.878-3.053l2.882.691a13.837,13.837,0,0,1-.89,1.092,8,8,0,0,0-1.609-.033c.1.067.61.472.943.739-2.218,2.2-6.309,4.878-8.931-1.722C196.846,405.248,199.381,408.386,201.574,407.534Z" transform="translate(-196.846 -404.481)" fill="#2f267f"/>
                    </g>
                  </g>
                </g>
                <g id="Group_5981" data-name="Group 5981" transform="translate(1.2)">
                  <path id="Path_2260" data-name="Path 2260" d="M198.379,394.951c-.151.623.636,1.35,1.754,1.621s2.153-.01,2.3-.633-.636-1.35-1.755-1.621S198.53,394.327,198.379,394.951Z" transform="translate(-198.36 -394.214)" fill="#2f267f"/>
                </g>
              </g>
            </g>
            <g id="Group_5987" data-name="Group 5987" transform="translate(9.78 21.131)">
              <g id="Group_5984" data-name="Group 5984" transform="translate(1.274)">
                <path id="Path_2261" data-name="Path 2261" d="M194.628,420.893c.071.02.055.325-.063.781a3.461,3.461,0,0,1-.955,1.469,3.794,3.794,0,0,1-1.613.84,5.083,5.083,0,0,1-.831.12l-.228-.027a3.062,3.062,0,0,1-.589-.109,4.451,4.451,0,0,1-1.6-.764,4.109,4.109,0,0,1-1.126-1.3c-.2-.421-.269-.721-.2-.751s.277.185.565.486a4.967,4.967,0,0,0,1.2.879,3.99,3.99,0,0,0,1.362.41,4.821,4.821,0,0,0,.63.025,4.7,4.7,0,0,0,.626-.012,3.169,3.169,0,0,0,1.309-.441,3.8,3.8,0,0,0,1.049-1.021C194.384,421.126,194.547,420.87,194.628,420.893Z" transform="translate(-187.396 -420.891)" fill="#2f267f"/>
              </g>
              <g id="Group_5985" data-name="Group 5985" transform="translate(0 4.631)">
                <path id="Path_2262" data-name="Path 2262" d="M195.58,426.74c.059.019.015.4-.257.919a3.972,3.972,0,0,1-1.511,1.5,6.215,6.215,0,0,1-2.026.707c-.291.032-.535.057-.7.073a1.183,1.183,0,0,1-.268.013l-.267-.025a4.827,4.827,0,0,1-.693-.1,7.511,7.511,0,0,1-1.992-.68,5.447,5.447,0,0,1-1.63-1.3c-.355-.448-.487-.807-.432-.84.076-.053.33.208.744.519a6.589,6.589,0,0,0,1.647.882,7.606,7.606,0,0,0,1.811.374,4.18,4.18,0,0,0,.6.022l.229,0a1.081,1.081,0,0,0,.229.011h.605a5.915,5.915,0,0,0,1.782-.382,4.146,4.146,0,0,0,1.508-1.027C195.3,427.023,195.492,426.7,195.58,426.74Z" transform="translate(-185.788 -426.737)" fill="#2f267f"/>
              </g>
              <g id="Group_5986" data-name="Group 5986" transform="translate(4.327 2.832)">
                <path id="Path_2263" data-name="Path 2263" d="M191.826,429.357c-.318,0-.576-2.452-.576-2.452s.258-2.438.576-2.438.575,2.438.575,2.438S192.143,429.357,191.826,429.357Z" transform="translate(-191.25 -424.467)" fill="#2f267f"/>
              </g>
            </g>
          </g>
        </g>
      </g>
      <g id="Group_5995" data-name="Group 5995">
        <g id="Group_5992" data-name="Group 5992">
          <path id="Path_2264" data-name="Path 2264" d="M173.119,380.788s-1.35-16.6-20.846-20.46c0,0,15.441-6.563,23.742,4.246s7.721,16.021,7.721,16.021a16.579,16.579,0,0,1-5.413,1.649A11.562,11.562,0,0,1,173.119,380.788Z" transform="translate(-152.273 -358.354)" fill="#f463e5"/>
          <path id="Path_2265" data-name="Path 2265" d="M174.22,368.229c-4.634-6.036-11.5-6.654-16.652-6.023,15.49,5.218,16.652,19.342,16.652,19.342a11.562,11.562,0,0,0,5.2,1.457,10.687,10.687,0,0,0,2.369-.452C181.365,380.229,179.8,375.5,174.22,368.229Z" transform="translate(-153.374 -359.114)" fill="#f463e5" style="mix-blend-mode: multiply;isolation: isolate"/>
          <g id="Group_5991" data-name="Group 5991" transform="translate(7.907 0.001)">
            <path id="Path_2266" data-name="Path 2266" d="M163.186,363.475c.067-.322.135-.627.2-.892.077-.36.194-.645.25-.85s.1-.321.1-.321.027-.119.1-.318.15-.492.276-.829a10.031,10.031,0,0,1,.99-1.9q-.55-.014-1.088,0a12,12,0,0,0-.877,1.488c-.166.36-.277.67-.368.883a3.5,3.5,0,0,0-.127.34s-.032.128-.086.353-.149.543-.2.934c-.036.192-.069.4-.1.619C162.576,363.138,162.881,363.305,163.186,363.475Z" transform="translate(-162.256 -358.355)" fill="#ffe031"/>
            <path id="Path_2267" data-name="Path 2267" d="M187.567,382.914c.376-.177.739-.368,1.089-.561-.06-.208-.128-.428-.2-.657-.388.162-.793.322-1.206.471a30.412,30.412,0,0,1-4.04,1.182s-.5.131-1.263.3a16.553,16.553,0,0,1-2.822.348c-.295,0-.589,0-.878-.017.061.283.108.531.147.748.235.032.473.062.712.083a15.36,15.36,0,0,0,3.022-.118c.813-.122,1.353-.231,1.353-.231A25.477,25.477,0,0,0,187.567,382.914Z" transform="translate(-165.58 -363.208)" fill="#ffe031"/>
            <path id="Path_2268" data-name="Path 2268" d="M179.727,374.184c.842-.356,1.411-.568,1.411-.568s.562-.244,1.425-.569c.511-.2,1.139-.409,1.809-.619q-.253-.408-.527-.831c-.6.146-1.154.3-1.623.446-.912.281-1.511.505-1.511.505s-.583.254-1.437.676a22.39,22.39,0,0,0-2.977,1.825c-.314.238-.615.487-.906.737.114.214.226.426.33.637.333-.238.678-.474,1.034-.7A24.366,24.366,0,0,1,179.727,374.184Z" transform="translate(-164.987 -361.108)" fill="#ffe031"/>
            <path id="Path_2269" data-name="Path 2269" d="M171.324,365.88c.238-.329.491-.557.642-.738l.248-.272.256-.269a8.528,8.528,0,0,1,.692-.691,11.123,11.123,0,0,1,2.434-1.7c.188-.1.381-.179.573-.262-.261-.184-.527-.352-.794-.517-.037.013-.074.023-.112.037a11.139,11.139,0,0,0-2.79,1.633,8.907,8.907,0,0,0-.806.707l-.3.277-.254.314a10.447,10.447,0,0,0-.641.846,14.4,14.4,0,0,0-1.232,2.15c.226.207.438.414.65.624A15.514,15.514,0,0,1,171.324,365.88Z" transform="translate(-163.709 -358.995)" fill="#ffe031"/>
          </g>
        </g>
        <g id="Group_5994" data-name="Group 5994" transform="translate(31.854)">
          <path id="Path_2270" data-name="Path 2270" d="M203.115,380.788s1.35-16.6,20.846-20.46c0,0-15.441-6.563-23.742,4.246S192.5,380.6,192.5,380.6a16.579,16.579,0,0,0,5.413,1.649A11.561,11.561,0,0,0,203.115,380.788Z" transform="translate(-192.489 -358.354)" fill="#f463e5"/>
          <path id="Path_2271" data-name="Path 2271" d="M203.916,368.229c4.634-6.036,11.5-6.654,16.652-6.023-15.49,5.218-16.652,19.342-16.652,19.342a11.562,11.562,0,0,1-5.2,1.457,10.688,10.688,0,0,1-2.369-.452C196.771,380.229,198.336,375.5,203.916,368.229Z" transform="translate(-193.29 -359.114)" fill="#f463e5" style="mix-blend-mode: multiply;isolation: isolate"/>
          <g id="Group_5993" data-name="Group 5993" transform="translate(0.489 0.001)">
            <path id="Path_2272" data-name="Path 2272" d="M220.562,363.475c-.067-.322-.135-.627-.2-.892-.077-.36-.194-.645-.25-.85l-.1-.321a3.1,3.1,0,0,0-.1-.318c-.068-.2-.15-.492-.276-.829a10.032,10.032,0,0,0-.99-1.9q.55-.014,1.088,0a12,12,0,0,1,.877,1.488c.166.36.278.67.368.883s.128.34.128.34.031.128.086.353.149.543.2.934c.036.192.069.4.1.619C221.172,363.138,220.867,363.305,220.562,363.475Z" transform="translate(-198.416 -358.355)" fill="#ffe031"/>
            <path id="Path_2273" data-name="Path 2273" d="M194.2,382.914c-.376-.177-.739-.368-1.089-.561.06-.208.128-.428.2-.657.389.162.793.322,1.206.471a30.411,30.411,0,0,0,4.04,1.182s.5.131,1.263.3a16.553,16.553,0,0,0,2.822.348c.295,0,.589,0,.878-.017-.061.283-.109.531-.147.748-.235.032-.473.062-.712.083a15.359,15.359,0,0,1-3.022-.118c-.813-.122-1.353-.231-1.353-.231A25.446,25.446,0,0,1,194.2,382.914Z" transform="translate(-193.106 -363.208)" fill="#ffe031"/>
            <path id="Path_2274" data-name="Path 2274" d="M202.411,374.184c-.842-.356-1.411-.568-1.411-.568s-.562-.244-1.425-.569c-.511-.2-1.139-.409-1.809-.619q.253-.408.527-.831c.6.146,1.154.3,1.623.446.912.281,1.511.505,1.511.505s.583.254,1.437.676a22.34,22.34,0,0,1,2.977,1.825c.314.238.615.487.906.737-.114.214-.226.426-.33.637-.333-.238-.678-.474-1.034-.7A24.371,24.371,0,0,0,202.411,374.184Z" transform="translate(-194.075 -361.108)" fill="#ffe031"/>
            <path id="Path_2275" data-name="Path 2275" d="M211.353,365.88c-.238-.329-.491-.557-.642-.738l-.248-.272-.256-.269a8.526,8.526,0,0,0-.692-.691,11.123,11.123,0,0,0-2.434-1.7c-.188-.1-.381-.179-.573-.262.261-.184.527-.352.794-.517.037.013.074.023.112.037a11.139,11.139,0,0,1,2.79,1.633,8.907,8.907,0,0,1,.806.707l.3.277.254.314a10.443,10.443,0,0,1,.641.846,14.4,14.4,0,0,1,1.232,2.15c-.226.207-.438.414-.65.624A15.511,15.511,0,0,0,211.353,365.88Z" transform="translate(-195.893 -358.995)" fill="#ffe031"/>
          </g>
        </g>
      </g>
    </g>
    <path id="Path_2276" data-name="Path 2276" d="M171.84,418.523c.019-.189.043-.429.036-.429h-2.945a2.577,2.577,0,0,1-.036-.332v-5.374c0-.161,0-.322.006-.484,0-.329.01-.669-.006-1.006a2,2,0,0,0-2.067-1.8c-1.713-.05-2.021.116-2.737.638a1.977,1.977,0,0,0-1.386-.527,1.918,1.918,0,0,0-1.906,2.04h1.041a.889.889,0,0,1,.889-1,.754.754,0,0,1,.835.7c.014.309.01.617,0,.944,0,.168,0,.335,0,.5v5.375H164.6V412.4c0-.161,0-.323,0-.484.006-.329.011-.668,0-1.006,0-.05-.008-.094-.014-.142.53-.87,2.078-.764,2.469-.635.261.088.774.314.8.812.014.307.009.617,0,.944,0,.167,0,.333,0,.5v5.384a3.067,3.067,0,0,0,.025.322h-2.344v.662h2.486a2.444,2.444,0,0,0,.666,1.095,1.835,1.835,0,0,0,1.25.459,2.091,2.091,0,0,0,.221-.011,1.808,1.808,0,0,0,1.421-.866,1.543,1.543,0,0,0,.238-.691C171.819,418.723,171.829,418.631,171.84,418.523Zm-1.779.741a.831.831,0,0,1-.677-.188,1.1,1.1,0,0,1-.239-.319h1.613A.786.786,0,0,1,170.061,419.263Z" transform="translate(-3.961 -13.092)" fill="#6148ec"/>
  </g>
</svg>
