<svg xmlns="http://www.w3.org/2000/svg" width="80.508" height="80" viewBox="0 0 80.508 80">
  <g id="Group_22354" data-name="Group 22354" transform="translate(-26.279 -195.038)">
    <g id="Group_5881" data-name="Group 5881" transform="translate(26.279 195.038)">
      <g id="Group_5880" data-name="Group 5880">
        <path id="Path_2154" data-name="Path 2154" d="M97.459,216.155a35.724,35.724,0,1,0,6.146,20A35.426,35.426,0,0,0,97.459,216.155Zm-43.36-11.7,1.02,2.456a31.983,31.983,0,0,0-9.86,6.551l-1.886-1.873A34.774,34.774,0,0,1,54.1,204.453ZM42.9,212.06l1.884,1.872a31.782,31.782,0,0,0-6.552,9.71l-2.469-1.02A34.523,34.523,0,0,1,42.9,212.06ZM35.51,223.238l2.469,1.02a31.461,31.461,0,0,0-2.316,11.559H32.98A34.043,34.043,0,0,1,35.51,223.238ZM32.98,236.484h2.682a31.5,31.5,0,0,0,2.28,11.469l-2.472,1.011A34.042,34.042,0,0,1,32.98,236.484Zm2.74,13.1,2.472-1.013a31.809,31.809,0,0,0,6.593,9.8L42.9,260.243A34.515,34.515,0,0,1,35.72,249.585Zm7.654,11.129,1.886-1.872a32.007,32.007,0,0,0,9.771,6.511L54,267.806A34.776,34.776,0,0,1,43.374,260.713Zm23.91,9.857a34.627,34.627,0,0,1-12.66-2.513l1.027-2.453a32.037,32.037,0,0,0,11.632,2.3Zm0-66.175a32,32,0,0,0-11.541,2.266l-1.019-2.455a34.644,34.644,0,0,1,12.561-2.476Zm34.976,31.422H99.576a31.484,31.484,0,0,0-2.281-11.468l2.485-1.019A34.152,34.152,0,0,1,102.26,235.818ZM96.347,216.9a34.25,34.25,0,0,1,3.178,5.813l-2.479,1.015a31.8,31.8,0,0,0-6.594-9.8l1.9-1.889A34.611,34.611,0,0,1,96.347,216.9Zm-4.476-5.323-1.893,1.882a32.007,32.007,0,0,0-9.772-6.512l1.024-2.446A34.647,34.647,0,0,1,91.872,211.579Zm-23.919-9.846a34.793,34.793,0,0,1,12.66,2.513L79.586,206.7a31.991,31.991,0,0,0-11.633-2.3Zm0,68.838v-2.664A32.053,32.053,0,0,0,79.5,265.64l1.019,2.456A34.627,34.627,0,0,1,67.953,270.571Zm13.184-2.721-1.02-2.457a32.011,32.011,0,0,0,9.862-6.552l1.884,1.872A34.785,34.785,0,0,1,81.137,267.85Zm11.2-7.607-1.884-1.872a31.808,31.808,0,0,0,6.552-9.712l2.469,1.021A34.512,34.512,0,0,1,92.337,260.243Zm7.39-11.18-2.469-1.019a31.5,31.5,0,0,0,2.317-11.56h2.681A34.03,34.03,0,0,1,99.727,249.063Z" transform="translate(-27.365 -196.151)" fill="#2f267f"/>
        <path id="Path_2155" data-name="Path 2155" d="M66.534,195.038a40,40,0,1,0,40.253,40A40.128,40.128,0,0,0,66.534,195.038Zm0,77.314a37.315,37.315,0,1,1,37.55-37.314A37.434,37.434,0,0,1,66.534,272.352Z" transform="translate(-26.279 -195.038)" fill="#2f267f"/>
      </g>
    </g>
    <g id="Group_5911" data-name="Group 5911" transform="translate(34.006 203.076)">
      <g id="Group_5884" data-name="Group 5884">
        <g id="Group_5883" data-name="Group 5883">
          <path id="Path_2156" data-name="Path 2156" d="M101.027,237.066c0,17.605-14.563,31.878-32.527,31.878s-32.526-14.273-32.526-31.878,14.563-31.88,32.526-31.88S101.027,219.458,101.027,237.066Z" transform="translate(-35.973 -205.186)" fill="#f463e5"/>
          <path id="Path_2157" data-name="Path 2157" d="M95.333,222.253a28.864,28.864,0,0,1,3.392,13.594c0,16.275-13.465,29.472-30.072,29.472s-30.072-13.2-30.072-29.472a28.9,28.9,0,0,1,4.339-15.258,31.337,31.337,0,0,0-6.948,19.681c0,17.605,14.563,31.878,32.526,31.878s32.527-14.273,32.527-31.878A31.291,31.291,0,0,0,95.333,222.253Z" transform="translate(-35.973 -208.389)" fill="#f463e5" style="mix-blend-mode: multiply;isolation: isolate"/>
          <g id="Group_5882" data-name="Group 5882" transform="translate(0.721 0.566)">
            <path id="Path_2158" data-name="Path 2158" d="M101.829,244.393s-15.724.257-15.724.57,15.724.569,15.724.569l7.9-.168c.489-.013.98-.025,1.464-.04,0-.036,0-.071,0-.107,0-.207-.012-.413-.016-.618l-1.45-.04Z" transform="translate(-46.866 -213.904)" fill="#f6c95b"/>
            <path id="Path_2159" data-name="Path 2159" d="M87.718,210.733c-1.383,2.336-2.767,4.669-2.767,4.669l-2.585,4.815a33.924,33.924,0,0,0-2.374,4.94,33.853,33.853,0,0,0,3.076-4.539c1.44-2.329,2.881-4.657,2.881-4.657l2.485-4.855c.477-1.052.944-2.1,1.314-2.973-.158-.063-.318-.124-.477-.185C88.806,208.761,88.259,209.745,87.718,210.733Z" transform="translate(-45.624 -206.326)" fill="#f6c95b"/>
            <path id="Path_2160" data-name="Path 2160" d="M87.919,218.03s-8.185,11.109-7.926,11.289,8.825-10.585,8.825-10.585,3.342-4.356,5.733-7.6c-.181-.111-.363-.219-.546-.325C91.376,213.856,87.919,218.03,87.919,218.03Z" transform="translate(-45.625 -206.92)" fill="#f6c95b"/>
            <path id="Path_2161" data-name="Path 2161" d="M80.925,272.812s-1.918-10.4-2.229-10.333,1.1,10.5,1.1,10.5.837,4.541,1.5,7.617c.2-.025.391-.045.583-.072C81.544,277.4,80.925,272.812,80.925,272.812Z" transform="translate(-45.354 -217.664)" fill="#f6c95b"/>
            <path id="Path_2162" data-name="Path 2162" d="M105.71,261.583c-2.144-.839-4.3-1.629-5.883-2.328l-2.65-1.114s-4.24-1.725-8.431-3.588c-2.093-.941-4.186-1.879-5.757-2.585a15.468,15.468,0,0,0-2.672-1.069,15.243,15.243,0,0,0,2.475,1.467c1.509.831,3.559,1.869,5.607,2.916,4.114,2.055,8.333,3.908,8.333,3.908l2.7,1.041c1.611.648,3.819,1.367,6.009,2.114.09.027.179.054.268.079.136-.232.276-.461.407-.7C105.982,261.678,105.845,261.632,105.71,261.583Z" transform="translate(-45.692 -215.255)" fill="#f6c95b"/>
            <path id="Path_2163" data-name="Path 2163" d="M101.542,232.74a23.455,23.455,0,0,0,4.485-.991c2.154-.775,4.305-1.594,4.305-1.594l1.4-.737c-.135-.314-.282-.621-.428-.93l-1.449.631s-2.057.936-4.114,1.875A23.945,23.945,0,0,0,101.542,232.74Z" transform="translate(-49.998 -210.597)" fill="#f6c95b"/>
            <path id="Path_2164" data-name="Path 2164" d="M91.132,280.962c-.069-.193-.169-.469-.289-.8-.242-.659-.567-1.533-.891-2.409a15.618,15.618,0,0,0-1.6-3.378,16.036,16.036,0,0,0,.835,3.632c.407,1.528.808,3.043.917,3.453.359-.125.713-.262,1.066-.4C91.155,281.028,91.148,281.006,91.132,280.962Z" transform="translate(-47.316 -220.138)" fill="#f6c95b"/>
            <path id="Path_2165" data-name="Path 2165" d="M45.984,258.866s-3.2.754-6.482,1.67c.116.257.231.514.353.767,3.253-.708,6.378-1.323,6.378-1.323s3.443-.81,6.858-1.773c1.692-.543,3.4-1.029,4.622-1.563a9.184,9.184,0,0,0,2.018-.923c-.065-.162-3.412.932-6.845,1.706C49.448,258.184,45.984,258.866,45.984,258.866Z" transform="translate(-37.41 -216.256)" fill="#f6c95b"/>
            <path id="Path_2166" data-name="Path 2166" d="M73.166,270.485s.109,5.445.271,9.259c.2.014.4.033.6.045.163-3.817.273-9.3.273-9.3s-.257-12.83-.573-12.83S73.166,270.485,73.166,270.485Z" transform="translate(-44.241 -216.661)" fill="#f6c95b"/>
            <path id="Path_2167" data-name="Path 2167" d="M38.7,254s7-2.161,6.915-2.464-7.221,1.367-7.221,1.367-.635.2-1.514.477c.072.329.149.656.231.982C38.031,254.154,38.7,254,38.7,254Z" transform="translate(-36.878 -215.381)" fill="#f6c95b"/>
            <path id="Path_2168" data-name="Path 2168" d="M68.435,208.4s1.647,6.215,1.954,6.141-.834-6.382-.834-6.382-.284-1.042-.638-2.261q-.45.084-.894.177C68.237,207.334,68.435,208.4,68.435,208.4Z" transform="translate(-43.197 -205.9)" fill="#f6c95b"/>
            <path id="Path_2169" data-name="Path 2169" d="M51.279,266.18s.7-.475,1.748-1.191c1.058-.694,2.409-1.723,3.768-2.726a29.776,29.776,0,0,0,4.946-4.609c-.124-.125-2.662,2.068-5.426,3.959-1.408.914-2.786,1.859-3.871,2.5l-1.782,1.1-5.046,3.327c.187.217.376.431.569.644C48.836,267.647,51.279,266.18,51.279,266.18Z" transform="translate(-38.651 -216.66)" fill="#f6c95b"/>
            <path id="Path_2170" data-name="Path 2170" d="M42.483,227.8c3.2,1.889,6.472,3.634,6.472,3.634l6.675,3.288c3.321,1.664,6.542,3.515,6.635,3.373a10.2,10.2,0,0,0-1.878-1.39c-1.15-.8-2.768-1.731-4.371-2.691-3.246-1.842-6.533-3.59-6.533-3.59s-3.322-1.628-6.6-3.324c-.663-.347-1.318-.7-1.945-1.05-.109.194-.211.39-.316.588C41.223,227.012,41.853,227.4,42.483,227.8Z" transform="translate(-37.637 -210.089)" fill="#f6c95b"/>
            <path id="Path_2171" data-name="Path 2171" d="M39.142,233.655c1.8.6,3.567,1.236,4.865,1.762l1.545.695.625.27,2.194.859c1.325.493,3.049,1.314,4.809,2.038a46.694,46.694,0,0,0,4.922,1.853,10.7,10.7,0,0,0,2.317.6c.051-.188-3.52-1.444-6.9-3.18-1.718-.818-3.4-1.711-4.729-2.271l-2.2-.958-2.19-.878c-1.356-.487-3.184-1.055-5.007-1.556-.44-.127-.879-.253-1.312-.379-.079.23-.163.456-.237.687C38.268,233.348,38.706,233.5,39.142,233.655Z" transform="translate(-37.073 -211.432)" fill="#f6c95b"/>
          </g>
        </g>
      </g>
      <g id="Group_5910" data-name="Group 5910" transform="translate(11.863 11.924)">
        <g id="Group_5885" data-name="Group 5885">
          <path id="Path_2172" data-name="Path 2172" d="M64.794,227.07a6.97,6.97,0,1,1-6.969-6.83A6.9,6.9,0,0,1,64.794,227.07Z" transform="translate(-50.856 -220.24)" fill="#f6c95b"/>
          <path id="Path_2173" data-name="Path 2173" d="M62.725,222.711a13.725,13.725,0,0,1-11.177,5.877c-.2,0-.395-.021-.593-.03a6.975,6.975,0,0,0,13.859-.974A6.743,6.743,0,0,0,62.725,222.711Z" transform="translate(-50.876 -220.754)" fill="#f6c95b" style="mix-blend-mode: multiply;isolation: isolate"/>
          <path id="Path_2174" data-name="Path 2174" d="M62.445,227.881a3.819,3.819,0,1,1-3.818-3.742A3.78,3.78,0,0,1,62.445,227.881Z" transform="translate(-51.658 -221.051)" fill="#f6c95b" style="mix-blend-mode: multiply;isolation: isolate"/>
        </g>
        <g id="Group_5886" data-name="Group 5886" transform="translate(27.388)">
          <path id="Path_2175" data-name="Path 2175" d="M99.155,227.07a6.971,6.971,0,1,1-6.97-6.83A6.9,6.9,0,0,1,99.155,227.07Z" transform="translate(-85.216 -220.24)" fill="#f6c95b"/>
          <path id="Path_2176" data-name="Path 2176" d="M98.515,228.591a13.736,13.736,0,0,1-9.643-3.968,13.58,13.58,0,0,1-1.577-1.9,6.741,6.741,0,0,0-2.078,4.862,6.976,6.976,0,0,0,13.859.977C98.889,228.572,98.7,228.591,98.515,228.591Z" transform="translate(-85.216 -220.757)" fill="#f6c95b" style="mix-blend-mode: multiply;isolation: isolate"/>
          <path id="Path_2177" data-name="Path 2177" d="M96.805,227.881a3.818,3.818,0,1,1-3.818-3.742A3.78,3.78,0,0,1,96.805,227.881Z" transform="translate(-86.018 -221.051)" fill="#f6c95b" style="mix-blend-mode: multiply;isolation: isolate"/>
        </g>
        <path id="Path_2178" data-name="Path 2178" d="M90.835,240.71a18.369,18.369,0,1,1-18.365-18A18.185,18.185,0,0,1,90.835,240.71Z" transform="translate(-51.515 -220.754)" fill="#f6c95b"/>
        <path id="Path_2179" data-name="Path 2179" d="M89.347,236.408a17.483,17.483,0,0,1,.438,3.868,18.151,18.151,0,0,1-35.575,4.975,18.384,18.384,0,0,0,36.647-1.693A17.627,17.627,0,0,0,89.347,236.408Z" transform="translate(-51.537 -223.602)" fill="#f6c95b" style="mix-blend-mode: multiply;isolation: isolate"/>
        <path id="Path_2180" data-name="Path 2180" d="M83.143,254.741c0,3.661-3.7,6.629-8.264,6.629s-8.264-2.968-8.264-6.629,3.7-6.627,8.264-6.627S83.143,251.082,83.143,254.741Z" transform="translate(-54.054 -226.036)" fill="#fff"/>
        <path id="Path_2181" data-name="Path 2181" d="M81.494,251.481c.473,4.108-1.97,8.611-7.344,8.611a7.079,7.079,0,0,1-7.294-6.213,5.392,5.392,0,0,0-.241,1.562c0,3.661,3.7,6.629,8.264,6.629s8.264-2.968,8.264-6.629A5.791,5.791,0,0,0,81.494,251.481Z" transform="translate(-54.054 -226.736)" fill="#f463e5" opacity="0.2" style="mix-blend-mode: multiply;isolation: isolate"/>
        <g id="Group_5889" data-name="Group 5889" transform="translate(16.44 25.648)">
          <g id="Group_5887" data-name="Group 5887" transform="translate(3.709)">
            <path id="Path_2182" data-name="Path 2182" d="M76.713,256.48c-.319,0-.579-1.934-.579-1.934s.26-1.925.579-1.925.579,1.925.579,1.925S77.032,256.48,76.713,256.48Z" transform="translate(-76.134 -252.621)" fill="#f6c95b"/>
          </g>
          <g id="Group_5888" data-name="Group 5888" transform="translate(0 0.866)">
            <path id="Path_2183" data-name="Path 2183" d="M79.945,253.716c.074.029,0,.36-.157.86a7.955,7.955,0,0,1-.416.8,4.419,4.419,0,0,1-.692.8,4.486,4.486,0,0,1-.888.636,4.812,4.812,0,0,1-.909.33,4.1,4.1,0,0,1-.937.132,1.1,1.1,0,0,1-.257-.017c-.161-.027-.394-.054-.663-.114a6.092,6.092,0,0,1-1.808-.81,5.489,5.489,0,0,1-1.373-1.343c-.293-.431-.409-.758-.35-.8.074-.048.315.188.683.5a7.387,7.387,0,0,0,1.451.941,5.89,5.89,0,0,0,1.6.47c.222.021.4.021.532.031a1.383,1.383,0,0,0,.2-.008,3.57,3.57,0,0,0,.721-.024,4.057,4.057,0,0,0,.727-.162,3.936,3.936,0,0,0,.768-.4,4.393,4.393,0,0,0,.694-.566c.2-.215.369-.433.529-.616C79.658,253.958,79.87,253.688,79.945,253.716Z" transform="translate(-71.48 -253.714)" fill="#f6c95b"/>
          </g>
        </g>
        <path id="Path_2184" data-name="Path 2184" d="M78.815,250.377a2.776,2.776,0,0,1-2.72,2.444,2.918,2.918,0,0,1-2.849-2.444c0-1.066,1.441-1.287,2.978-1.287S78.815,249.311,78.815,250.377Z" transform="translate(-55.399 -226.239)" fill="#2f267f"/>
        <path id="Path_2185" data-name="Path 2185" d="M75.535,251.7a8.284,8.284,0,0,1-2.092-.265,3.07,3.07,0,0,0,2.692,1.792,2.814,2.814,0,0,0,2.688-2.2A7.809,7.809,0,0,1,75.535,251.7Z" transform="translate(-55.439 -226.64)" fill="#1d255b" opacity="0.4" style="mix-blend-mode: multiply;isolation: isolate"/>
        <g id="Group_5899" data-name="Group 5899" transform="translate(24.922 10.405)">
          <path id="Path_2186" data-name="Path 2186" d="M94.081,245.921a6.65,6.65,0,0,0-2.429,12.861,17.815,17.815,0,0,0,5.878-11.9A6.693,6.693,0,0,0,94.081,245.921Z" transform="translate(-83.189 -235.985)" fill="#f6c95b" opacity="0.5" style="mix-blend-mode: screen;isolation: isolate"/>
          <g id="Group_5898" data-name="Group 5898">
            <g id="Group_5897" data-name="Group 5897">
              <g id="Group_5892" data-name="Group 5892" transform="translate(7.621 12.203)">
                <g id="Group_5891" data-name="Group 5891">
                  <g id="Group_5890" data-name="Group 5890">
                    <path id="Path_2187" data-name="Path 2187" d="M91.692,249.675c.076.315.628.452,1.232.308s1.033-.519.957-.835-.629-.453-1.234-.307S91.614,249.36,91.692,249.675Z" transform="translate(-91.682 -248.783)" fill="#fad0bf" style="mix-blend-mode: screen;isolation: isolate"/>
                  </g>
                </g>
              </g>
              <g id="Group_5895" data-name="Group 5895" transform="translate(0 8.133)">
                <g id="Group_5894" data-name="Group 5894">
                  <g id="Group_5893" data-name="Group 5893">
                    <path id="Path_2188" data-name="Path 2188" d="M86.881,246.7a5.213,5.213,0,0,0,2.9-3.052l2.9.691a13.945,13.945,0,0,1-.9,1.091,8.2,8.2,0,0,0-1.62-.034c.1.067.614.472.949.74-2.232,2.2-6.349,4.878-8.988-1.723C82.122,244.41,84.674,247.548,86.881,246.7Z" transform="translate(-82.122 -243.645)" fill="#2f267f"/>
                  </g>
                </g>
              </g>
              <g id="Group_5896" data-name="Group 5896" transform="translate(1.208)">
                <path id="Path_2189" data-name="Path 2189" d="M83.656,234.114c-.152.622.639,1.349,1.766,1.621s2.166-.01,2.319-.634-.641-1.349-1.766-1.621S83.808,233.49,83.656,234.114Z" transform="translate(-83.637 -233.377)" fill="#2f267f"/>
              </g>
            </g>
          </g>
        </g>
        <g id="Group_5909" data-name="Group 5909" transform="translate(2.59 10.405)">
          <path id="Path_2190" data-name="Path 2190" d="M57.553,245.921a6.65,6.65,0,0,1,2.43,12.861,17.811,17.811,0,0,1-5.878-11.9A6.69,6.69,0,0,1,57.553,245.921Z" transform="translate(-54.105 -235.985)" fill="#f6c95b" opacity="0.5" style="mix-blend-mode: screen;isolation: isolate"/>
          <g id="Group_5908" data-name="Group 5908" transform="translate(3.787)">
            <g id="Group_5907" data-name="Group 5907">
              <g id="Group_5902" data-name="Group 5902" transform="translate(0.727 12.203)">
                <g id="Group_5901" data-name="Group 5901">
                  <g id="Group_5900" data-name="Group 5900">
                    <path id="Path_2191" data-name="Path 2191" d="M61.965,249.675c-.076.315-.628.452-1.232.308s-1.034-.519-.957-.835.628-.453,1.234-.307S62.044,249.36,61.965,249.675Z" transform="translate(-59.768 -248.783)" fill="#fad0bf" style="mix-blend-mode: screen;isolation: isolate"/>
                  </g>
                </g>
              </g>
              <g id="Group_5905" data-name="Group 5905" transform="translate(0 8.133)">
                <g id="Group_5904" data-name="Group 5904">
                  <g id="Group_5903" data-name="Group 5903">
                    <path id="Path_2192" data-name="Path 2192" d="M64.652,246.7a5.213,5.213,0,0,1-2.9-3.052l-2.9.691a14.032,14.032,0,0,0,.9,1.091,8.21,8.21,0,0,1,1.621-.034c-.1.067-.615.472-.949.74,2.231,2.2,6.349,4.878,8.987-1.723C69.41,244.41,66.859,247.548,64.652,246.7Z" transform="translate(-58.856 -243.645)" fill="#2f267f"/>
                  </g>
                </g>
              </g>
              <g id="Group_5906" data-name="Group 5906" transform="translate(5.225)">
                <path id="Path_2193" data-name="Path 2193" d="M69.514,234.114c.151.622-.64,1.349-1.766,1.621s-2.167-.01-2.319-.634.64-1.349,1.766-1.621S69.361,233.49,69.514,234.114Z" transform="translate(-65.41 -233.377)" fill="#2f267f"/>
              </g>
            </g>
          </g>
        </g>
      </g>
    </g>
    <path id="Path_2194" data-name="Path 2194" d="M79.774,216.9a.977.977,0,0,1-.683,1.031,1.121,1.121,0,0,1-1.221-.352,3.311,3.311,0,0,1-.076-2.177l.02-.114a12.3,12.3,0,0,1,.6-2,9.242,9.242,0,0,0,.73-3.023,2.746,2.746,0,0,0-5.493,0,2.7,2.7,0,0,0,.171.943c-.061-.006-.12-.016-.182-.018a2.5,2.5,0,0,0-.326.006c-.081.007-.163.012-.245.022a2.937,2.937,0,0,0-.481.1A3.03,3.03,0,1,0,75.9,212.4a3.1,3.1,0,0,0-.99-.846,1.966,1.966,0,1,1,3.459-1.287,8.69,8.69,0,0,1-.685,2.764,13.124,13.124,0,0,0-.638,2.129l-.02.112a3.809,3.809,0,0,0,.206,2.755,1.849,1.849,0,0,0,1.5.729,1.94,1.94,0,0,0,.584-.089,1.746,1.746,0,0,0,1.223-1.765Zm-6.3-.539a2.153,2.153,0,1,1,2.167-2.153A2.16,2.16,0,0,1,73.474,216.359Z" transform="translate(-8.96 -2.599)" fill="#6148ec"/>
  </g>
</svg>
