<svg xmlns="http://www.w3.org/2000/svg" width="80.521" height="80" viewBox="0 0 80.521 80">
  <g id="Group_22367" data-name="Group 22367" transform="translate(-257.077 -195.038)">
    <g id="Group_5999" data-name="Group 5999" transform="translate(257.077 195.038)">
      <g id="Group_5998" data-name="Group 5998">
        <path id="Path_2277" data-name="Path 2277" d="M328.27,216.155a35.723,35.723,0,1,0,6.147,20A35.421,35.421,0,0,0,328.27,216.155Zm-43.368-11.7,1.02,2.456a32.007,32.007,0,0,0-9.862,6.551l-1.885-1.873A34.78,34.78,0,0,1,284.9,204.453Zm-11.2,7.606,1.885,1.872a31.771,31.771,0,0,0-6.554,9.71l-2.47-1.02A34.509,34.509,0,0,1,273.7,212.06Zm-7.391,11.178,2.469,1.02a31.456,31.456,0,0,0-2.317,11.559H263.78A34.037,34.037,0,0,1,266.309,223.238Zm-2.53,13.246h2.682a31.474,31.474,0,0,0,2.282,11.469l-2.472,1.011A34.02,34.02,0,0,1,263.78,236.484Zm2.74,13.1,2.471-1.013a31.812,31.812,0,0,0,6.595,9.8l-1.885,1.872A34.512,34.512,0,0,1,266.52,249.585Zm7.654,11.129,1.886-1.872a32.014,32.014,0,0,0,9.773,6.511l-1.027,2.454A34.8,34.8,0,0,1,274.174,260.713Zm23.915,9.857a34.634,34.634,0,0,1-12.662-2.513l1.027-2.453a32.05,32.05,0,0,0,11.635,2.3Zm0-66.175a32.008,32.008,0,0,0-11.543,2.266l-1.021-2.455a34.656,34.656,0,0,1,12.564-2.476Zm34.981,31.422h-2.684a31.48,31.48,0,0,0-2.281-11.468l2.485-1.019A34.147,34.147,0,0,1,333.07,235.818ZM327.158,216.9a34.35,34.35,0,0,1,3.177,5.813l-2.479,1.015a31.8,31.8,0,0,0-6.594-9.8l1.9-1.889A34.634,34.634,0,0,1,327.158,216.9Zm-4.478-5.323-1.893,1.882a32.023,32.023,0,0,0-9.773-6.512l1.024-2.446A34.644,34.644,0,0,1,322.68,211.579Zm-23.922-9.846a34.8,34.8,0,0,1,12.662,2.513l-1.026,2.452a32.008,32.008,0,0,0-11.636-2.3Zm0,68.838v-2.664A32.062,32.062,0,0,0,310.3,265.64l1.02,2.456A34.642,34.642,0,0,1,298.758,270.571Zm13.186-2.721-1.02-2.457a32.051,32.051,0,0,0,9.863-6.552l1.885,1.872A34.8,34.8,0,0,1,311.945,267.85Zm11.2-7.607-1.885-1.872a31.823,31.823,0,0,0,6.553-9.712l2.47,1.021A34.54,34.54,0,0,1,323.146,260.243Zm7.391-11.18-2.469-1.019a31.476,31.476,0,0,0,2.317-11.559h2.683A34.088,34.088,0,0,1,330.538,249.063Z" transform="translate(-258.162 -196.151)" fill="#fff"/>
        <path id="Path_2278" data-name="Path 2278" d="M297.339,195.038a40,40,0,1,0,40.26,40A40.131,40.131,0,0,0,297.339,195.038Zm0,77.314a37.315,37.315,0,1,1,37.556-37.314A37.435,37.435,0,0,1,297.339,272.352Z" transform="translate(-257.077 -195.038)" fill="#fff"/>
      </g>
    </g>
    <g id="Group_6019" data-name="Group 6019" transform="translate(263.792 213.851)">
      <g id="Group_6004" data-name="Group 6004" transform="translate(25.445 0.772)">
        <path id="Path_2279" data-name="Path 2279" d="M306.814,263.83V219.765h-2.589V263.83a8.442,8.442,0,0,0-6.806,7.053c-.091.559,4.213,1.395,8.437,1.384,3.957-.009,7.853-.829,7.768-1.35A8.441,8.441,0,0,0,306.814,263.83Z" transform="translate(-297.417 -219.765)" fill="#2f267f"/>
        <path id="Path_2280" data-name="Path 2280" d="M313.813,270.208c-.042-.173-.092-.343-.143-.513-.018-.059-.035-.116-.053-.171-.054-.161-.112-.319-.174-.475-.025-.062-.049-.124-.075-.184-.064-.151-.131-.3-.2-.445-.03-.063-.063-.124-.094-.185-.075-.142-.15-.283-.231-.42-.034-.059-.071-.114-.107-.171-.086-.137-.171-.275-.264-.406-.028-.041-.059-.078-.089-.117a8.389,8.389,0,0,0-.677-.819c-.024-.026-.046-.055-.07-.08-.088-.09-.181-.175-.272-.261s-.152-.149-.232-.219-.177-.146-.266-.219-.179-.146-.273-.215-.178-.127-.269-.189-.2-.137-.306-.2-.18-.108-.272-.162c-.112-.063-.224-.122-.338-.181-.09-.046-.18-.089-.272-.131-.123-.057-.249-.109-.376-.158-.088-.035-.174-.071-.263-.1-.143-.051-.289-.1-.436-.139-.076-.021-.151-.048-.227-.068-.225-.059-.453-.109-.685-.148V219.765h-2.589V263.83c-.259.044-.513.1-.763.172-.071.018-.141.041-.212.063-.188.056-.372.12-.556.191-.063.024-.128.048-.19.073a8.138,8.138,0,0,0-1.391.745c-.027.018-.053.038-.081.055-.2.139-.394.284-.581.44-.024.019-.047.037-.069.057a8.586,8.586,0,0,0-1.64,1.857.137.137,0,0,0-.016.027,6.654,6.654,0,0,1,4.511-1.61,6.781,6.781,0,0,1,6.827,5.717,32.308,32.308,0,0,0,3.56-.7c-.031-.195-.071-.387-.115-.575C313.832,270.3,313.824,270.252,313.813,270.208Z" transform="translate(-297.75 -219.765)" fill="#1d255b" opacity="0.4" style="mix-blend-mode: multiply;isolation: isolate"/>
        <g id="Group_6003" data-name="Group 6003" transform="translate(1.371 46.588)">
          <g id="Group_6002" data-name="Group 6002">
            <g id="Group_6000" data-name="Group 6000" transform="translate(0 1.52)">
              <path id="Path_2281" data-name="Path 2281" d="M300.737,280.6c.222.228.069.776-.345,1.225s-.93.627-1.152.4-.069-.775.343-1.225S300.515,280.374,300.737,280.6Z" transform="translate(-299.137 -280.502)" fill="#6148ec"/>
            </g>
            <g id="Group_6001" data-name="Group 6001" transform="translate(2.335)">
              <path id="Path_2282" data-name="Path 2282" d="M303.311,278.676c.144.178,0,.565-.329.859s-.713.387-.859.205,0-.566.328-.86S303.165,278.495,303.311,278.676Z" transform="translate(-302.066 -278.583)" fill="#6148ec"/>
            </g>
          </g>
        </g>
      </g>
      <g id="Group_6017" data-name="Group 6017" transform="translate(0 2.623)">
        <g id="Group_6010" data-name="Group 6010">
          <g id="Group_6008" data-name="Group 6008" transform="translate(0 23.371)">
            <g id="Group_6006" data-name="Group 6006">
              <path id="Path_2283" data-name="Path 2283" d="M278.193,264.218a12.652,12.652,0,0,0,12.694-12.611H265.5A12.652,12.652,0,0,0,278.193,264.218Z" transform="translate(-265.5 -251.607)" fill="#f6c95b"/>
              <path id="Path_2284" data-name="Path 2284" d="M288.983,251.607a12.34,12.34,0,0,1-3.3,5.94,12.449,12.449,0,0,1-17.524,0,12.294,12.294,0,0,1-2.212-3,12.7,12.7,0,0,0,25.027-2.936Z" transform="translate(-265.591 -251.607)" fill="#f6c95b" style="mix-blend-mode: multiply;isolation: isolate"/>
              <g id="Group_6005" data-name="Group 6005" transform="translate(3.654 3.686)" style="mix-blend-mode: screen;isolation: isolate">
                <path id="Path_2285" data-name="Path 2285" d="M273.726,258.058c.1-.383.776-.549,1.517-.364s1.263.643,1.164,1.03-.775.547-1.516.367S273.629,258.442,273.726,258.058Z" transform="translate(-270.82 -256.543)" fill="#f6c95b"/>
                <path id="Path_2286" data-name="Path 2286" d="M270.1,256.522c.1-.269.6-.343,1.119-.16s.867.55.771.823-.6.344-1.119.162S270,256.792,270.1,256.522Z" transform="translate(-270.083 -256.261)" fill="#f6c95b"/>
              </g>
            </g>
            <g id="Group_6007" data-name="Group 6007">
              <path id="Path_2287" data-name="Path 2287" d="M265.5,251.642c2.8,2.615,7.613,4.341,13.079,4.341,4.974,0,9.4-1.431,12.269-3.657.013-.239.037-.476.037-.719H265.5C265.5,251.619,265.5,251.631,265.5,251.642Z" transform="translate(-265.5 -251.607)" fill="#2f267f"/>
              <path id="Path_2288" data-name="Path 2288" d="M289.637,254.045H268.853a23.306,23.306,0,0,0,20.784,0Z" transform="translate(-266.18 -252.114)" fill="#1d255b" opacity="0.4" style="mix-blend-mode: multiply;isolation: isolate"/>
            </g>
          </g>
          <g id="Group_6009" data-name="Group 6009" transform="translate(0.38)">
            <path id="Path_2289" data-name="Path 2289" d="M267.355,247.374l-1.378-.738,12.5-24.535,12.131,24.545-1.387.719-10.764-21.781Z" transform="translate(-265.977 -222.101)" fill="#f6c95b"/>
          </g>
        </g>
        <g id="Group_6016" data-name="Group 6016" transform="translate(41.705)">
          <g id="Group_6014" data-name="Group 6014" transform="translate(0 23.371)">
            <g id="Group_6012" data-name="Group 6012">
              <path id="Path_2290" data-name="Path 2290" d="M330.5,264.218A12.653,12.653,0,0,0,343.2,251.607H317.812A12.652,12.652,0,0,0,330.5,264.218Z" transform="translate(-317.812 -251.607)" fill="#f6c95b"/>
              <path id="Path_2291" data-name="Path 2291" d="M341.3,251.607a12.333,12.333,0,0,1-3.3,5.94,12.45,12.45,0,0,1-17.525,0,12.29,12.29,0,0,1-2.21-3,12.7,12.7,0,0,0,25.026-2.936Z" transform="translate(-317.904 -251.607)" fill="#f6c95b" style="mix-blend-mode: multiply;isolation: isolate"/>
              <g id="Group_6011" data-name="Group 6011" transform="translate(3.655 3.686)" style="mix-blend-mode: screen;isolation: isolate">
                <path id="Path_2292" data-name="Path 2292" d="M326.038,258.058c.1-.383.777-.549,1.516-.364s1.263.643,1.164,1.03-.774.547-1.515.367S325.942,258.442,326.038,258.058Z" transform="translate(-323.132 -256.543)" fill="#f6c95b"/>
                <path id="Path_2293" data-name="Path 2293" d="M322.413,256.522c.095-.269.6-.343,1.118-.16s.867.55.772.823-.6.344-1.118.162S322.316,256.792,322.413,256.522Z" transform="translate(-322.396 -256.261)" fill="#f6c95b"/>
              </g>
            </g>
            <g id="Group_6013" data-name="Group 6013">
              <path id="Path_2294" data-name="Path 2294" d="M317.814,251.642c2.8,2.615,7.612,4.341,13.08,4.341,4.973,0,9.4-1.431,12.268-3.657.013-.239.037-.476.037-.719H317.812C317.812,251.619,317.814,251.631,317.814,251.642Z" transform="translate(-317.812 -251.607)" fill="#2f267f"/>
              <path id="Path_2295" data-name="Path 2295" d="M341.949,254.045H321.166a23.3,23.3,0,0,0,20.783,0Z" transform="translate(-318.492 -252.114)" fill="#1d255b" opacity="0.4" style="mix-blend-mode: multiply;isolation: isolate"/>
            </g>
          </g>
          <g id="Group_6015" data-name="Group 6015" transform="translate(0.38)">
            <path id="Path_2296" data-name="Path 2296" d="M319.666,247.374l-1.378-.738,12.5-24.535,12.131,24.545-1.387.719-10.764-21.781Z" transform="translate(-318.288 -222.101)" fill="#f6c95b"/>
          </g>
        </g>
      </g>
      <g id="Group_6018" data-name="Group 6018" transform="translate(5.312)">
        <rect id="Rectangle_366" data-name="Rectangle 366" width="56.471" height="2.574" fill="#f6c95b"/>
        <rect id="Rectangle_367" data-name="Rectangle 367" width="56.471" height="1.415" transform="translate(0 1.158)" fill="#f6c95b" style="mix-blend-mode: multiply;isolation: isolate"/>
      </g>
    </g>
    <path id="Path_2297" data-name="Path 2297" d="M300.508,214.34H311.78v.934H300.508Zm7.885-1.867a3.011,3.011,0,0,0,.854-2.1,2.763,2.763,0,0,0-1.89-2.74,3,3,0,0,0-3.364,4.838h-3.486v.935h5.124v-.947a2.177,2.177,0,1,1,1.2-.02v.967h4.952v-.935Z" transform="translate(-8.806 -2.579)" fill="#6148ec"/>
  </g>
</svg>
