<svg xmlns="http://www.w3.org/2000/svg" xmlns:xlink="http://www.w3.org/1999/xlink" width="160" height="140" viewBox="0 0 160 140">
  <defs>
    <clipPath id="clip-path">
      <rect id="Rectangle_9691" data-name="Rectangle 9691" width="160" height="140" transform="translate(172 463)" fill="#fff"/>
    </clipPath>
  </defs>
  <g id="Mask_Group_49" data-name="Mask Group 49" transform="translate(-172 -463)" clip-path="url(#clip-path)">
    <g id="Group_32062" data-name="Group 32062" transform="translate(24.303 -14.703)">
      <g id="c4519a4b9253efe51da2e2e301a69125" transform="translate(178.697 494.704)">
        <path id="Path_112859" data-name="Path 112859" d="M133.214,42.935H114.245V23.813c0-7.6-5.873-13.813-13.1-13.813H61.906C54.673,10,48.8,16.189,48.8,23.813v78.965c0,7.6,5.873,13.813,13.1,13.813H101.15a13.1,13.1,0,0,0,11.877-7.984h20.2a13.692,13.692,0,0,0,13.716-13.639V56.574A13.7,13.7,0,0,0,133.214,42.935ZM108.992,102.8c0,4.72-3.524,8.549-7.842,8.549H61.906c-4.318,0-7.842-3.839-7.842-8.549V93.24h54.928Zm0-14.836H54.064V29.415h54.928Zm0-63.8H54.064v-.348c0-4.721,3.524-8.549,7.842-8.549h39.254c4.318,0,7.842,3.839,7.842,8.549v.359h-.011ZM141.676,94.98a8.435,8.435,0,0,1-8.462,8.386h-18.98c.011-.185.011-.37.011-.566V48.188h18.969a8.428,8.428,0,0,1,8.462,8.386Z" transform="translate(-48.8 -10)" fill="#343a40" stroke="#f4f4f4" stroke-width="2.2"/>
        <path id="Path_112860" data-name="Path 112860" d="M387.4,823.757a3.938,3.938,0,1,1,0,.13Z" transform="translate(-350.571 -731.806)" fill="#343a40" stroke="#f4f4f4" stroke-width="2.2"/>
      </g>
      <path id="Path_113303" data-name="Path 113303" d="M39.124,605.649c-.094.548-.185,1.1-.284,1.645a19.909,19.909,0,0,1-2.823,6.95,39.159,39.159,0,0,1-7.775,8.808,61.77,61.77,0,0,1-7.766,5.722.879.879,0,0,1-1.061,0,58.211,58.211,0,0,1-10.92-8.707c-.782-.8-.678-.516-1.416-1.362-.3-.342-.286-.653-.008-.887s.584-.185.874.166a30.062,30.062,0,0,0,4.45,4.2,57.544,57.544,0,0,0,7.366,5.444.439.439,0,0,0,.384-.005A50.673,50.673,0,0,0,33.486,615.9a21.889,21.889,0,0,0,3.95-7.577,11.437,11.437,0,0,0-.015-7.133,9.541,9.541,0,0,0-7.154-6.38,9.582,9.582,0,0,0-9.316,2.759c-.16.158-.3.333-.454.5-.405.436-.675.419-1.1.009a19.1,19.1,0,0,0-1.908-1.727,9.468,9.468,0,0,0-5.935-1.8,9.9,9.9,0,0,0-9.481,8.1,12.749,12.749,0,0,0,.448,5.912A16.515,16.515,0,0,0,4.8,613.733c.138.208.279.414.409.627a.584.584,0,0,1-.1.859.577.577,0,0,1-.833-.231c-.3-.442-.6-.887-.884-1.344A17.183,17.183,0,0,1,1.043,607.3a11.393,11.393,0,0,1,2.224-9.833,10.638,10.638,0,0,1,7-3.944,10.848,10.848,0,0,1,8.68,2.484,4.655,4.655,0,0,1,.494.457c.15.165.274.355.42.547.19-.169.285-.245.37-.331a11.027,11.027,0,0,1,14.08-1.34,10.87,10.87,0,0,1,4.629,7.073c.071.353.126.709.188,1.064Z" transform="translate(191.045 -66.696)" fill="#fd7e14" stroke="#fd7e14" stroke-width="1.2"/>
    </g>
  </g>
</svg>
