<svg xmlns="http://www.w3.org/2000/svg" width="80" height="80" viewBox="0 0 80 80">
  <g id="Group_22372" data-name="Group 22372" transform="translate(-372.782 -346.127)">
    <g id="Group_6035" data-name="Group 6035" transform="translate(372.782 346.127)">
      <g id="Group_6034" data-name="Group 6034">
        <path id="Path_2315" data-name="Path 2315" d="M443.547,367.245a35.766,35.766,0,1,0,6.108,19.994A35.75,35.75,0,0,0,443.547,367.245Zm-43.086-11.7L401.475,358a31.806,31.806,0,0,0-9.8,6.551l-1.874-1.873A34.548,34.548,0,0,1,400.461,355.542Zm-11.129,7.607,1.873,1.873a31.792,31.792,0,0,0-6.511,9.71l-2.454-1.021A34.547,34.547,0,0,1,389.332,363.149Zm-7.344,11.178,2.454,1.02a31.6,31.6,0,0,0-2.3,11.56h-2.665A34.239,34.239,0,0,1,381.988,374.328Zm-2.513,13.246h2.665a31.636,31.636,0,0,0,2.266,11.468l-2.456,1.012A34.209,34.209,0,0,1,379.475,387.573Zm2.722,13.1,2.456-1.013a31.812,31.812,0,0,0,6.551,9.8l-1.873,1.872A34.523,34.523,0,0,1,382.2,400.674Zm7.6,11.129,1.874-1.874a31.786,31.786,0,0,0,9.711,6.511l-1.021,2.454A34.571,34.571,0,0,1,389.8,411.8Zm23.76,9.857a34.242,34.242,0,0,1-12.58-2.514L402,416.693a31.64,31.64,0,0,0,11.559,2.3Zm0-66.175a31.663,31.663,0,0,0-11.468,2.265l-1.014-2.456a34.288,34.288,0,0,1,12.482-2.476Zm34.755,31.423h-2.667a31.631,31.631,0,0,0-2.266-11.469l2.469-1.02A34.35,34.35,0,0,1,448.316,386.907Zm-5.873-18.917A34.38,34.38,0,0,1,445.6,373.8l-2.463,1.015a31.8,31.8,0,0,0-6.551-9.8l1.887-1.89A34.665,34.665,0,0,1,442.443,367.991Zm-4.448-5.323-1.882,1.882a31.786,31.786,0,0,0-9.71-6.511l1.017-2.446A34.435,34.435,0,0,1,437.995,362.667Zm-23.768-9.845a34.383,34.383,0,0,1,12.58,2.512l-1.019,2.451a31.641,31.641,0,0,0-11.561-2.3Zm0,68.838V419a31.7,31.7,0,0,0,11.469-2.267l1.013,2.457A34.239,34.239,0,0,1,414.227,421.66Zm13.1-2.722-1.013-2.456a31.808,31.808,0,0,0,9.8-6.553l1.874,1.874A34.553,34.553,0,0,1,427.328,418.938Zm11.129-7.606-1.872-1.872a31.844,31.844,0,0,0,6.511-9.712l2.454,1.021A34.525,34.525,0,0,1,438.457,411.332Zm7.344-11.18-2.453-1.019a31.657,31.657,0,0,0,2.3-11.56h2.666A34.218,34.218,0,0,1,445.8,400.152Z" transform="translate(-373.895 -347.24)" fill="#f463e5"/>
        <path id="Path_2316" data-name="Path 2316" d="M412.782,346.127a40,40,0,1,0,40,40A40,40,0,0,0,412.782,346.127Zm0,77.314A37.314,37.314,0,1,1,450.1,386.127,37.314,37.314,0,0,1,412.782,423.441Z" transform="translate(-372.782 -346.127)" fill="#f463e5"/>
      </g>
    </g>
    <g id="Group_6085" data-name="Group 6085" transform="translate(385.621 358.793)">
      <g id="Group_6062" data-name="Group 6062">
        <g id="Group_6037" data-name="Group 6037" transform="translate(2.205 3.466)">
          <path id="Path_2317" data-name="Path 2317" d="M397.853,375.03l-6.078-2.31s5.5-6.887,13.77-6.176C405.545,366.544,406.136,370.761,397.853,375.03Z" transform="translate(-391.775 -366.493)" fill="#6148ec"/>
          <path id="Path_2318" data-name="Path 2318" d="M406.346,366.545a14.068,14.068,0,0,0-4.216.28c-.207,3.4-2.369,6.656-6.5,7.056l3.023,1.15C406.938,370.762,406.346,366.545,406.346,366.545Z" transform="translate(-392.577 -366.493)" fill="#1d255b" opacity="0.2" style="mix-blend-mode: multiply;isolation: isolate"/>
          <g id="Group_6036" data-name="Group 6036" transform="translate(0 1.56)">
            <path id="Path_2319" data-name="Path 2319" d="M401.659,368.51a8.272,8.272,0,0,0-2.166.063,12.693,12.693,0,0,0-2.108.525c-.558.2-.924.351-.924.351s-.359.169-.879.449c-.351.2-.776.453-1.206.745a17.644,17.644,0,0,0-2.6,2.486l.07.026a14.08,14.08,0,0,1,2.124-1.795,15.735,15.735,0,0,1,1.821-1.068c.516-.252.868-.4.868-.4s.348-.158.881-.374a13.308,13.308,0,0,1,2.016-.607,9.575,9.575,0,0,1,2.093-.214,7.092,7.092,0,0,0,.97.026A2.9,2.9,0,0,0,401.659,368.51Z" transform="translate(-391.775 -368.462)" fill="#2f267f"/>
            <path id="Path_2320" data-name="Path 2320" d="M398.677,372.528a9.57,9.57,0,0,0-1.866.464,13.575,13.575,0,0,0-1.708.866,6.891,6.891,0,0,0-1.1.776l.217.084a9.8,9.8,0,0,1,1.043-.56,16.328,16.328,0,0,1,1.716-.714,10.972,10.972,0,0,1,1.753-.58,4.709,4.709,0,0,1,1.25-.153c.345-.007.566.075.584.029a1.013,1.013,0,0,0-.565-.217A4.078,4.078,0,0,0,398.677,372.528Z" transform="translate(-392.239 -369.296)" fill="#2f267f"/>
          </g>
        </g>
        <g id="Group_6048" data-name="Group 6048">
          <path id="Path_2321" data-name="Path 2321" d="M392.483,390.6s-1.8-18.531,13.641-25.737,23.676,2.06,23.676,2.06-2.058,5.4-10.552,10.295-19.045,6.948-21.361,13.9c0,0,3.861.257,6.692,5.918s-2.831,11.068-2.831,11.068l-4.633-9.523,1.544,10.553S381.931,407.585,392.483,390.6Z" transform="translate(-388.992 -362.117)" fill="#2f267f"/>
          <path id="Path_2322" data-name="Path 2322" d="M410.313,363.238a15.617,15.617,0,0,1,.917,5.227,16.194,16.194,0,0,1-16.044,16.045,15.479,15.479,0,0,1-2.448-.215,29.864,29.864,0,0,0-.254,6.3c-10.552,16.987,6.177,18.531,6.177,18.531l-1.544-10.553,4.633,9.523s5.662-5.405,2.831-11.068-6.692-5.918-6.692-5.918c2.316-6.95,12.869-9.008,21.361-13.9S429.8,366.921,429.8,366.921,423.05,359.329,410.313,363.238Z" transform="translate(-388.992 -362.118)" fill="#1d255b" opacity="0.4" style="mix-blend-mode: multiply;isolation: isolate"/>
          <g id="Group_6041" data-name="Group 6041" transform="translate(12.913 4.192)">
            <g id="Group_6040" data-name="Group 6040">
              <g id="Group_6038" data-name="Group 6038" transform="translate(2.226)">
                <path id="Path_2323" data-name="Path 2323" d="M408.174,369.013c.222.311.9.249,1.521-.14s.94-.954.716-1.264-.9-.248-1.519.138S407.953,368.7,408.174,369.013Z" transform="translate(-408.104 -367.41)" fill="#6148ec"/>
              </g>
              <g id="Group_6039" data-name="Group 6039" transform="translate(0 2.317)">
                <path id="Path_2324" data-name="Path 2324" d="M405.363,371.612c.181.208.669.121,1.083-.2s.61-.749.428-.962-.668-.121-1.084.2S405.182,371.4,405.363,371.612Z" transform="translate(-405.295 -370.336)" fill="#6148ec"/>
              </g>
            </g>
          </g>
          <g id="Group_6047" data-name="Group 6047" transform="translate(5.893 4.801)">
            <g id="Group_6046" data-name="Group 6046">
              <g id="Group_6042" data-name="Group 6042" transform="translate(0 13.642)">
                <path id="Path_2325" data-name="Path 2325" d="M399.933,389.3c.01.007-.059.121-.243.24a.507.507,0,0,1-.4.072.623.623,0,0,1-.389-.34,1.427,1.427,0,0,1-.163-.527,1.812,1.812,0,0,1-.028-.575,3.126,3.126,0,0,1,.293-1.055l.359.162a5.958,5.958,0,0,1-.812,1.342,3.4,3.4,0,0,1-.4.438,1.719,1.719,0,0,1-.847.436.77.77,0,0,1-.521-.113.671.671,0,0,1-.341-.5,3.647,3.647,0,0,1,.111-1.031,6.149,6.149,0,0,1,.611-1.753,2.791,2.791,0,0,1,.473-.694,11.529,11.529,0,0,0-.746,2.5,3.778,3.778,0,0,0-.053.906.341.341,0,0,0,.407.243,1.429,1.429,0,0,0,.582-.354,3.037,3.037,0,0,0,.372-.373,5.71,5.71,0,0,0,.8-1.195l.36.162a2.865,2.865,0,0,0-.329.915,1.634,1.634,0,0,0-.018.5,1.253,1.253,0,0,0,.095.463.382.382,0,0,0,.535.26C399.815,389.363,399.917,389.279,399.933,389.3Z" transform="translate(-396.431 -385.402)" fill="#6148ec"/>
              </g>
              <g id="Group_6043" data-name="Group 6043" transform="translate(12.363)">
                <path id="Path_2326" data-name="Path 2326" d="M415.024,372.007c.006.008-.014.036-.058.077a.578.578,0,0,1-.223.144c-.213.136-.659-.079-.727-.452a1.7,1.7,0,0,1,.173-1.094,1.963,1.963,0,0,1,.62-.877c.084.166.135.265.186.368-.429.265-.791.545-1.038.689s-.394.225-.394.225a2.147,2.147,0,0,1-.825.219.8.8,0,0,1-.473-.151.568.568,0,0,1-.2-.259.875.875,0,0,1-.024-.282,2.614,2.614,0,0,1,.3-.912,3.15,3.15,0,0,1,1.194-1.24,1.784,1.784,0,0,1,.719-.279c.018.041-.262.17-.615.436a3.212,3.212,0,0,0-.989,1.229,2.39,2.39,0,0,0-.212.782c-.01.063.015.089.014.133.024.006.005.026.053.046a.364.364,0,0,0,.22.052,1.861,1.861,0,0,0,.618-.207s.126-.056.368-.191.568-.363,1.089-.657l.187.368a1.8,1.8,0,0,0-.5.652,1.521,1.521,0,0,0-.246.889.4.4,0,0,0,.463.392C414.9,372.074,415.005,371.978,415.024,372.007Z" transform="translate(-412.04 -368.178)" fill="#6148ec"/>
              </g>
              <g id="Group_6044" data-name="Group 6044" transform="translate(2.642 7.207)">
                <path id="Path_2327" data-name="Path 2327" d="M402.188,378.823a3.754,3.754,0,0,1-.98.777,1.961,1.961,0,0,1-.882.332.812.812,0,0,1-.242-.043.9.9,0,0,1-.182-.132.654.654,0,0,1-.09-.152.884.884,0,0,1-.021-.5,2.656,2.656,0,0,1,.334-.847,2.977,2.977,0,0,1,.777-.985,7.091,7.091,0,0,1-.469,1.133,2.577,2.577,0,0,0-.2.748c-.02.21.031.27.026.261s0,.013.006.033c.007,0,.006,0,.01.015.022,0,.028.016.065.016a1.782,1.782,0,0,0,.711-.19C401.6,379.055,402.149,378.75,402.188,378.823Z" transform="translate(-399.767 -377.277)" fill="#6148ec"/>
              </g>
              <g id="Group_6045" data-name="Group 6045" transform="translate(17.412 9.265)">
                <path id="Path_2328" data-name="Path 2328" d="M420.992,381.679a2.777,2.777,0,0,1-1.189.43,1.459,1.459,0,0,1-.952-.166,1.575,1.575,0,0,1-.333-.351.855.855,0,0,1-.1-.5,1.112,1.112,0,0,1,.63-.767,4.041,4.041,0,0,1,1.173-.444c.056.076-.514.392-.984.73-.238.172-.392.394-.375.52a.435.435,0,0,0,.081.232.988.988,0,0,0,.17.219,1.132,1.132,0,0,0,.667.186A8.387,8.387,0,0,1,420.992,381.679Z" transform="translate(-418.414 -379.876)" fill="#6148ec"/>
              </g>
            </g>
          </g>
        </g>
        <g id="Group_6055" data-name="Group 6055" transform="translate(23.051 0.009)">
          <path id="Path_2329" data-name="Path 2329" d="M418.252,362.74a15.718,15.718,0,0,0,6.281,14.91q.386-.214.768-.432c8.493-4.89,10.552-10.294,10.552-10.294S429.764,360.089,418.252,362.74Z" transform="translate(-418.094 -362.129)" fill="#6148ec"/>
          <g id="Group_6049" data-name="Group 6049" transform="translate(1.794 7.884)">
            <path id="Path_2330" data-name="Path 2330" d="M430.847,375.744a6.294,6.294,0,0,0-10.488-1.473A16.1,16.1,0,0,0,425,379.719c.257-.142.514-.286.768-.431A34.026,34.026,0,0,0,430.847,375.744Z" transform="translate(-420.359 -372.082)" fill="#1d255b" opacity="0.8" style="mix-blend-mode: screen;isolation: isolate"/>
            <path id="Path_2331" data-name="Path 2331" d="M422.635,374.481c.125.322.737.422,1.371.219s1.042-.629.915-.951-.736-.422-1.368-.222S422.509,374.157,422.635,374.481Z" transform="translate(-420.828 -372.361)" fill="#fad0bf" style="mix-blend-mode: screen;isolation: isolate"/>
          </g>
          <g id="Group_6054" data-name="Group 6054" transform="translate(2.969 2.97)">
            <g id="Group_6050" data-name="Group 6050">
              <path id="Path_2332" data-name="Path 2332" d="M427.288,369.492a4.567,4.567,0,0,1-3.437-1.3l-2.008,1.648s.443.24,1.12.52a6.819,6.819,0,0,1,1.257-.644c-.054.09-.3.6-.461.944,2.589.886,6.841,1.431,6.383-4.779C430.142,365.878,429.342,369.323,427.288,369.492Z" transform="translate(-421.843 -365.878)" fill="#2f267f"/>
            </g>
            <g id="Group_6053" data-name="Group 6053" transform="translate(8.959 1.941)">
              <g id="Group_6051" data-name="Group 6051" transform="translate(0.668)">
                <path id="Path_2333" data-name="Path 2333" d="M438.867,368.333a2.443,2.443,0,0,1-1,.859,5.624,5.624,0,0,1-1.265.428,9.388,9.388,0,0,1-1.316.026,3.894,3.894,0,0,1-1.286-.208,5.344,5.344,0,0,1,1.282-.135c.636-.049,1.245-.162,1.245-.162a6.459,6.459,0,0,0,1.2-.264C438.31,368.67,438.811,368.276,438.867,368.333Z" transform="translate(-433.998 -368.328)" fill="#2f267f"/>
              </g>
              <g id="Group_6052" data-name="Group 6052" transform="translate(0 0.45)">
                <path id="Path_2334" data-name="Path 2334" d="M433.158,370.961c-.036-.067.2-.252.323-.48a1.725,1.725,0,0,0,.173-.479,2.875,2.875,0,0,0,.131-.517c.039-.28.043-.578.112-.589s.18.271.231.585a2.343,2.343,0,0,1-.01.653,1.671,1.671,0,0,1-.372.564C433.5,370.931,433.18,371.01,433.158,370.961Z" transform="translate(-433.154 -368.895)" fill="#2f267f"/>
              </g>
            </g>
          </g>
        </g>
        <g id="Group_6059" data-name="Group 6059" transform="translate(0 28.481)">
          <path id="Path_2335" data-name="Path 2335" d="M404.58,404.508c-2.83-5.661-6.692-5.918-6.692-5.918l-2.059,4.375-3.346-4.89c-10.552,16.987,6.177,18.531,6.177,18.531l-1.544-10.553,4.633,9.523S407.411,410.171,404.58,404.508Z" transform="translate(-388.992 -398.075)" fill="#6148ec"/>
          <g id="Group_6058" data-name="Group 6058" transform="translate(1.556 0.515)">
            <path id="Path_2336" data-name="Path 2336" d="M406.868,404.643c-2.83-5.661-6.691-5.918-6.691-5.918l-.182.386c4.668,2.168,5.338,8.938,2.018,12.44l2.024,4.161S409.7,410.306,406.868,404.643Z" transform="translate(-392.835 -398.725)" fill="#1d255b" opacity="0.2" style="mix-blend-mode: multiply;isolation: isolate"/>
            <g id="Group_6056" data-name="Group 6056" transform="translate(0 13.983)">
              <path id="Path_2337" data-name="Path 2337" d="M394.822,417.367a7.51,7.51,0,0,1-3.866-.988c2.732,3.532,8.112,4.033,8.112,4.033l-.574-3.93A7.579,7.579,0,0,1,394.822,417.367Z" transform="translate(-390.956 -416.379)" fill="#1d255b" opacity="0.2" style="mix-blend-mode: multiply;isolation: isolate"/>
            </g>
            <g id="Group_6057" data-name="Group 6057" transform="translate(0.915 0.128)">
              <path id="Path_2338" data-name="Path 2338" d="M397.3,410.984a19.219,19.219,0,0,1-.972-2.268c-.216-.635-.333-1.066-.333-1.068l-.078-.3c-.044-.19-.138-.455-.2-.786a12.762,12.762,0,0,1-.281-2.435,12.052,12.052,0,0,1,.254-2.449c0-.018.009-.033.013-.051l-.129-.189c-.021.067-.044.123-.066.193a10.5,10.5,0,0,0-.414,2.49,12.388,12.388,0,0,0,.186,2.528c.047.344.134.619.173.818s.072.309.072.309.134.443.381,1.088A17.626,17.626,0,0,0,397,411.147a19.366,19.366,0,0,0,1.4,2.087,4.886,4.886,0,0,0,.757.854,6.839,6.839,0,0,0-.6-.964C398.179,412.559,397.717,411.781,397.3,410.984Z" transform="translate(-392.731 -399.419)" fill="#2f267f"/>
              <path id="Path_2339" data-name="Path 2339" d="M404.663,413.113a21.281,21.281,0,0,0-.624-3.361c-.252-.9-.453-1.487-.453-1.487s-.216-.584-.586-1.438a30.972,30.972,0,0,0-1.543-3.037,31.81,31.81,0,0,0-1.871-2.839c-.094-.131-.179-.24-.265-.349l-.08.168.19.289c.511.767,1.14,1.823,1.727,2.9A32.862,32.862,0,0,1,402.59,407c.341.851.541,1.427.54,1.427s.21.573.48,1.447a21.977,21.977,0,0,1,.713,3.274,19.83,19.83,0,0,1,.131,2.335c.081-.094.166-.194.258-.306A18.759,18.759,0,0,0,404.663,413.113Z" transform="translate(-393.593 -399.244)" fill="#2f267f"/>
              <path id="Path_2340" data-name="Path 2340" d="M396.9,416.05a12.525,12.525,0,0,1-2.346-2.538,10.654,10.654,0,0,1-1.463-3.1,8.056,8.056,0,0,1-.265-1.1l-.086-.421s-.023-.155-.056-.427a10.3,10.3,0,0,1-.112-1.129,16.272,16.272,0,0,1,.2-3.449,22.262,22.262,0,0,1,.873-3.369c.128-.364.242-.673.333-.92l-.075-.107c-.118.245-.281.558-.435.96a19.665,19.665,0,0,0-1.033,3.375,15.974,15.974,0,0,0-.31,3.529,10.607,10.607,0,0,0,.087,1.171c.029.283.05.444.05.444s.036.158.1.438a8.334,8.334,0,0,0,.3,1.136,10.81,10.81,0,0,0,1.609,3.167,11.762,11.762,0,0,0,2.511,2.486c.159.115.305.208.445.294.135.036.261.069.386.1C397.415,416.443,397.171,416.26,396.9,416.05Z" transform="translate(-392.111 -399.013)" fill="#2f267f"/>
              <path id="Path_2341" data-name="Path 2341" d="M407.436,408.059a13.044,13.044,0,0,0-1.016-2.845,9.548,9.548,0,0,0-.477-.879c-.121-.21-.191-.329-.191-.329l-.221-.307c-.146-.193-.331-.486-.606-.8a16.051,16.051,0,0,0-2.131-2.133,21.524,21.524,0,0,0-2.437-1.748c-.083-.051-.151-.091-.229-.135l-.072.153.2.139a26.879,26.879,0,0,1,2.316,1.849,16.608,16.608,0,0,1,2.007,2.154c.258.307.428.6.565.786s.206.3.206.3l.192.311a9.453,9.453,0,0,1,.484.836,14.239,14.239,0,0,1,1.445,4.383q.095-.427.149-.871C407.566,408.638,407.51,408.347,407.436,408.059Z" transform="translate(-393.763 -398.887)" fill="#2f267f"/>
              <path id="Path_2342" data-name="Path 2342" d="M399.211,407.324c-.256-.918-.514-1.836-.514-1.836l-.6-1.8-.1-.36-.227.48c.233.918.464,1.826.464,1.826s.325.9.649,1.793c.056.164.113.327.169.485l-.112-.767.444.914C399.333,407.824,399.273,407.576,399.211,407.324Z" transform="translate(-393.288 -399.81)" fill="#2f267f"/>
            </g>
          </g>
        </g>
        <g id="Group_6061" data-name="Group 6061" transform="translate(10.441 10.734)">
          <path id="Path_2343" data-name="Path 2343" d="M404.164,377.94l-1.99,8.392s8.248-2.844,10.808-9.245C412.982,377.087,410.422,373.389,404.164,377.94Z" transform="translate(-402.174 -375.67)" fill="#6148ec"/>
          <path id="Path_2344" data-name="Path 2344" d="M409.813,375.673c.048,3.74-2.268,7.5-6.944,7.728l-.694,2.932s8.248-2.844,10.808-9.245A3.938,3.938,0,0,0,409.813,375.673Z" transform="translate(-402.174 -375.67)" fill="#1d255b" opacity="0.2" style="mix-blend-mode: multiply;isolation: isolate"/>
          <g id="Group_6060" data-name="Group 6060" transform="translate(0.199 0.262)">
            <path id="Path_2345" data-name="Path 2345" d="M411.528,376c-.032.115-.065.234-.105.366a11.592,11.592,0,0,1-.958,2.2,16.109,16.109,0,0,1-1.35,1.982c-.414.508-.7.835-.7.835a23.854,23.854,0,0,1-2.471,2.482c-.668.568-1.36,1.115-1.9,1.492a6.665,6.665,0,0,0-.888.662,4.587,4.587,0,0,0,.99-.5,19.5,19.5,0,0,0,2.019-1.386,21.892,21.892,0,0,0,2.618-2.428s.288-.345.693-.882a15.125,15.125,0,0,0,1.3-2.093,10.176,10.176,0,0,0,.837-2.312,2.722,2.722,0,0,0,.069-.359C411.627,376.036,411.579,376.018,411.528,376Z" transform="translate(-402.575 -376)" fill="#2f267f"/>
            <path id="Path_2346" data-name="Path 2346" d="M404.416,384.232a18.706,18.706,0,0,0,1.1-1.836l.442-.867s.595-1.436,1.093-2.9c.354-1.04.724-2.062.885-2.577l-.146.043c-.251.51-.668,1.451-1.06,2.413-.58,1.428-1.215,2.817-1.215,2.818l-.4.864c-.219.532-.615,1.182-.984,1.85a24.335,24.335,0,0,1-1.706,2.3l.215-.083c.113-.107.244-.232.4-.39A12.76,12.76,0,0,0,404.416,384.232Z" transform="translate(-402.425 -376.012)" fill="#2f267f"/>
          </g>
        </g>
      </g>
      <g id="Group_6084" data-name="Group 6084" transform="translate(13.512 7.851)">
        <g id="Group_6064" data-name="Group 6064" transform="translate(24.825 35.009)">
          <path id="Path_2347" data-name="Path 2347" d="M445.095,416.228l6.077,2.31s-5.5,6.886-13.77,6.175C437.4,424.713,436.811,420.5,445.095,416.228Z" transform="translate(-437.393 -416.228)" fill="#fff"/>
          <path id="Path_2348" data-name="Path 2348" d="M437.4,424.713a13.963,13.963,0,0,0,4.216-.281c.207-3.4,2.37-6.654,6.5-7.055l-3.024-1.148C436.811,420.5,437.4,424.713,437.4,424.713Z" transform="translate(-437.393 -416.228)" fill="#f463e5" opacity="0.2" style="mix-blend-mode: multiply;isolation: isolate"/>
          <g id="Group_6063" data-name="Group 6063" transform="translate(2.937 1.555)">
            <path id="Path_2349" data-name="Path 2349" d="M442.06,423.757a8.24,8.24,0,0,0,2.167-.064,12.523,12.523,0,0,0,2.107-.525c.559-.2.924-.349.924-.349s.359-.169.879-.451c.351-.194.775-.451,1.206-.745a17.611,17.611,0,0,0,2.6-2.485l-.07-.028a14.14,14.14,0,0,1-2.124,1.8,15.691,15.691,0,0,1-1.82,1.066c-.517.251-.869.4-.869.4s-.349.161-.88.375a13.332,13.332,0,0,1-2.016.608,9.445,9.445,0,0,1-2.094.211,7.168,7.168,0,0,0-.969-.024A2.957,2.957,0,0,0,442.06,423.757Z" transform="translate(-441.102 -418.382)" fill="#f6c95b"/>
            <path id="Path_2350" data-name="Path 2350" d="M446.163,420.381a9.624,9.624,0,0,0,1.866-.467,13.138,13.138,0,0,0,1.708-.864,7,7,0,0,0,1.1-.778l-.217-.082a9.731,9.731,0,0,1-1.042.559,16.173,16.173,0,0,1-1.716.713,10.779,10.779,0,0,1-1.754.581,4.813,4.813,0,0,1-1.249.154c-.346.005-.567-.076-.585-.028a1.056,1.056,0,0,0,.565.215A4.108,4.108,0,0,0,446.163,420.381Z" transform="translate(-441.76 -418.191)" fill="#f6c95b"/>
          </g>
        </g>
        <g id="Group_6071" data-name="Group 6071">
          <path id="Path_2351" data-name="Path 2351" d="M443.368,390.559s1.8,18.53-13.641,25.737-23.676-2.06-23.676-2.06,2.058-5.4,10.551-10.293,19.044-6.949,21.361-13.9c0,0-3.861-.258-6.691-5.92s2.831-11.066,2.831-11.066l4.632,9.521-1.543-10.551S453.92,373.573,443.368,390.559Z" transform="translate(-406.051 -372.029)" fill="#f6c95b"/>
          <path id="Path_2352" data-name="Path 2352" d="M425.538,417.92a15.63,15.63,0,0,1-.917-5.229,16.193,16.193,0,0,1,16.044-16.043,15.6,15.6,0,0,1,2.449.213,29.863,29.863,0,0,0,.253-6.3c10.552-16.986-6.176-18.53-6.176-18.53l1.543,10.551-4.632-9.521s-5.663,5.4-2.831,11.066,6.691,5.92,6.691,5.92c-2.317,6.949-12.869,9.008-21.361,13.9s-10.551,10.293-10.551,10.293S412.8,421.828,425.538,417.92Z" transform="translate(-406.051 -372.029)" fill="#f6c95b" style="mix-blend-mode: multiply;isolation: isolate"/>
          <g id="Group_6065" data-name="Group 6065" transform="translate(23.292 39.112)" style="mix-blend-mode: screen;isolation: isolate">
            <path id="Path_2353" data-name="Path 2353" d="M437.765,424.011c-.221-.309-.9-.249-1.521.14s-.939.956-.715,1.263.9.249,1.519-.137S437.987,424.321,437.765,424.011Z" transform="translate(-435.458 -421.908)" fill="#fad0bf"/>
            <path id="Path_2354" data-name="Path 2354" d="M440.769,421.521c-.182-.207-.669-.121-1.084.2s-.609.75-.428.961.668.122,1.084-.2S440.95,421.731,440.769,421.521Z" transform="translate(-436.234 -421.408)" fill="#fad0bf"/>
          </g>
          <g id="Group_6070" data-name="Group 6070" transform="translate(14.926 24.34)">
            <g id="Group_6066" data-name="Group 6066" transform="translate(16.487)">
              <path id="Path_2355" data-name="Path 2355" d="M445.711,403.087c-.009-.01.059-.12.244-.24a.5.5,0,0,1,.4-.073.627.627,0,0,1,.39.34,1.459,1.459,0,0,1,.163.527,1.837,1.837,0,0,1,.029.575,3.176,3.176,0,0,1-.293,1.056l-.359-.162a5.935,5.935,0,0,1,.812-1.343,3.643,3.643,0,0,1,.4-.437,1.734,1.734,0,0,1,.846-.437.784.784,0,0,1,.521.115.663.663,0,0,1,.34.5,3.626,3.626,0,0,1-.111,1.031,6.139,6.139,0,0,1-.61,1.754,2.8,2.8,0,0,1-.473.7,11.532,11.532,0,0,0,.747-2.5,3.737,3.737,0,0,0,.052-.905.341.341,0,0,0-.407-.243,1.391,1.391,0,0,0-.582.355,3.019,3.019,0,0,0-.372.372,5.75,5.75,0,0,0-.8,1.194c-.108-.047-.217-.1-.36-.161a2.868,2.868,0,0,0,.329-.916,1.659,1.659,0,0,0,.018-.5,1.258,1.258,0,0,0-.095-.461.381.381,0,0,0-.536-.261C445.828,403.026,445.727,403.108,445.711,403.087Z" transform="translate(-445.71 -402.758)" fill="#f463e5"/>
            </g>
            <g id="Group_6067" data-name="Group 6067" transform="translate(4.643 13.78)">
              <path id="Path_2356" data-name="Path 2356" d="M430.758,420.416c-.007-.009.012-.035.057-.076a.571.571,0,0,1,.223-.145c.214-.135.659.08.727.452a1.692,1.692,0,0,1-.173,1.1,1.95,1.95,0,0,1-.62.875c-.084-.163-.135-.265-.186-.366.428-.265.79-.544,1.037-.69s.395-.225.395-.225a2.135,2.135,0,0,1,.825-.217.782.782,0,0,1,.472.151.555.555,0,0,1,.2.258.877.877,0,0,1,.025.281,2.655,2.655,0,0,1-.3.914,3.143,3.143,0,0,1-1.194,1.239,1.778,1.778,0,0,1-.719.28c-.019-.042.261-.169.614-.436a3.18,3.18,0,0,0,.989-1.228,2.408,2.408,0,0,0,.213-.784c.009-.063-.016-.089-.015-.131-.024-.007-.005-.026-.052-.045a.36.36,0,0,0-.221-.053,1.837,1.837,0,0,0-.619.208s-.125.055-.367.188-.569.365-1.089.659l-.187-.368a1.843,1.843,0,0,0,.5-.652,1.531,1.531,0,0,0,.246-.89.4.4,0,0,0-.464-.394C430.881,420.35,430.776,420.447,430.758,420.416Z" transform="translate(-430.756 -420.155)" fill="#f463e5"/>
            </g>
            <g id="Group_6068" data-name="Group 6068" transform="translate(14.927 8.008)">
              <path id="Path_2357" data-name="Path 2357" d="M443.741,413.979a3.737,3.737,0,0,1,.98-.779,1.938,1.938,0,0,1,.882-.33.8.8,0,0,1,.241.041.96.96,0,0,1,.182.131.6.6,0,0,1,.09.153.87.87,0,0,1,.023.5,2.665,2.665,0,0,1-.333.846,2.96,2.96,0,0,1-.778.984,7.342,7.342,0,0,1,.469-1.133,2.546,2.546,0,0,0,.2-.748c.02-.21-.03-.269-.025-.259s0-.014-.007-.033c-.007,0-.005,0-.009-.017-.022,0-.028-.015-.066-.017a1.778,1.778,0,0,0-.709.19C444.333,413.745,443.78,414.052,443.741,413.979Z" transform="translate(-443.74 -412.869)" fill="#f463e5"/>
            </g>
            <g id="Group_6069" data-name="Group 6069" transform="translate(0 6.355)">
              <path id="Path_2358" data-name="Path 2358" d="M424.9,411.228a2.778,2.778,0,0,1,1.188-.429,1.455,1.455,0,0,1,.954.166,1.529,1.529,0,0,1,.333.349.851.851,0,0,1,.1.5,1.106,1.106,0,0,1-.629.766,4.042,4.042,0,0,1-1.174.446c-.055-.076.514-.394.984-.731.238-.172.392-.392.375-.521a.421.421,0,0,0-.08-.23.973.973,0,0,0-.17-.22,1.135,1.135,0,0,0-.667-.187A8.237,8.237,0,0,1,424.9,411.228Z" transform="translate(-424.895 -410.782)" fill="#f463e5"/>
            </g>
          </g>
        </g>
        <g id="Group_6078" data-name="Group 6078" transform="translate(0 31.482)">
          <path id="Path_2359" data-name="Path 2359" d="M423.651,426.685a15.726,15.726,0,0,0-6.28-14.91c-.258.14-.515.285-.769.432-8.493,4.89-10.551,10.293-10.551,10.293S412.138,429.333,423.651,426.685Z" transform="translate(-406.051 -411.775)" fill="#fff"/>
          <g id="Group_6072" data-name="Group 6072" transform="translate(5.476)">
            <path id="Path_2360" data-name="Path 2360" d="M412.964,415.749a6.295,6.295,0,0,0,10.488,1.475,16.108,16.108,0,0,0-4.644-5.449c-.257.14-.515.285-.768.432A34.168,34.168,0,0,0,412.964,415.749Z" transform="translate(-412.964 -411.775)" fill="#f463e5" opacity="0.2" style="mix-blend-mode: multiply;isolation: isolate"/>
            <path id="Path_2361" data-name="Path 2361" d="M423.318,418.654c-.125-.322-.738-.421-1.372-.219s-1.042.63-.915.953.737.422,1.369.221S423.443,418.979,423.318,418.654Z" transform="translate(-414.636 -413.138)" fill="#fad0bf" style="mix-blend-mode: screen;isolation: isolate"/>
          </g>
          <g id="Group_6077" data-name="Group 6077" transform="translate(0.289 7.236)">
            <g id="Group_6073" data-name="Group 6073" transform="translate(6.166)">
              <path id="Path_2362" data-name="Path 2362" d="M417.09,422.611a4.564,4.564,0,0,1,3.436,1.3l2.008-1.647s-.444-.241-1.12-.519a6.943,6.943,0,0,1-1.257.643c.054-.092.3-.6.462-.945-2.59-.885-6.842-1.431-6.384,4.779C414.235,426.224,415.034,422.78,417.09,422.611Z" transform="translate(-414.201 -420.91)" fill="#2f267f"/>
            </g>
            <g id="Group_6076" data-name="Group 6076" transform="translate(0 0.845)">
              <g id="Group_6074" data-name="Group 6074" transform="translate(0 1.198)">
                <path id="Path_2363" data-name="Path 2363" d="M406.418,424.815a2.434,2.434,0,0,1,1-.857,5.789,5.789,0,0,1,1.264-.431A9.4,9.4,0,0,1,410,423.5a3.986,3.986,0,0,1,1.286.205,5.3,5.3,0,0,1-1.282.138c-.636.046-1.244.159-1.244.159a6.647,6.647,0,0,0-1.2.265C406.975,424.478,406.475,424.871,406.418,424.815Z" transform="translate(-406.416 -423.49)" fill="#f6c95b"/>
              </g>
              <g id="Group_6075" data-name="Group 6075" transform="translate(4.547)">
                <path id="Path_2364" data-name="Path 2364" d="M413.145,421.991c.037.068-.2.253-.323.481a1.677,1.677,0,0,0-.172.478,2.81,2.81,0,0,0-.132.517c-.039.277-.042.576-.111.589s-.181-.271-.231-.586a2.329,2.329,0,0,1,.009-.653,1.681,1.681,0,0,1,.372-.562C412.808,422.021,413.123,421.942,413.145,421.991Z" transform="translate(-412.156 -421.977)" fill="#f6c95b"/>
              </g>
            </g>
          </g>
        </g>
        <g id="Group_6081" data-name="Group 6081" transform="translate(24.428)">
          <path id="Path_2365" data-name="Path 2365" d="M437.685,384.125c2.83,5.662,6.691,5.92,6.691,5.92l2.059-4.376,3.346,4.89c10.552-16.986-6.177-18.53-6.177-18.53l1.544,10.551-4.632-9.521S434.853,378.463,437.685,384.125Z" transform="translate(-436.892 -372.029)" fill="#fff"/>
          <g id="Group_6080" data-name="Group 6080">
            <path id="Path_2366" data-name="Path 2366" d="M444.558,389.659l-.182.386s-3.861-.258-6.691-5.92,2.831-11.066,2.831-11.066l2.023,4.161C439.22,380.72,439.89,387.489,444.558,389.659Zm-.954-17.63.575,3.929a8.066,8.066,0,0,1,7.538.1C448.985,372.53,443.6,372.029,443.6,372.029Z" transform="translate(-436.892 -372.029)" fill="#f463e5" opacity="0.2" style="mix-blend-mode: multiply;isolation: isolate"/>
            <g id="Group_6079" data-name="Group 6079" transform="translate(0.058 0.307)">
              <path id="Path_2367" data-name="Path 2367" d="M448.2,379.195a18.851,18.851,0,0,1,.972,2.267c.216.635.333,1.066.333,1.066l.08.3c.042.19.138.454.195.784a12.8,12.8,0,0,1,.28,2.437,11.969,11.969,0,0,1-.254,2.448c0,.019-.009.033-.013.051l.129.189c.022-.065.044-.121.066-.193a10.527,10.527,0,0,0,.415-2.49,12.438,12.438,0,0,0-.187-2.527c-.045-.344-.133-.62-.172-.82s-.073-.308-.073-.308-.134-.443-.381-1.087a17.424,17.424,0,0,0-1.088-2.278,19.357,19.357,0,0,0-1.4-2.086,4.81,4.81,0,0,0-.756-.854,6.823,6.823,0,0,0,.6.965C447.317,377.62,447.779,378.4,448.2,379.195Z" transform="translate(-438.914 -373.18)" fill="#f6c95b"/>
              <path id="Path_2368" data-name="Path 2368" d="M440.462,376.48a21.249,21.249,0,0,0,.625,3.359c.251.9.452,1.487.452,1.487s.216.583.586,1.438a30.873,30.873,0,0,0,1.543,3.038,32.173,32.173,0,0,0,1.872,2.838c.094.132.178.239.266.35l.079-.168c-.061-.092-.124-.188-.19-.291-.511-.766-1.141-1.821-1.728-2.9a33.151,33.151,0,0,1-1.432-3.045c-.341-.851-.541-1.427-.54-1.427s-.21-.573-.479-1.447a21.874,21.874,0,0,1-.714-3.275,19.848,19.848,0,0,1-.131-2.335c-.08.094-.166.194-.257.307A18.8,18.8,0,0,0,440.462,376.48Z" transform="translate(-437.68 -372.768)" fill="#f6c95b"/>
              <path id="Path_2369" data-name="Path 2369" d="M448.224,372.96a12.418,12.418,0,0,1,2.346,2.535,10.654,10.654,0,0,1,1.463,3.1,8.013,8.013,0,0,1,.266,1.1l.085.423s.023.153.056.424a10.047,10.047,0,0,1,.113,1.13,16.3,16.3,0,0,1-.2,3.45,22.252,22.252,0,0,1-.873,3.367c-.127.365-.242.675-.332.92l.074.108c.119-.246.282-.559.435-.962a19.6,19.6,0,0,0,1.033-3.372,16.014,16.014,0,0,0,.31-3.53,10.556,10.556,0,0,0-.087-1.171c-.029-.284-.049-.445-.049-.445s-.036-.157-.1-.436a8.452,8.452,0,0,0-.3-1.136,10.77,10.77,0,0,0-1.61-3.167,11.709,11.709,0,0,0-2.51-2.487c-.16-.115-.306-.207-.446-.3-.135-.036-.261-.068-.386-.1C447.706,372.566,447.948,372.749,448.224,372.96Z" transform="translate(-439.157 -372.417)" fill="#f6c95b"/>
              <path id="Path_2370" data-name="Path 2370" d="M437.144,382.576a13.094,13.094,0,0,0,1.017,2.844,9.814,9.814,0,0,0,.476.879l.191.329.223.308a9.9,9.9,0,0,0,.6.793,15.934,15.934,0,0,0,2.131,2.134,21.405,21.405,0,0,0,2.437,1.749c.083.051.151.09.229.135l.072-.154-.2-.137a26.592,26.592,0,0,1-2.317-1.85A16.629,16.629,0,0,1,440,387.452c-.258-.307-.427-.6-.565-.785s-.207-.3-.207-.3l-.191-.311a9.089,9.089,0,0,1-.483-.836,14.185,14.185,0,0,1-1.446-4.382,8.662,8.662,0,0,0-.148.872C437.013,381.993,437.071,382.285,437.144,382.576Z" transform="translate(-436.965 -374.167)" fill="#f6c95b"/>
              <path id="Path_2371" data-name="Path 2371" d="M446.93,384.932c.256.919.513,1.835.513,1.835s.3.9.6,1.8c.032.121.064.242.1.361l.226-.479c-.233-.92-.464-1.826-.464-1.826l-.648-1.795c-.057-.165-.113-.326-.169-.484l.112.766-.444-.914C446.808,384.43,446.867,384.681,446.93,384.932Z" transform="translate(-439.001 -374.866)" fill="#f6c95b"/>
            </g>
          </g>
        </g>
        <g id="Group_6083" data-name="Group 6083" transform="translate(19.559 25.612)">
          <path id="Path_2372" data-name="Path 2372" d="M439.562,412.758l1.991-8.393s-8.249,2.846-10.809,9.246C430.744,413.611,433.3,417.308,439.562,412.758Z" transform="translate(-430.744 -404.365)" fill="#fff"/>
          <path id="Path_2373" data-name="Path 2373" d="M433.914,415.025c-.048-3.739,2.268-7.5,6.945-7.729l.694-2.932s-8.249,2.846-10.809,9.246A3.942,3.942,0,0,0,433.914,415.025Z" transform="translate(-430.744 -404.365)" fill="#f463e5" opacity="0.2" style="mix-blend-mode: multiply;isolation: isolate"/>
          <g id="Group_6082" data-name="Group 6082" transform="translate(1.511 0.074)">
            <path id="Path_2374" data-name="Path 2374" d="M432.8,414.866c.032-.113.065-.232.106-.365a11.492,11.492,0,0,1,.958-2.2,15.9,15.9,0,0,1,1.35-1.983c.413-.509.7-.835.7-.835A23.786,23.786,0,0,1,438.387,407c.668-.568,1.359-1.116,1.9-1.492a6.8,6.8,0,0,0,.887-.662,4.515,4.515,0,0,0-.991.5,19.8,19.8,0,0,0-2.017,1.385,21.832,21.832,0,0,0-2.619,2.43s-.288.344-.693.881a15.181,15.181,0,0,0-1.3,2.094,10.183,10.183,0,0,0-.838,2.313,2.749,2.749,0,0,0-.069.359C432.7,414.83,432.747,414.848,432.8,414.866Z" transform="translate(-432.652 -404.539)" fill="#f6c95b"/>
            <path id="Path_2375" data-name="Path 2375" d="M440.7,406.567a19,19,0,0,0-1.1,1.837c-.266.52-.441.867-.441.867s-.595,1.434-1.093,2.894c-.355,1.04-.724,2.061-.886,2.578l.146-.043c.25-.512.669-1.45,1.06-2.413.58-1.428,1.215-2.819,1.215-2.819l.4-.866c.219-.53.615-1.18.984-1.849a24.346,24.346,0,0,1,1.706-2.295c-.059.021-.131.05-.215.083-.112.105-.244.231-.4.389A12.7,12.7,0,0,0,440.7,406.567Z" transform="translate(-433.594 -404.459)" fill="#f6c95b"/>
          </g>
        </g>
      </g>
    </g>
    <path id="Path_2376" data-name="Path 2376" d="M426.79,390.644v-1.41a5.932,5.932,0,0,0-4.013,5.119H421.29a5.931,5.931,0,0,0-4.013-5.119v1.41a4.613,4.613,0,0,1,2.694,3.709h-2.694v1.311h2.646a4.618,4.618,0,0,1-2.646,3.377v1.409a5.934,5.934,0,0,0,3.972-4.787h1.568a5.932,5.932,0,0,0,3.972,4.787v-1.409a4.618,4.618,0,0,1-2.646-3.377h2.646v-1.311H424.1A4.61,4.61,0,0,1,426.79,390.644Z" transform="translate(-9.252 -8.963)" fill="#6148ec"/>
  </g>
</svg>
