<svg xmlns="http://www.w3.org/2000/svg" width="80" height="80" viewBox="0 0 80 80">
  <g id="Group_22369" data-name="Group 22369" transform="translate(-25.598 -346.127)">
    <g id="Group_6022" data-name="Group 6022" transform="translate(25.598 346.127)">
      <g id="Group_6021" data-name="Group 6021">
        <path id="Path_2298" data-name="Path 2298" d="M96.363,367.245a35.766,35.766,0,1,0,6.108,19.994A35.75,35.75,0,0,0,96.363,367.245Zm-43.086-11.7L54.29,358a31.8,31.8,0,0,0-9.8,6.55l-1.873-1.872A34.532,34.532,0,0,1,53.277,355.542Zm-11.129,7.607,1.873,1.872a31.8,31.8,0,0,0-6.512,9.71l-2.454-1.021A34.55,34.55,0,0,1,42.148,363.149ZM34.8,374.328l2.454,1.02a31.644,31.644,0,0,0-2.3,11.56H32.291A34.242,34.242,0,0,1,34.8,374.328Zm-2.512,13.246h2.665a31.664,31.664,0,0,0,2.266,11.468l-2.455,1.012A34.215,34.215,0,0,1,32.291,387.574Zm2.722,13.1,2.457-1.013a31.822,31.822,0,0,0,6.551,9.8l-1.873,1.872A34.556,34.556,0,0,1,35.013,400.674ZM42.619,411.8l1.873-1.874a31.783,31.783,0,0,0,9.71,6.512l-1.02,2.454A34.546,34.546,0,0,1,42.619,411.8Zm23.759,9.857a34.25,34.25,0,0,1-12.58-2.514l1.02-2.453a31.652,31.652,0,0,0,11.56,2.3Zm0-66.175a31.654,31.654,0,0,0-11.468,2.265L53.9,355.295a34.291,34.291,0,0,1,12.482-2.476Zm34.755,31.422H98.465A31.665,31.665,0,0,0,96.2,375.438l2.469-1.019A34.32,34.32,0,0,1,101.132,386.907Zm-5.874-18.916a34.31,34.31,0,0,1,3.157,5.813l-2.463,1.015a31.828,31.828,0,0,0-6.552-9.8l1.888-1.89A34.575,34.575,0,0,1,95.258,367.991Zm-4.447-5.323L88.93,364.55a31.8,31.8,0,0,0-9.71-6.511l1.018-2.446A34.434,34.434,0,0,1,90.811,362.668Zm-23.767-9.845a34.376,34.376,0,0,1,12.579,2.512l-1.02,2.451a31.629,31.629,0,0,0-11.559-2.3Zm0,68.838V419a31.7,31.7,0,0,0,11.468-2.267l1.013,2.456A34.235,34.235,0,0,1,67.044,421.66Zm13.1-2.722-1.013-2.456a31.808,31.808,0,0,0,9.8-6.553L90.8,411.8A34.542,34.542,0,0,1,80.144,418.938Zm11.129-7.606L89.4,409.459a31.809,31.809,0,0,0,6.512-9.712l2.453,1.021A34.536,34.536,0,0,1,91.273,411.332Zm7.343-11.18-2.453-1.019a31.673,31.673,0,0,0,2.3-11.559h2.665A34.241,34.241,0,0,1,98.617,400.152Z" transform="translate(-26.711 -347.24)" fill="#2f267f"/>
        <path id="Path_2299" data-name="Path 2299" d="M65.6,346.127a40,40,0,1,0,40,40A40,40,0,0,0,65.6,346.127Zm0,77.314a37.314,37.314,0,1,1,37.314-37.314A37.314,37.314,0,0,1,65.6,423.441Z" transform="translate(-25.598 -346.127)" fill="#2f267f"/>
      </g>
    </g>
    <g id="Group_6032" data-name="Group 6032" transform="translate(30.669 350.38)">
      <g id="Group_6025" data-name="Group 6025" transform="translate(20.455)">
        <path id="Path_2300" data-name="Path 2300" d="M83.056,352.879a3.893,3.893,0,0,0-1.59-1.2,2.437,2.437,0,0,0-.913-.182,1.9,1.9,0,0,0-.426.039,2.4,2.4,0,0,0-.416.135,1.946,1.946,0,0,0-1,1.07,1.566,1.566,0,0,0,0,1.158,1.171,1.171,0,0,0,.589.6,1.5,1.5,0,0,0,.5.13l.175.02-.173-.035a1.447,1.447,0,0,1-.474-.169,1.084,1.084,0,0,1-.492-.594,1.393,1.393,0,0,1,.091-1.016,1.648,1.648,0,0,1,.921-.828,2.129,2.129,0,0,1,.326-.076l.2-.012a1.008,1.008,0,0,1,.174.012,1.99,1.99,0,0,1,.72.215,3.324,3.324,0,0,1,1.246,1.132,2.907,2.907,0,0,1,.374.81,1.21,1.21,0,0,1,.047.214l.016.1.012.129.023.266,0,.237a2.06,2.06,0,0,1-.6,1.651,2.812,2.812,0,0,1-1.876.478,11.671,11.671,0,0,1-2.356-.352c-.406-.1-.818-.206-1.24-.322-.479-.119-.869-.215-1.326-.319a15.185,15.185,0,0,0-2.923-.3c-.25,0-.5,0-.754.01l-.76.077-.382.04c-.128.021-.253.049-.379.074l-.762.16c-.253.055-.5.149-.748.224s-.5.146-.741.257l-.719.317-.181.079-.09.041-.045.02-.023.009-.06.035-.314.17c-.213.12-.411.218-.638.356l-.689.45c-.239.147-.427.314-.644.473a7.742,7.742,0,0,0-.614.5,15.477,15.477,0,0,0-3.8,5,19.047,19.047,0,0,0-1.712,5.836c-.025.244-.049.49-.074.733l-.018.184-.009.09,0,.046,0,.024c0-.016,0,.224,0,.131l-.006.333q-.013.662-.027,1.31a18.859,18.859,0,0,0,.368,2.946,20.147,20.147,0,0,0,.713,2.607,24.23,24.23,0,0,0,.99,2.3c.337.73.74,1.374,1.1,2,.193.307.391.6.58.882s.377.56.572.813a26.829,26.829,0,0,0,1.96,2.392c-.035.035-.067.065-.1.1a27.883,27.883,0,0,0-2.181,2.508c-.2.246-.4.513-.593.8s-.4.566-.6.866c-.379.621-.8,1.253-1.154,1.975a24.151,24.151,0,0,0-1.051,2.272,20.411,20.411,0,0,0-.78,2.587,18.849,18.849,0,0,0-.444,2.936q0,.649-.009,1.309v.332c0-.091,0,.149,0,.133l0,.024,0,.045.006.09.013.185c.019.243.036.489.055.737a19,19,0,0,0,1.56,5.875,15.461,15.461,0,0,0,3.669,5.1c.189.186.4.352.6.518s.4.334.63.49l.678.465c.221.146.417.247.627.372l.31.179.059.035.023.011.044.022.089.041.178.086.711.335a7.655,7.655,0,0,0,.735.276c.247.082.49.181.741.243l.756.18c.127.027.251.06.377.083l.382.05.757.1c.251.016.5.017.752.029a15.173,15.173,0,0,0,2.929-.227c.461-.09.854-.18,1.336-.285.425-.105.839-.2,1.248-.291a11.587,11.587,0,0,1,2.363-.288,2.819,2.819,0,0,1,1.863.525,2.065,2.065,0,0,1,.56,1.67l-.009.234-.03.264-.015.13-.018.1a1.214,1.214,0,0,1-.051.212,2.934,2.934,0,0,1-.4.8,3.34,3.34,0,0,1-1.276,1.1,2.086,2.086,0,0,1-.725.2,1.543,1.543,0,0,1-.175.007l-.2-.019a2.27,2.27,0,0,1-.323-.084,1.651,1.651,0,0,1-.9-.85,1.392,1.392,0,0,1-.065-1.019,1.084,1.084,0,0,1,.507-.581,1.475,1.475,0,0,1,.478-.156l.173-.03-.175.013a1.582,1.582,0,0,0-.5.116,1.181,1.181,0,0,0-.605.586,1.564,1.564,0,0,0-.03,1.158,1.951,1.951,0,0,0,.974,1.1,2.419,2.419,0,0,0,.413.143,2.023,2.023,0,0,0,.425.051,2.464,2.464,0,0,0,.918-.158,3.881,3.881,0,0,0,1.62-1.156,3.65,3.65,0,0,0,.581-.953,1.972,1.972,0,0,0,.1-.282c.015-.055.029-.09.043-.16l.027-.128.053-.259.04-.3a3.991,3.991,0,0,0-.032-1.242,2.557,2.557,0,0,0-.632-1.245,2.972,2.972,0,0,0-1.207-.771,5.576,5.576,0,0,0-1.339-.281,12.884,12.884,0,0,0-2.673.078c-.444.054-.886.118-1.327.186-.384.048-.868.111-1.3.155a13.3,13.3,0,0,1-2.52-.04c-.21-.027-.422-.045-.63-.078l-.619-.139-.31-.067c-.1-.029-.2-.067-.3-.1l-.6-.2c-.2-.068-.387-.171-.581-.255a6.164,6.164,0,0,1-.573-.275l-.551-.326-.237-.139-.292-.205c-.189-.138-.406-.278-.569-.411l-.467-.4c-.158-.121-.31-.293-.463-.436a5.738,5.738,0,0,1-.449-.461,12.464,12.464,0,0,1-2.576-4.366,15.558,15.558,0,0,1-.829-4.874c0-.2.007-.4.01-.605l0-.147v-.04l.031-.329q.064-.659.126-1.305a16.3,16.3,0,0,1,1.305-3.96c.334-.6.623-1.186.992-1.71.327-.541.721-1.023,1.064-1.491.183-.228.375-.443.553-.656s.354-.416.539-.605a23.456,23.456,0,0,1,1.962-1.88c.577-.479,1.042-.841,1.355-1.058.159-.116.27-.185.347-.238.048-.032.066-.042.074-.047a2.742,2.742,0,0,0,.611-4.535l-.28-.246c-.006,0-.01,0-.084-.054s-.184-.129-.34-.25c-.308-.224-.763-.6-1.328-1.091a23.574,23.574,0,0,1-1.911-1.932c-.179-.194-.355-.4-.524-.619s-.356-.437-.535-.67c-.33-.478-.71-.969-1.023-1.518a19.73,19.73,0,0,1-.947-1.735,16.425,16.425,0,0,1-1.2-3.993c-.031-.431-.06-.867-.092-1.307l-.023-.33c0-.009,0-.013,0-.017v-.172c0-.2,0-.4,0-.6a15.541,15.541,0,0,1,.956-4.852A12.5,12.5,0,0,1,66,361.16a6.021,6.021,0,0,1,.461-.449c.158-.139.316-.306.476-.421l.477-.384c.168-.131.389-.265.58-.4l.3-.2.241-.132.56-.309a5.207,5.207,0,0,1,.581-.261c.2-.079.387-.177.588-.24l.607-.184c.1-.029.2-.066.3-.091l.312-.06.623-.12c.209-.029.422-.043.633-.065a13.3,13.3,0,0,1,2.52.029c.425.055.909.131,1.291.19.438.077.88.155,1.321.217a12.87,12.87,0,0,0,2.67.151,5.593,5.593,0,0,0,1.346-.25,2.963,2.963,0,0,0,1.228-.737,2.578,2.578,0,0,0,.663-1.229,3.952,3.952,0,0,0,.066-1.24l-.032-.3-.047-.261-.024-.131c-.013-.07-.025-.1-.039-.159a1.792,1.792,0,0,0-.09-.284A3.666,3.666,0,0,0,83.056,352.879ZM61.679,402.572h0S61.678,402.567,61.679,402.572Z" transform="translate(-57.825 -351.497)" fill="#f6c95b"/>
        <path id="Path_2301" data-name="Path 2301" d="M77.1,358.066c.438.077.88.155,1.321.217a12.87,12.87,0,0,0,2.67.151,5.593,5.593,0,0,0,1.346-.25,2.963,2.963,0,0,0,1.228-.737,2.578,2.578,0,0,0,.663-1.229,3.952,3.952,0,0,0,.066-1.24l-.032-.3-.047-.261-.024-.131c-.013-.07-.025-.1-.039-.159a1.792,1.792,0,0,0-.09-.284,3.666,3.666,0,0,0-.554-.968,3.893,3.893,0,0,0-1.59-1.2,2.437,2.437,0,0,0-.913-.182,1.9,1.9,0,0,0-.426.039,2.4,2.4,0,0,0-.416.135,1.946,1.946,0,0,0-1,1.07,1.566,1.566,0,0,0,0,1.158,1.171,1.171,0,0,0,.589.6,1.5,1.5,0,0,0,.5.13l.175.02-.173-.035a1.447,1.447,0,0,1-.474-.169,1.084,1.084,0,0,1-.492-.594,1.393,1.393,0,0,1,.091-1.016,1.648,1.648,0,0,1,.921-.828,2.129,2.129,0,0,1,.326-.076l.2-.012a1.008,1.008,0,0,1,.174.012,1.99,1.99,0,0,1,.72.215,3.324,3.324,0,0,1,1.246,1.132,2.907,2.907,0,0,1,.374.81,1.21,1.21,0,0,1,.047.214l.016.1.012.129.023.266,0,.237a2.06,2.06,0,0,1-.6,1.651,2.812,2.812,0,0,1-1.876.478,11.671,11.671,0,0,1-2.356-.352c-.406-.1-.818-.206-1.24-.322-.479-.119-.869-.215-1.326-.319a15.185,15.185,0,0,0-2.923-.3c-.17,0-.34,0-.509,0a2.213,2.213,0,0,1-1.247.946c-2.838,1.028-10.175,4.907-10.368,14.068s6.422,12.815,5.217,14.021c-.846.848-3.49-1.98-4.984-3.734.28.54.584,1.038.866,1.528.193.307.391.6.58.882s.377.56.572.813a26.829,26.829,0,0,0,1.96,2.392c-.035.035-.067.065-.1.1-.575.6-1.26,1.334-1.96,2.226a2.9,2.9,0,0,1,2.752.178c1.377,1.275-2.988.665-5.122,10.626s5.368,14.384,5.162,15.6c-.056.335-.336.44-.71.418l.279.192c.221.146.417.247.627.372l.31.179.059.035.023.011.044.022.089.041.178.086.711.335a7.655,7.655,0,0,0,.735.276c.247.082.489.181.741.243l.756.18c.127.027.251.06.377.083l.382.05.757.1c.251.016.5.017.752.029a15.172,15.172,0,0,0,2.929-.227c.461-.09.854-.18,1.336-.285.425-.105.839-.2,1.248-.291a11.587,11.587,0,0,1,2.363-.288,2.819,2.819,0,0,1,1.863.525,2.065,2.065,0,0,1,.56,1.67l-.009.234-.03.264-.015.13-.018.1a1.214,1.214,0,0,1-.051.212,2.934,2.934,0,0,1-.4.8,3.34,3.34,0,0,1-1.276,1.1,2.086,2.086,0,0,1-.725.2,1.543,1.543,0,0,1-.175.007l-.2-.019a2.27,2.27,0,0,1-.323-.084,1.651,1.651,0,0,1-.9-.85,1.392,1.392,0,0,1-.065-1.019,1.084,1.084,0,0,1,.507-.581,1.475,1.475,0,0,1,.478-.156l.173-.03-.175.013a1.582,1.582,0,0,0-.5.116,1.181,1.181,0,0,0-.605.586,1.564,1.564,0,0,0-.03,1.158,1.951,1.951,0,0,0,.974,1.1,2.419,2.419,0,0,0,.413.143,2.023,2.023,0,0,0,.425.051,2.464,2.464,0,0,0,.918-.158,3.881,3.881,0,0,0,1.62-1.156,3.649,3.649,0,0,0,.581-.953,1.972,1.972,0,0,0,.1-.282c.015-.055.029-.09.043-.16l.027-.128.053-.259.04-.3a3.991,3.991,0,0,0-.032-1.242,2.557,2.557,0,0,0-.632-1.245,2.972,2.972,0,0,0-1.207-.771,5.576,5.576,0,0,0-1.339-.281,12.884,12.884,0,0,0-2.673.078c-.444.054-.886.118-1.327.186-.384.048-.868.111-1.3.155a13.3,13.3,0,0,1-2.52-.04c-.21-.027-.422-.045-.63-.078l-.619-.139-.31-.067c-.1-.029-.2-.067-.3-.1l-.6-.2c-.2-.068-.387-.171-.581-.255a6.163,6.163,0,0,1-.573-.275l-.551-.326-.237-.139-.292-.205c-.189-.138-.406-.278-.57-.411l-.467-.4c-.158-.121-.31-.293-.463-.436a5.737,5.737,0,0,1-.449-.461,12.464,12.464,0,0,1-2.576-4.366,15.558,15.558,0,0,1-.828-4.874c0-.2.007-.4.01-.605l0-.147v-.04l.031-.329c.043-.44.084-.875.126-1.305a16.3,16.3,0,0,1,1.305-3.96c.334-.6.623-1.186.992-1.71.327-.541.721-1.023,1.064-1.491.183-.228.375-.443.553-.656s.354-.416.539-.605a23.455,23.455,0,0,1,1.962-1.88c.577-.479,1.042-.841,1.355-1.058.159-.116.27-.185.347-.238.048-.032.066-.042.074-.047a2.742,2.742,0,0,0,.611-4.535l-.28-.246c-.006,0-.01,0-.084-.054s-.184-.129-.34-.25c-.308-.224-.763-.6-1.328-1.091a23.574,23.574,0,0,1-1.911-1.932c-.179-.194-.355-.4-.524-.619s-.356-.437-.535-.67c-.33-.478-.71-.969-1.023-1.518a19.728,19.728,0,0,1-.947-1.735,16.425,16.425,0,0,1-1.2-3.993c-.031-.431-.06-.867-.092-1.307l-.023-.33c0-.009,0-.013,0-.017v-.172c0-.2,0-.4,0-.6a15.541,15.541,0,0,1,.956-4.852,12.5,12.5,0,0,1,2.688-4.3,6.02,6.02,0,0,1,.461-.449c.158-.139.316-.306.476-.421l.477-.384c.168-.131.389-.265.58-.4l.3-.2.241-.132.56-.309a5.207,5.207,0,0,1,.581-.261c.2-.079.387-.177.588-.24l.607-.184c.1-.029.2-.066.3-.091l.312-.06.623-.12c.209-.029.422-.043.633-.065a13.3,13.3,0,0,1,2.52.029C76.235,357.932,76.718,358.008,77.1,358.066Z" transform="translate(-58.378 -351.497)" fill="#f6c95b" style="mix-blend-mode: multiply;isolation: isolate"/>
        <g id="Group_6023" data-name="Group 6023" transform="translate(0.33 49.206)" style="mix-blend-mode: screen;isolation: isolate">
          <path id="Path_2302" data-name="Path 2302" d="M58.715,415.917c.35.057.718-.409.822-1.042s-.1-1.193-.445-1.25-.719.409-.823,1.042S58.364,415.859,58.715,415.917Z" transform="translate(-58.241 -413.62)" fill="#f6c95b"/>
          <path id="Path_2303" data-name="Path 2303" d="M59.263,418.844c.253-.065.36-.484.246-.939s-.414-.77-.666-.7-.36.485-.244.937S59.013,418.908,59.263,418.844Z" transform="translate(-58.306 -414.363)" fill="#f6c95b"/>
        </g>
        <g id="Group_6024" data-name="Group 6024" transform="translate(1.193 16.051)" style="mix-blend-mode: screen;isolation: isolate">
          <path id="Path_2304" data-name="Path 2304" d="M59.731,374c.339.105.768-.306.957-.918s.07-1.194-.269-1.3-.768.3-.958.916S59.392,373.891,59.731,374Z" transform="translate(-59.34 -371.762)" fill="#f6c95b"/>
          <path id="Path_2305" data-name="Path 2305" d="M59.9,376.954c.257-.029.424-.429.371-.9s-.3-.819-.562-.79-.423.431-.37.9S59.646,376.984,59.9,376.954Z" transform="translate(-59.331 -372.491)" fill="#f6c95b"/>
        </g>
      </g>
      <g id="Group_6026" data-name="Group 6026" transform="translate(42.824 5.148)">
        <path id="Path_2306" data-name="Path 2306" d="M86.679,418.938l-.608-.476L109.066,389.1l-23-30.639.618-.463,23.355,31.112Z" transform="translate(-86.066 -357.996)" fill="#fff"/>
      </g>
      <g id="Group_6031" data-name="Group 6031" transform="translate(0 29.746)">
        <rect id="Rectangle_368" data-name="Rectangle 368" width="59.451" height="1.286" transform="translate(6.804 5.23)" fill="#f463e5"/>
        <g id="Group_6027" data-name="Group 6027" transform="translate(0 0.772)">
          <path id="Path_2307" data-name="Path 2307" d="M41.635,395.3l1.415-5.275-10.934,5.244H32l.058.027-.042.021H32.1l10.95,5.258Z" transform="translate(-32 -390.025)" fill="#fff"/>
          <path id="Path_2308" data-name="Path 2308" d="M41.669,396.523H32.317l-.2.1H32l.058.027-.042.021H32.1l10.95,5.258-1.415-5.275Z" transform="translate(-32 -391.377)" fill="#6148ec" opacity="0.2"/>
        </g>
        <g id="Group_6030" data-name="Group 6030" transform="translate(51.608)">
          <g id="Group_6028" data-name="Group 6028">
            <path id="Path_2309" data-name="Path 2309" d="M109.811,394.712l5.594-5.661h-12.1l-6.154,5.661Z" transform="translate(-97.156 -389.051)" fill="#f6c95b"/>
            <path id="Path_2310" data-name="Path 2310" d="M113.148,389.051h-6.726l-5.662,5.661h6.727Z" transform="translate(-97.905 -389.051)" fill="#f6c95b" style="mix-blend-mode: multiply;isolation: isolate"/>
          </g>
          <g id="Group_6029" data-name="Group 6029" transform="translate(0 6.176)">
            <path id="Path_2311" data-name="Path 2311" d="M109.811,396.848l5.594,5.662h-12.1l-6.154-5.662Z" transform="translate(-97.156 -396.848)" fill="#f6c95b"/>
            <path id="Path_2312" data-name="Path 2312" d="M111.944,402.51H117.3l-5.594-5.662h-5.426Q109.113,399.678,111.944,402.51Z" transform="translate(-99.054 -396.848)" fill="#f6c95b" style="mix-blend-mode: multiply;isolation: isolate"/>
            <path id="Path_2313" data-name="Path 2313" d="M100.174,396.848H97.156l6.154,5.662h2.526Z" transform="translate(-97.156 -396.848)" fill="#f6c95b" style="mix-blend-mode: multiply;isolation: isolate"/>
          </g>
        </g>
      </g>
    </g>
    <path id="Path_2314" data-name="Path 2314" d="M82.326,367.635l-.844-.64-5.044,1.5.361,1.239,3.26-.968-3.68,5.055-2.107-1.6-.752,1.033,2.107,1.6-1.882,2.585,1.019.772,1.881-2.585,2.107,1.6.752-1.033-2.107-1.6,3.68-5.053L81.109,373,82.376,373Z" transform="translate(-9.964 -4.339)" fill="#fff"/>
  </g>
</svg>
