<svg xmlns="http://www.w3.org/2000/svg" width="80.493" height="80" viewBox="0 0 80.493 80">
  <g id="Group_22368" data-name="Group 22368" transform="translate(-373.401 -195.038)">
    <g id="Group_6296" data-name="Group 6296" transform="translate(373.401 195.038)">
      <g id="Group_6295" data-name="Group 6295">
        <path id="Path_2602" data-name="Path 2602" d="M444.569,216.155a35.725,35.725,0,1,0,6.146,20A35.423,35.423,0,0,0,444.569,216.155Zm-43.352-11.7,1.02,2.456a31.976,31.976,0,0,0-9.858,6.551l-1.885-1.873A34.774,34.774,0,0,1,401.217,204.453Zm-11.2,7.606,1.884,1.872a31.776,31.776,0,0,0-6.552,9.71l-2.469-1.02A34.514,34.514,0,0,1,390.021,212.06Zm-7.39,11.178,2.469,1.02a31.475,31.475,0,0,0-2.316,11.56H380.1A34.084,34.084,0,0,1,382.631,223.238ZM380.1,236.484h2.682a31.5,31.5,0,0,0,2.28,11.469l-2.471,1.011A34.052,34.052,0,0,1,380.1,236.484Zm2.739,13.1,2.471-1.013a31.809,31.809,0,0,0,6.593,9.8l-1.884,1.872A34.508,34.508,0,0,1,382.841,249.585Zm7.652,11.129,1.886-1.873a32,32,0,0,0,9.769,6.511l-1.027,2.454A34.784,34.784,0,0,1,390.494,260.714Zm23.906,9.857a34.6,34.6,0,0,1-12.656-2.513l1.026-2.453a32.025,32.025,0,0,0,11.63,2.3Zm0-66.175a31.991,31.991,0,0,0-11.54,2.266l-1.019-2.455A34.637,34.637,0,0,1,414.4,201.73Zm34.968,31.422h-2.683a31.478,31.478,0,0,0-2.28-11.469l2.484-1.018A34.136,34.136,0,0,1,449.368,235.818Zm-5.91-18.916a34.292,34.292,0,0,1,3.177,5.813l-2.479,1.016a31.792,31.792,0,0,0-6.593-9.8l1.9-1.889A34.618,34.618,0,0,1,443.458,216.9Zm-4.476-5.323-1.892,1.882a32.013,32.013,0,0,0-9.77-6.512l1.023-2.446A34.63,34.63,0,0,1,438.982,211.579Zm-23.914-9.846a34.767,34.767,0,0,1,12.657,2.513L426.7,206.7a31.991,31.991,0,0,0-11.632-2.3Zm0,68.838v-2.664a32.055,32.055,0,0,0,11.541-2.267l1.019,2.456A34.618,34.618,0,0,1,415.068,270.571Zm13.182-2.721-1.019-2.457a32.037,32.037,0,0,0,9.859-6.552l1.884,1.873A34.8,34.8,0,0,1,428.251,267.85Zm11.2-7.607-1.885-1.872a31.805,31.805,0,0,0,6.552-9.712l2.468,1.021A34.511,34.511,0,0,1,439.449,260.243Zm7.389-11.18-2.469-1.02a31.5,31.5,0,0,0,2.316-11.559h2.682A34.087,34.087,0,0,1,446.838,249.063Z" transform="translate(-374.488 -196.151)" fill="#2f267f"/>
        <path id="Path_2603" data-name="Path 2603" d="M413.649,195.038a40,40,0,1,0,40.245,40A40.125,40.125,0,0,0,413.649,195.038Zm0,77.314a37.315,37.315,0,1,1,37.543-37.314A37.43,37.43,0,0,1,413.649,272.352Z" transform="translate(-373.401 -195.038)" fill="#2f267f"/>
      </g>
    </g>
    <g id="Group_6351" data-name="Group 6351" transform="translate(382.524 198.249)">
      <g id="Group_6314" data-name="Group 6314" transform="translate(15.147)">
        <g id="Group_6304" data-name="Group 6304">
          <g id="Group_6302" data-name="Group 6302">
            <g id="Group_6299" data-name="Group 6299">
              <g id="Group_6297" data-name="Group 6297">
                <path id="Path_2604" data-name="Path 2604" d="M418.775,221.29c-.661,2.181-.074,4.287,1.314,4.7s3.049-1.015,3.711-3.2.075-4.288-1.313-4.7S419.438,219.107,418.775,221.29Z" transform="translate(-406.829 -203.028)" fill="#f6c95b"/>
                <path id="Path_2605" data-name="Path 2605" d="M420.789,215.3a2.765,2.765,0,0,0,3.715,1.148,2.729,2.729,0,0,0,.818-3.78,2.764,2.764,0,0,0-3.714-1.149A2.731,2.731,0,0,0,420.789,215.3Z" transform="translate(-407.207 -201.607)" fill="#f6c95b"/>
                <path id="Path_2606" data-name="Path 2606" d="M412.906,206.38s-5.476-3.813-7.845-5.4c1.909-2.127,5.69-2.54,9.085-.817,3.875,1.964,5.779,5.964,4.258,8.93s-5.9,3.782-9.775,1.817c-3.29-1.667-5.152-4.8-4.711-7.522Z" transform="translate(-403.855 -199.092)" fill="#f6c95b"/>
              </g>
              <g id="Group_6298" data-name="Group 6298" transform="translate(15.197 8.854)">
                <path id="Path_2607" data-name="Path 2607" d="M425.814,227.681c2.068-.982,4.188-.86,4.731.272s-.692,2.847-2.762,3.828-4.187.859-4.732-.272S423.745,228.662,425.814,227.681Z" transform="translate(-422.923 -213.752)" fill="#f6c95b"/>
                <path id="Path_2608" data-name="Path 2608" d="M431.168,221.816c.716-1.858,2.185-3.024,3.279-2.607s1.4,2.261.682,4.118-2.187,3.023-3.281,2.606S430.45,223.672,431.168,221.816Z" transform="translate(-424.518 -212.111)" fill="#f6c95b"/>
                <path id="Path_2609" data-name="Path 2609" d="M435.137,210.27c-.028,1.594.484,2.33-.323,3.953-.445.892-1.02,3.229.74,3.118,1.17-.075,2.016-1.744,1.889-3.729A4.352,4.352,0,0,0,435.137,210.27Z" transform="translate(-425.245 -210.27)" fill="#f6c95b"/>
              </g>
            </g>
            <g id="Group_6300" data-name="Group 6300" transform="translate(0.025 4.74)" style="mix-blend-mode: multiply;isolation: isolate">
              <path id="Path_2610" data-name="Path 2610" d="M422.208,218.954a3.1,3.1,0,0,1,1.273-.085,1.872,1.872,0,0,0-.995-.777c-1.387-.417-3.049,1.015-3.712,3.2s-.074,4.287,1.314,4.7a2.6,2.6,0,0,0,2.608-1.112C419.747,224.627,418.818,219.869,422.208,218.954Z" transform="translate(-406.854 -207.768)" fill="#f6c95b"/>
              <path id="Path_2611" data-name="Path 2611" d="M424.611,215.347a2.1,2.1,0,0,1-2.548-1.453l-.029-.105a2.078,2.078,0,0,1,1.416-2.515,2.493,2.493,0,0,0-1.842.245,2.731,2.731,0,0,0-.819,3.781,2.765,2.765,0,0,0,3.715,1.149,2.512,2.512,0,0,0,1.2-1.851A2.045,2.045,0,0,1,424.611,215.347Z" transform="translate(-407.232 -206.349)" fill="#f6c95b"/>
              <path id="Path_2612" data-name="Path 2612" d="M413.625,210.733c-5.031,1.356-8.615-1.8-9.727-5.657-.184,2.615,1.623,5.5,4.737,7.079,3.873,1.965,8.249,1.153,9.775-1.817a5.085,5.085,0,0,0,.314-3.705A7.5,7.5,0,0,1,413.625,210.733Z" transform="translate(-403.886 -205.076)" fill="#f6c95b"/>
            </g>
            <g id="Group_6301" data-name="Group 6301" transform="translate(15.197 8.854)" style="mix-blend-mode: multiply;isolation: isolate">
              <path id="Path_2613" data-name="Path 2613" d="M427.681,227.979a2.759,2.759,0,0,1,2.956.877,1.412,1.412,0,0,0-.091-.9c-.544-1.133-2.664-1.255-4.731-.272s-3.308,2.7-2.762,3.828c.378.786,1.52,1.073,2.873.854A2.936,2.936,0,0,1,427.681,227.979Z" transform="translate(-422.923 -213.752)" fill="#f6c95b"/>
              <path id="Path_2614" data-name="Path 2614" d="M434.749,219.649c.08-.021.152-.023.231-.038a1.351,1.351,0,0,0-.533-.4c-1.094-.417-2.563.748-3.279,2.607s-.414,3.7.681,4.117a2.091,2.091,0,0,0,2.132-.778C432.1,223.907,431.9,220.417,434.749,219.649Z" transform="translate(-424.518 -212.111)" fill="#f6c95b"/>
              <path id="Path_2615" data-name="Path 2615" d="M436.917,212.018a3.831,3.831,0,0,0-1.781-1.748c-.028,1.594.484,2.33-.323,3.953-.445.892-1.02,3.229.74,3.118a1.532,1.532,0,0,0,1.021-.561A3.1,3.1,0,0,1,436.917,212.018Z" transform="translate(-425.245 -210.27)" fill="#f6c95b"/>
            </g>
          </g>
          <g id="Group_6303" data-name="Group 6303" transform="translate(7.098 1.443)" style="mix-blend-mode: screen;isolation: isolate">
            <path id="Path_2616" data-name="Path 2616" d="M416.426,202.644c-.212.333.135.935.779,1.344s1.34.463,1.554.127-.136-.935-.776-1.343S416.641,202.308,416.426,202.644Z" transform="translate(-413.492 -201.229)" fill="#f6c95b"/>
            <path id="Path_2617" data-name="Path 2617" d="M412.792,201.111c-.131.254.16.666.652.916s1,.245,1.131-.011-.16-.668-.652-.916S412.923,200.853,412.792,201.111Z" transform="translate(-412.76 -200.914)" fill="#f6c95b"/>
          </g>
        </g>
        <g id="Group_6313" data-name="Group 6313" transform="translate(20.557 23.38)">
          <g id="Group_6312" data-name="Group 6312">
            <g id="Group_6308" data-name="Group 6308">
              <g id="Group_6307" data-name="Group 6307">
                <g id="Group_6305" data-name="Group 6305" transform="translate(2.129 7.952)">
                  <path id="Path_2618" data-name="Path 2618" d="M436.139,243.781c1.752.591,2.908,1.845,2.581,2.8s-2.013,1.257-3.765.667-2.907-1.846-2.579-2.805S434.389,243.191,436.139,243.781Z" transform="translate(-432.321 -239.652)" fill="#f6c95b"/>
                  <path id="Path_2619" data-name="Path 2619" d="M442.321,243.324c1.466-.672,2.976-.524,3.371.329s-.472,2.089-1.937,2.76-2.977.523-3.372-.33S440.853,244,442.321,243.324Z" transform="translate(-433.938 -239.533)" fill="#f6c95b"/>
                  <path id="Path_2620" data-name="Path 2620" d="M451.04,238.648c-.919.906-1.041,1.617-2.427,2.1-.762.267-2.417,1.3-1.338,2.215.718.611,2.151.121,3.2-1.1A3.491,3.491,0,0,0,451.04,238.648Z" transform="translate(-435.286 -238.648)" fill="#f6c95b"/>
                </g>
                <g id="Group_6306" data-name="Group 6306">
                  <path id="Path_2621" data-name="Path 2621" d="M432.748,236.759c1.66.087,2.966.894,2.919,1.806s-1.438,1.573-3.1,1.484-2.968-.9-2.92-1.8S431.087,236.668,432.748,236.759Z" transform="translate(-429.649 -230.302)" fill="#f6c95b"/>
                  <path id="Path_2622" data-name="Path 2622" d="M438.075,234.765c1.106-.936,2.447-1.171,3-.529s.1,1.924-1,2.858-2.447,1.171-3,.529S436.968,235.7,438.075,234.765Z" transform="translate(-431.109 -229.704)" fill="#f6c95b"/>
                  <path id="Path_2623" data-name="Path 2623" d="M444.549,228.609c-.574,1.005-.5,1.65-1.586,2.405-.594.416-1.777,1.705-.616,2.241.769.355,1.892-.414,2.5-1.723A3.133,3.133,0,0,0,444.549,228.609Z" transform="translate(-432.128 -228.609)" fill="#f6c95b"/>
                </g>
              </g>
            </g>
            <g id="Group_6311" data-name="Group 6311" style="mix-blend-mode: multiply;isolation: isolate">
              <g id="Group_6309" data-name="Group 6309" transform="translate(2.129 7.952)">
                <path id="Path_2624" data-name="Path 2624" d="M434.956,247.265c-1.75-.592-2.907-1.846-2.579-2.805a1.664,1.664,0,0,1,1.463-.926,2.5,2.5,0,0,0,1.124,2.46,2.6,2.6,0,0,0,3.592-.455,1.306,1.306,0,0,1,.165,1.059C438.392,247.557,436.707,247.855,434.956,247.265Z" transform="translate(-432.321 -239.664)" fill="#f6c95b"/>
                <path id="Path_2625" data-name="Path 2625" d="M443.755,246.454c-1.467.671-2.976.523-3.372-.33a1.2,1.2,0,0,1,.01-.942c.039-.057.064-.121.1-.18.051.043.091.088.147.126a2.785,2.785,0,0,0,4.339-2.033,1.222,1.222,0,0,1,.715.6C446.087,244.547,445.22,245.782,443.755,246.454Z" transform="translate(-433.94 -239.573)" fill="#f6c95b"/>
                <path id="Path_2626" data-name="Path 2626" d="M450.478,241.869c-1.051,1.218-2.485,1.708-3.2,1.1a.776.776,0,0,1-.252-1.032c2.112.989,4.181-1.157,3.846-3.1.055-.06.108-.12.171-.183A3.494,3.494,0,0,1,450.478,241.869Z" transform="translate(-435.285 -238.648)" fill="#f6c95b"/>
              </g>
              <g id="Group_6310" data-name="Group 6310">
                <path id="Path_2627" data-name="Path 2627" d="M432.571,240.233c-1.661-.087-2.968-.9-2.92-1.8a1.082,1.082,0,0,1,.344-.694,2.738,2.738,0,0,0,4.986-.1,1.353,1.353,0,0,1,.687,1.113C435.617,239.656,434.229,240.322,432.571,240.233Z" transform="translate(-429.649 -230.486)" fill="#f6c95b"/>
                <path id="Path_2628" data-name="Path 2628" d="M440.071,237.1c-1.1.936-2.447,1.171-3,.529a1.158,1.158,0,0,1-.2-.99,2.863,2.863,0,0,0,3.563-2.729,1.056,1.056,0,0,1,.644.332C441.626,234.888,441.175,236.167,440.071,237.1Z" transform="translate(-431.11 -229.712)" fill="#f6c95b"/>
                <path id="Path_2629" data-name="Path 2629" d="M442.349,233.255a.7.7,0,0,1-.431-.948,2.971,2.971,0,0,0,2.479-3.4c.047-.094.1-.191.154-.294a3.135,3.135,0,0,1,.3,2.923C444.24,232.841,443.118,233.611,442.349,233.255Z" transform="translate(-432.13 -228.609)" fill="#f6c95b"/>
              </g>
            </g>
          </g>
        </g>
      </g>
      <g id="Group_6332" data-name="Group 6332" transform="translate(0 4.838)">
        <g id="Group_6322" data-name="Group 6322">
          <g id="Group_6320" data-name="Group 6320">
            <g id="Group_6317" data-name="Group 6317">
              <g id="Group_6315" data-name="Group 6315" transform="translate(2.98)">
                <path id="Path_2630" data-name="Path 2630" d="M403.284,228.493c2.129.844,3.424,2.611,2.889,3.95s-2.7,1.741-4.83.9-3.424-2.609-2.889-3.948S401.152,227.652,403.284,228.493Z" transform="translate(-390.567 -209.952)" fill="#f6c95b"/>
                <path id="Path_2631" data-name="Path 2631" d="M397.448,226.134a2.632,2.632,0,1,1-3.487-1.713A2.733,2.733,0,0,1,397.448,226.134Z" transform="translate(-389.35 -209.163)" fill="#f6c95b"/>
                <path id="Path_2632" data-name="Path 2632" d="M394.459,214.664s.4-6.634.625-9.464c-2.864.161-5.54,2.847-6.294,6.561-.862,4.238,1.1,8.209,4.386,8.87s6.651-2.241,7.51-6.478c.734-3.6-.575-6.993-2.994-8.344Z" transform="translate(-388.587 -205.2)" fill="#f6c95b"/>
              </g>
              <g id="Group_6316" data-name="Group 6316" transform="translate(0 22.917)">
                <path id="Path_2633" data-name="Path 2633" d="M403.489,238.013c-2.059,1-3.281,2.725-2.727,3.853s2.673,1.231,4.734.232,3.281-2.724,2.727-3.853S405.551,237.013,403.489,238.013Z" transform="translate(-388.053 -234.797)" fill="#f6c95b"/>
                <path id="Path_2634" data-name="Path 2634" d="M396.052,238.5c-1.909-.6-3.741-.18-4.092.931s.911,2.5,2.819,3.092,3.742.179,4.094-.932S397.961,239.093,396.052,238.5Z" transform="translate(-386.28 -234.984)" fill="#f6c95b"/>
                <path id="Path_2635" data-name="Path 2635" d="M384.957,234.133c1.274.97,1.535,1.827,3.315,2.208.98.21,3.179,1.216,2,2.516-.786.863-2.626.483-4.112-.849A4.346,4.346,0,0,1,384.957,234.133Z" transform="translate(-384.848 -234.133)" fill="#f6c95b"/>
              </g>
            </g>
            <g id="Group_6318" data-name="Group 6318" transform="translate(4.455 0.864)" style="mix-blend-mode: multiply;isolation: isolate">
              <path id="Path_2636" data-name="Path 2636" d="M399.31,229.713a3.1,3.1,0,0,0-.86.938,1.865,1.865,0,0,1,.006-1.258c.536-1.339,2.7-1.742,4.83-.9s3.424,2.611,2.889,3.95a2.594,2.594,0,0,1-2.5,1.337C405.31,231.327,402.138,227.644,399.31,229.713Z" transform="translate(-392.043 -210.816)" fill="#f6c95b"/>
              <path id="Path_2637" data-name="Path 2637" d="M395.177,229.139a2.076,2.076,0,0,0,.441-2.887l-.065-.087a2.1,2.1,0,0,0-2.863-.463,2.473,2.473,0,0,1,1.341-1.281,2.761,2.761,0,0,1,3.487,1.713,2.733,2.733,0,0,1-1.406,3.605,2.538,2.538,0,0,1-2.206-.215A2.06,2.06,0,0,0,395.177,229.139Z" transform="translate(-390.895 -210.027)" fill="#f6c95b"/>
              <path id="Path_2638" data-name="Path 2638" d="M396.841,217.38c4.2-3.073,3.943-7.822,1.593-11.089,2.173,1.482,3.325,4.684,2.629,8.089-.86,4.237-4.221,7.138-7.51,6.477a5.152,5.152,0,0,1-3.115-2.062A7.546,7.546,0,0,0,396.841,217.38Z" transform="translate(-390.438 -206.291)" fill="#f6c95b"/>
            </g>
            <g id="Group_6319" data-name="Group 6319" transform="translate(0.001 22.917)" style="mix-blend-mode: multiply;isolation: isolate">
              <path id="Path_2639" data-name="Path 2639" d="M402.564,239.652a2.727,2.727,0,0,0-1.148,2.846,1.44,1.44,0,0,1-.653-.632c-.554-1.128.668-2.853,2.727-3.853s4.181-.9,4.734.231c.385.784-.1,1.851-1.113,2.767A2.966,2.966,0,0,0,402.564,239.652Z" transform="translate(-388.053 -234.797)" fill="#f6c95b"/>
              <path id="Path_2640" data-name="Path 2640" d="M392.12,239.938c-.066.048-.113.1-.173.155a1.315,1.315,0,0,1,.014-.665c.352-1.111,2.184-1.528,4.093-.931s3.173,1.979,2.821,3.091a2.081,2.081,0,0,1-1.939,1.176C397.122,240.521,394.5,238.2,392.12,239.938Z" transform="translate(-386.283 -234.984)" fill="#f6c95b"/>
              <path id="Path_2641" data-name="Path 2641" d="M385.227,236.607a3.807,3.807,0,0,1-.269-2.474c1.274.97,1.535,1.827,3.315,2.208.98.21,3.179,1.216,2,2.516a1.534,1.534,0,0,1-1.076.446A3.128,3.128,0,0,0,385.227,236.607Z" transform="translate(-384.849 -234.133)" fill="#f6c95b"/>
            </g>
          </g>
          <g id="Group_6321" data-name="Group 6321" transform="translate(3.871 4.448)" style="mix-blend-mode: screen;isolation: isolate">
            <path id="Path_2642" data-name="Path 2642" d="M390.586,214.632c.4.042.654.687.575,1.441s-.467,1.332-.865,1.29-.653-.687-.576-1.44S390.187,214.59,390.586,214.632Z" transform="translate(-389.706 -211.609)" fill="#f6c95b"/>
            <path id="Path_2643" data-name="Path 2643" d="M391.681,210.822c.282.057.425.54.316,1.078s-.429.929-.713.873-.425-.539-.316-1.078S391.4,210.764,391.681,210.822Z" transform="translate(-389.954 -210.816)" fill="#f6c95b"/>
          </g>
        </g>
        <g id="Group_6331" data-name="Group 6331" transform="translate(6.646 33.187)">
          <g id="Group_6330" data-name="Group 6330">
            <g id="Group_6326" data-name="Group 6326">
              <g id="Group_6325" data-name="Group 6325">
                <g id="Group_6323" data-name="Group 6323" transform="translate(2.868 4.807)">
                  <path id="Path_2644" data-name="Path 2644" d="M410.1,255.744c-.624,1.731-.354,3.411.6,3.753s2.243-.785,2.868-2.515.353-3.409-.606-3.752S410.721,254.014,410.1,255.744Z" transform="translate(-399.421 -253.168)" fill="#f6c95b"/>
                  <path id="Path_2645" data-name="Path 2645" d="M405.79,260.512c-1.442.722-2.264,1.987-1.838,2.827s1.94.931,3.381.21,2.262-1.99,1.837-2.831S407.232,259.785,405.79,260.512Z" transform="translate(-398.218 -254.593)" fill="#f6c95b"/>
                  <path id="Path_2646" data-name="Path 2646" d="M396.786,264.615c1.284-.152,1.92.2,3.166-.581.684-.426,2.524-1.075,2.577.335.035.939-1.243,1.751-2.856,1.811A3.534,3.534,0,0,1,396.786,264.615Z" transform="translate(-396.786 -255.318)" fill="#f6c95b"/>
                </g>
                <g id="Group_6324" data-name="Group 6324">
                  <path id="Path_2647" data-name="Path 2647" d="M406.629,248.766c-.963,1.346-1.139,2.864-.394,3.4s2.135-.14,3.1-1.487,1.14-2.868.394-3.395S407.592,247.417,406.629,248.766Z" transform="translate(-395.743 -247.099)" fill="#f6c95b"/>
                  <path id="Path_2648" data-name="Path 2648" d="M401.863,251.886c-1.424.28-2.444,1.176-2.282,2s1.453,1.275,2.876,1,2.445-1.176,2.282-2S403.286,251.606,401.863,251.886Z" transform="translate(-394.482 -248.077)" fill="#f6c95b"/>
                  <path id="Path_2649" data-name="Path 2649" d="M393.187,253.293c1.149.179,1.614.633,2.882.262.7-.2,2.45-.322,2.149.913-.2.822-1.5,1.215-2.915.878A3.167,3.167,0,0,1,393.187,253.293Z" transform="translate(-393.187 -248.387)" fill="#f6c95b"/>
                </g>
              </g>
            </g>
            <g id="Group_6329" data-name="Group 6329" transform="translate(0 0.009)" style="mix-blend-mode: multiply;isolation: isolate">
              <g id="Group_6327" data-name="Group 6327" transform="translate(2.868 4.799)">
                <path id="Path_2650" data-name="Path 2650" d="M413.622,256.981c.623-1.729.353-3.409-.606-3.752a1.673,1.673,0,0,0-1.641.563,2.5,2.5,0,0,1,1.24,2.4,2.582,2.582,0,0,1-2.593,2.513,1.315,1.315,0,0,0,.732.787C411.713,259.838,413,258.712,413.622,256.981Z" transform="translate(-399.474 -253.169)" fill="#f6c95b"/>
                <path id="Path_2651" data-name="Path 2651" d="M407.335,263.571c1.442-.725,2.262-1.99,1.837-2.831a1.221,1.221,0,0,0-.749-.577c-.069,0-.136-.025-.2-.036a1.807,1.807,0,0,1,.007.193,2.783,2.783,0,0,1-4.3,2.112,1.21,1.21,0,0,0,.026.929C404.381,264.2,405.894,264.292,407.335,263.571Z" transform="translate(-398.22 -254.616)" fill="#f6c95b"/>
                <path id="Path_2652" data-name="Path 2652" d="M399.672,266.186c1.614-.06,2.891-.872,2.856-1.812a.783.783,0,0,0-.656-.839c-.535,2.26-3.512,2.535-4.836,1.064-.082.007-.164.009-.251.021A3.536,3.536,0,0,0,399.672,266.186Z" transform="translate(-396.786 -255.325)" fill="#f6c95b"/>
              </g>
              <g id="Group_6328" data-name="Group 6328">
                <path id="Path_2653" data-name="Path 2653" d="M409.334,250.677c.964-1.346,1.14-2.868.394-3.395a1.092,1.092,0,0,0-.76-.163,2.717,2.717,0,0,1-3.179,3.819,1.349,1.349,0,0,0,.449,1.225C406.985,252.688,408.373,252.023,409.334,250.677Z" transform="translate(-395.745 -247.11)" fill="#f6c95b"/>
                <path id="Path_2654" data-name="Path 2654" d="M402.457,254.968c1.423-.278,2.445-1.176,2.281-2a1.166,1.166,0,0,0-.652-.774,2.877,2.877,0,0,1-4.367,1.075,1.053,1.053,0,0,0-.138.708C399.746,254.8,401.034,255.246,402.457,254.968Z" transform="translate(-394.482 -248.166)" fill="#f6c95b"/>
                <path id="Path_2655" data-name="Path 2655" d="M398.218,254.468a.7.7,0,0,0-.478-.924,3,3,0,0,1-4.224-.187c-.106-.023-.211-.045-.329-.063a3.167,3.167,0,0,0,2.116,2.053C396.714,255.683,398.02,255.29,398.218,254.468Z" transform="translate(-393.187 -248.396)" fill="#f6c95b"/>
              </g>
            </g>
          </g>
        </g>
      </g>
      <g id="Group_6344" data-name="Group 6344" transform="translate(35.731 39.269)">
        <g id="Group_6339" data-name="Group 6339" transform="translate(0 12.822)">
          <g id="Group_6338" data-name="Group 6338">
            <g id="Group_6335" data-name="Group 6335">
              <g id="Group_6334" data-name="Group 6334">
                <g id="Group_6333" data-name="Group 6333">
                  <path id="Path_2656" data-name="Path 2656" d="M435.035,266.934c1.649,1.84,2.16,4.061,1.141,4.963s-3.182.143-4.831-1.7-2.159-4.06-1.139-4.963S433.388,265.094,435.035,266.934Z" transform="translate(-429.682 -264.857)" fill="#f6c95b"/>
                </g>
              </g>
            </g>
            <g id="Group_6337" data-name="Group 6337" transform="translate(0 0.006)" style="mix-blend-mode: multiply;isolation: isolate">
              <g id="Group_6336" data-name="Group 6336">
                <path id="Path_2657" data-name="Path 2657" d="M431.346,270.2c-1.646-1.839-2.159-4.06-1.139-4.963a2.241,2.241,0,0,1,2.322-.118,3.34,3.34,0,0,0-.327,3.606,3.474,3.474,0,0,0,4.487,1.83,1.749,1.749,0,0,1-.513,1.342C435.157,272.8,432.994,272.042,431.346,270.2Z" transform="translate(-429.682 -264.865)" fill="#f6c95b"/>
              </g>
            </g>
          </g>
        </g>
        <g id="Group_6341" data-name="Group 6341" transform="translate(16.368)">
          <path id="Path_2658" data-name="Path 2658" d="M450.221,248.67c1.174,3.882,3.213,5.166,2.189,9.873-.562,2.585-.357,8.79,4.565,6.816,3.273-1.31,4.37-6.165,2.449-10.842C458.249,251.653,453.885,248.6,450.221,248.67Z" transform="translate(-450.221 -248.669)" fill="#f6c95b"/>
          <g id="Group_6340" data-name="Group 6340" transform="translate(0 0)">
            <path id="Path_2659" data-name="Path 2659" d="M459.424,254.518c1.921,4.677.825,9.532-2.449,10.842-1.84.736-3.019.331-3.75-.6,7.056-4.917,4.068-13.792-2.742-15.341-.091-.244-.186-.475-.263-.745C453.885,248.6,458.249,251.653,459.424,254.518Z" transform="translate(-450.221 -248.669)" fill="#f6c95b" style="mix-blend-mode: multiply;isolation: isolate"/>
          </g>
        </g>
        <g id="Group_6342" data-name="Group 6342" transform="translate(6.671 18.234)">
          <path id="Path_2660" data-name="Path 2660" d="M442.454,271.89c2.1.528,3.545,1.944,3.234,3.166s-2.265,1.779-4.359,1.253-3.544-1.945-3.234-3.166S440.356,271.36,442.454,271.89Z" transform="translate(-438.053 -271.69)" fill="#f6c95b"/>
          <path id="Path_2661" data-name="Path 2661" d="M441.328,276.407c-2.1-.53-3.544-1.945-3.234-3.166a1.635,1.635,0,0,1,.811-.974c.087-.027.169-.073.255-.105.018.086.021.167.046.254.875,3.1,4.425,3.193,6.244,1.513a1.632,1.632,0,0,1,.237,1.224C445.375,276.373,443.423,276.934,441.328,276.407Z" transform="translate(-438.053 -271.788)" fill="#f6c95b" style="mix-blend-mode: multiply;isolation: isolate"/>
        </g>
        <g id="Group_6343" data-name="Group 6343" transform="translate(14.492 17.118)">
          <path id="Path_2662" data-name="Path 2662" d="M450.379,271.1c1.93-1.1,4.022-1.086,4.671.037s-.39,2.929-2.317,4.031-4.021,1.088-4.672-.035S448.446,272.2,450.379,271.1Z" transform="translate(-447.866 -270.281)" fill="#f6c95b"/>
          <path id="Path_2663" data-name="Path 2663" d="M452.736,275.2c-1.93,1.1-4.021,1.088-4.672-.035a1.676,1.676,0,0,1-.1-1.3c.046-.083.073-.173.113-.261a2.4,2.4,0,0,0,.217.157c2.887,1.671,5.573-.793,5.706-3.33a1.7,1.7,0,0,1,1.057.734C455.7,272.287,454.664,274.094,452.736,275.2Z" transform="translate(-447.869 -270.312)" fill="#f6c95b" style="mix-blend-mode: multiply;isolation: isolate"/>
        </g>
      </g>
      <g id="Group_6347" data-name="Group 6347" transform="translate(17.652 19.666)">
        <path id="Path_2664" data-name="Path 2664" d="M426.728,237.118c4.221,9.156,3.886,18.286-.746,20.4s-11.807-3.6-16.026-12.76-3.886-18.286.745-20.4S422.51,227.963,426.728,237.118Z" transform="translate(-406.997 -223.921)" fill="#f6c95b"/>
        <path id="Path_2665" data-name="Path 2665" d="M420.482,251.472c-3.254-.748-5.744-3.212-7.511-5.9a31.573,31.573,0,0,1-4.719-16.77,8.1,8.1,0,0,1,.173-1.663c-2.292,3.723-1.831,10.991,1.532,18.288,4.219,9.156,11.4,14.87,16.026,12.76,2.647-1.206,3.884-4.707,3.676-9.194A10.105,10.105,0,0,1,420.482,251.472Z" transform="translate(-406.999 -224.589)" fill="#f6c95b" style="mix-blend-mode: multiply;isolation: isolate"/>
        <g id="Group_6345" data-name="Group 6345" transform="translate(0.141 0.747)">
          <path id="Path_2666" data-name="Path 2666" d="M418.839,247.31a13.074,13.074,0,0,0,1.817-.726,13.842,13.842,0,0,0,1.669-1.039,12.122,12.122,0,0,0,3.007-3.081,7.825,7.825,0,0,0,1.337-3.75c-.129-.252-.259-.5-.393-.745-.011.132-.024.271-.045.415A7.648,7.648,0,0,1,424.663,242a11.778,11.778,0,0,1-2.943,2.675,13.846,13.846,0,0,1-1.588.888,13.661,13.661,0,0,1-5.537,1.6,9.071,9.071,0,0,1-3.92-.631c-.3-.124-.559-.252-.781-.371.076.188.163.377.243.566.106.069.219.137.341.206a8.773,8.773,0,0,0,4.129,1.042A12.978,12.978,0,0,0,418.839,247.31Z" transform="translate(-407.726 -227.589)" fill="#fff"/>
          <path id="Path_2667" data-name="Path 2667" d="M430.39,261.089a13.376,13.376,0,0,1-1.588.886,12.581,12.581,0,0,1-1.648.752,12.708,12.708,0,0,1-3.889.852,9.724,9.724,0,0,1-1.276-.025,13.165,13.165,0,0,0,1.432.833A13.917,13.917,0,0,0,429.327,263a13.984,13.984,0,0,0,1.669-1.04c.345-.253.725-.567,1.109-.911a11.947,11.947,0,0,0,.4-1.681A12.96,12.96,0,0,1,430.39,261.089Z" transform="translate(-410.182 -232.039)" fill="#fff"/>
          <path id="Path_2668" data-name="Path 2668" d="M407.6,236.811a7.326,7.326,0,0,0,3.472.906,10.9,10.9,0,0,0,3.573-.542,11.231,11.231,0,0,0,1.535-.605,11.749,11.749,0,0,0,1.4-.884,10.162,10.162,0,0,0,2.521-2.61,6.431,6.431,0,0,0,1.1-3.283c-.135-.145-.271-.286-.407-.425-.009.082-.018.164-.031.251a6.408,6.408,0,0,1-1.332,2.989,9.83,9.83,0,0,1-2.457,2.207,11.461,11.461,0,0,1-1.324.729,11.378,11.378,0,0,1-4.592,1.358,7.582,7.582,0,0,1-3.265-.493c-.239-.1-.443-.192-.625-.284.015.149.042.3.06.452C407.347,236.655,407.466,236.733,407.6,236.811Z" transform="translate(-407.174 -225.8)" fill="#fff"/>
          <path id="Path_2669" data-name="Path 2669" d="M414.8,255.59c.023.013.042.028.064.039a8.78,8.78,0,0,0,4.129,1.042,12.966,12.966,0,0,0,4.235-.665,13.2,13.2,0,0,0,1.817-.725,14.037,14.037,0,0,0,1.669-1.041,12.111,12.111,0,0,0,3.006-3.08,8.162,8.162,0,0,0,.9-1.759c-.08-.387-.171-.777-.27-1.171a8.051,8.051,0,0,1-1.3,2.463,11.774,11.774,0,0,1-2.942,2.676,13.927,13.927,0,0,1-1.587.886,12.922,12.922,0,0,1-1.648.752,12.7,12.7,0,0,1-3.89.851,9.032,9.032,0,0,1-3.919-.631c-.3-.124-.555-.25-.777-.367C414.455,255.108,414.626,255.353,414.8,255.59Z" transform="translate(-408.618 -229.723)" fill="#fff"/>
          <path id="Path_2670" data-name="Path 2670" d="M409.166,230.057a9.97,9.97,0,0,0,3.214-.854,10.143,10.143,0,0,0,1.342-.709,10.646,10.646,0,0,0,1.191-.955,9.745,9.745,0,0,0,1.826-2.3c-.259-.139-.514-.263-.77-.377a9.481,9.481,0,0,1-1.757,1.876,10.553,10.553,0,0,1-1.128.794,9.813,9.813,0,0,1-1.172.717,9.711,9.711,0,0,1-2.851,1,7.581,7.581,0,0,1-1.637.109c-.048.2-.083.413-.12.624A7.382,7.382,0,0,0,409.166,230.057Z" transform="translate(-407.201 -224.864)" fill="#fff"/>
        </g>
        <g id="Group_6346" data-name="Group 6346" transform="translate(13.356 7.65)" style="mix-blend-mode: screen;isolation: isolate">
          <path id="Path_2671" data-name="Path 2671" d="M426.338,236.725c-.347.192-.333.885.038,1.549s.953,1.045,1.3.852.331-.886-.037-1.549S426.689,236.533,426.338,236.725Z" transform="translate(-424.229 -234.223)" fill="#f6c95b"/>
          <path id="Path_2672" data-name="Path 2672" d="M423.9,233.631c-.238.163-.18.663.131,1.116s.761.69,1,.528.18-.663-.133-1.116S424.141,233.468,423.9,233.631Z" transform="translate(-423.756 -233.579)" fill="#f6c95b"/>
        </g>
      </g>
      <g id="Group_6350" data-name="Group 6350" transform="translate(16.927 15.383)">
        <g id="Group_6348" data-name="Group 6348" transform="translate(2.766)">
          <path id="Path_2673" data-name="Path 2673" d="M409.559,218.649c.9,1.032,1.644,1.209,2.061,2.7.229.819,1.2,2.633,2.258,1.566.7-.711.284-2.252-.935-3.445A3.761,3.761,0,0,0,409.559,218.649Z" transform="translate(-409.559 -218.514)" fill="#f6c95b"/>
          <path id="Path_2674" data-name="Path 2674" d="M411.7,218.754a3.308,3.308,0,0,0-2.137-.1c.9,1.032,1.644,1.209,2.061,2.7.229.819,1.2,2.633,2.258,1.566a1.294,1.294,0,0,0,.33-.936A2.66,2.66,0,0,1,411.7,218.754Z" transform="translate(-409.559 -218.514)" fill="#f6c95b" style="mix-blend-mode: multiply;isolation: isolate"/>
        </g>
        <g id="Group_6349" data-name="Group 6349" transform="translate(0 0.811)">
          <path id="Path_2675" data-name="Path 2675" d="M407.545,219.537c.261,1.338-.06,2.032.862,3.279.507.685,1.339,2.568-.159,2.733-1,.108-1.957-1.171-2.146-2.859A3.711,3.711,0,0,1,407.545,219.537Z" transform="translate(-406.088 -219.537)" fill="#f6c95b"/>
          <path id="Path_2676" data-name="Path 2676" d="M406.361,221.271a3.259,3.259,0,0,1,1.239-1.734c.261,1.338-.059,2.032.862,3.279.507.685,1.339,2.568-.158,2.733a1.318,1.318,0,0,1-.945-.321A2.647,2.647,0,0,0,406.361,221.271Z" transform="translate(-406.143 -219.537)" fill="#f6c95b" style="mix-blend-mode: multiply;isolation: isolate"/>
        </g>
      </g>
    </g>
    <path id="Path_2677" data-name="Path 2677" d="M424.1,277.681l-1.25-1.815-1.153,1.815h.644a.863.863,0,0,1-.791.822.842.842,0,0,1-.687-.189,2.081,2.081,0,0,1-.5-1.327v-5.427c0-.162,0-.326,0-.489,0-.331.01-.673,0-1.016a1.672,1.672,0,0,0-1.613-1.657,2.23,2.23,0,0,0-1.6.519A1.748,1.748,0,0,0,416,268.4a2.234,2.234,0,0,0-1.637.548,1.994,1.994,0,0,0-1.472-.6,1.942,1.942,0,0,0-1.936,2.06h1.057a.9.9,0,0,1,.9-1.008.761.761,0,0,1,.848.708c.015.311.009.623,0,.954,0,.166-.005.336-.005.5v5.427h1.058v-5.427c0-.162,0-.326,0-.489,0-.3.008-.608,0-.918a1.03,1.03,0,0,1,1.094-.707.623.623,0,0,1,.619.5l-.006.021h.009a1.061,1.061,0,0,1,.017.135c.014.311.009.623,0,.954,0,.166-.006.336-.006.5v5.427h1.058v-5.427c0-.162,0-.326.005-.489,0-.33.01-.673-.005-1.016v-.012a1.057,1.057,0,0,1,1.058-.6.631.631,0,0,1,.64.657c.014.311.009.622,0,.952,0,.168-.006.337-.006.5V277a3.113,3.113,0,0,0,.848,2.1,1.867,1.867,0,0,0,1.27.463,2.138,2.138,0,0,0,.225-.01,1.912,1.912,0,0,0,1.753-1.868Z" transform="translate(-7.626 -15.243)" fill="#fff"/>
  </g>
</svg>
