<svg id="Group_22363" data-name="Group 22363" xmlns="http://www.w3.org/2000/svg" width="80.514" height="80" viewBox="0 0 80.514 80">
  <g id="Group_6134" data-name="Group 6134" transform="translate(0 0)">
    <g id="Group_6133" data-name="Group 6133">
      <path id="Path_2418" data-name="Path 2418" d="M212.661,56.293a35.723,35.723,0,1,0,6.147,20A35.429,35.429,0,0,0,212.661,56.293ZM169.3,44.591l1.02,2.456a32.009,32.009,0,0,0-9.861,6.551l-1.885-1.872A34.746,34.746,0,0,1,169.3,44.591ZM158.1,52.2l1.885,1.872a31.794,31.794,0,0,0-6.553,9.71l-2.469-1.02A34.506,34.506,0,0,1,158.1,52.2Zm-7.391,11.178,2.47,1.022a31.467,31.467,0,0,0-2.317,11.558h-2.682A34.066,34.066,0,0,1,150.706,63.375Zm-2.529,13.247h2.682a31.47,31.47,0,0,0,2.281,11.468L150.668,89.1A34.049,34.049,0,0,1,148.178,76.622Zm2.739,13.1,2.473-1.013a31.788,31.788,0,0,0,6.593,9.8L158.1,100.38A34.534,34.534,0,0,1,150.917,89.722Zm7.655,11.129,1.885-1.872a32.012,32.012,0,0,0,9.772,6.511l-1.027,2.454A34.8,34.8,0,0,1,158.572,100.851Zm23.912,9.857a34.646,34.646,0,0,1-12.661-2.514l1.027-2.454a32.029,32.029,0,0,0,11.634,2.3Zm0-66.175A32.016,32.016,0,0,0,170.941,46.8l-1.02-2.456a34.653,34.653,0,0,1,12.562-2.475Zm34.978,31.421h-2.684A31.476,31.476,0,0,0,212.5,64.487l2.485-1.019A34.114,34.114,0,0,1,217.461,75.955Zm-5.912-18.916a34.283,34.283,0,0,1,3.177,5.814l-2.479,1.015a31.792,31.792,0,0,0-6.593-9.8l1.9-1.888A34.651,34.651,0,0,1,211.549,57.039Zm-4.476-5.322L205.18,53.6a32,32,0,0,0-9.772-6.511l1.024-2.447A34.645,34.645,0,0,1,207.073,51.717Zm-23.92-9.846a34.79,34.79,0,0,1,12.66,2.512l-1.027,2.452a32.028,32.028,0,0,0-11.634-2.3Zm0,68.838v-2.665a32.05,32.05,0,0,0,11.542-2.267l1.02,2.456A34.654,34.654,0,0,1,183.153,110.709Zm13.185-2.722-1.02-2.456a32.022,32.022,0,0,0,9.862-6.551l1.885,1.872A34.792,34.792,0,0,1,196.338,107.986Zm11.2-7.606-1.885-1.873a31.779,31.779,0,0,0,6.553-9.71l2.469,1.021A34.529,34.529,0,0,1,207.539,100.38ZM214.929,89.2l-2.469-1.02a31.473,31.473,0,0,0,2.317-11.559h2.682A34.056,34.056,0,0,1,214.929,89.2Z" transform="translate(-142.562 -36.289)" fill="#2f267f"/>
      <path id="Path_2419" data-name="Path 2419" d="M181.733,35.176a40,40,0,1,0,40.257,40A40.129,40.129,0,0,0,181.733,35.176Zm0,77.314a37.315,37.315,0,1,1,37.553-37.315A37.436,37.436,0,0,1,181.733,112.49Z" transform="translate(-141.476 -35.176)" fill="#2f267f"/>
    </g>
  </g>
  <g id="Group_6172" data-name="Group 6172" transform="translate(5.567 6.558)">
    <g id="Group_6135" data-name="Group 6135" transform="translate(15.528 46.484)">
      <path id="Path_2420" data-name="Path 2420" d="M187.067,120.869a32.432,32.432,0,0,0,10.521-1.665,30.526,30.526,0,0,0,4.164-1.721c.453-.227,4.776-2.469,4.637-2.841-2.69-7.261-10.306-12.5-19.29-12.5-8.839,0-16.357,5.069-19.16,12.149-.116.292,3.507,2.339,3.884,2.549q1.021.569,2.084,1.063a32.51,32.51,0,0,0,13.16,2.966Z" transform="translate(-167.938 -102.143)" fill="#f463e5"/>
      <path id="Path_2421" data-name="Path 2421" d="M171.824,116.841c.367.205.748.383,1.122.573a25.309,25.309,0,0,1,29.67-.38c1.388-.735,3.879-2.107,3.773-2.391-2.69-7.261-10.306-12.5-19.29-12.5-8.839,0-16.357,5.069-19.16,12.149C167.825,114.584,171.448,116.631,171.824,116.841Z" transform="translate(-167.938 -102.143)" fill="#f463e5" style="mix-blend-mode: multiply;isolation: isolate"/>
    </g>
    <g id="Group_6162" data-name="Group 6162" transform="translate(7.426 21.413)">
      <path id="Path_2422" data-name="Path 2422" d="M195.836,70.49H178.682c-6.993,5.566-10.673,17.2-7.088,24.72,1.494,3.132,4.282,2.688,6.392,4.943,4.008,4.28,5.2,8.312,9.269,8.349h.006c4.066-.037,5.261-4.069,9.269-8.349,2.111-2.255,4.9-1.811,6.392-4.943C206.509,87.691,202.829,76.056,195.836,70.49Z" transform="translate(-160.295 -70.49)" fill="#f463e5"/>
      <g id="Group_6155" data-name="Group 6155" transform="translate(9.96 7.671)">
        <g id="Group_6145" data-name="Group 6145">
          <g id="Group_6144" data-name="Group 6144">
            <g id="Group_6143" data-name="Group 6143">
              <g id="Group_6138" data-name="Group 6138" transform="translate(0 10.931)">
                <g id="Group_6137" data-name="Group 6137">
                  <g id="Group_6136" data-name="Group 6136">
                    <path id="Path_2423" data-name="Path 2423" d="M174.335,93.976a16.315,16.315,0,0,0-4.066.845,14.81,14.81,0,0,0,1.339,5.272c1.494,3.132,4.282,2.688,6.392,4.943.659.7,1.237,1.4,1.77,2.074a7.668,7.668,0,0,0-5.436-13.134Z" transform="translate(-170.269 -93.976)" fill="#ffe031" opacity="0.4" style="mix-blend-mode: screen;isolation: isolate"/>
                    <path id="Path_2424" data-name="Path 2424" d="M177.394,96.161c-.077.315-.628.452-1.233.308s-1.033-.519-.956-.835.628-.453,1.234-.307S177.472,95.846,177.394,96.161Z" transform="translate(-171.268 -94.245)" fill="#fad0bf" style="mix-blend-mode: screen;isolation: isolate"/>
                  </g>
                </g>
              </g>
              <g id="Group_6141" data-name="Group 6141" transform="translate(2.397 8.133)">
                <g id="Group_6140" data-name="Group 6140">
                  <g id="Group_6139" data-name="Group 6139">
                    <path id="Path_2425" data-name="Path 2425" d="M179.073,93.5a5.216,5.216,0,0,1-2.9-3.053l-2.9.691a13.863,13.863,0,0,0,.9,1.092,8.131,8.131,0,0,1,1.62-.034c-.1.067-.614.472-.949.74,2.231,2.2,6.349,4.878,8.988-1.723C183.831,91.209,181.279,94.347,179.073,93.5Z" transform="translate(-173.276 -90.443)" fill="#2f267f"/>
                  </g>
                </g>
              </g>
              <g id="Group_6142" data-name="Group 6142" transform="translate(7.623)">
                <path id="Path_2426" data-name="Path 2426" d="M183.935,80.912c.152.623-.64,1.349-1.766,1.621s-2.167-.01-2.319-.634.64-1.349,1.766-1.62S183.783,80.289,183.935,80.912Z" transform="translate(-179.832 -80.175)" fill="#2f267f"/>
              </g>
            </g>
          </g>
        </g>
        <g id="Group_6154" data-name="Group 6154" transform="translate(21.055)">
          <g id="Group_6153" data-name="Group 6153">
            <g id="Group_6148" data-name="Group 6148" transform="translate(1.159 10.931)">
              <g id="Group_6147" data-name="Group 6147">
                <g id="Group_6146" data-name="Group 6146">
                  <path id="Path_2427" data-name="Path 2427" d="M205.863,93.976a16.328,16.328,0,0,1,4.067.845,14.828,14.828,0,0,1-1.341,5.272c-1.493,3.132-4.281,2.688-6.392,4.943-.66.7-1.237,1.4-1.77,2.074a7.668,7.668,0,0,1,5.436-13.134Z" transform="translate(-198.136 -93.976)" fill="#ffe031" opacity="0.4" style="mix-blend-mode: screen;isolation: isolate"/>
                  <path id="Path_2428" data-name="Path 2428" d="M205.244,96.161c.076.315.629.452,1.232.308s1.034-.519.957-.835-.628-.453-1.234-.307S205.166,95.846,205.244,96.161Z" transform="translate(-199.576 -94.245)" fill="#fad0bf" style="mix-blend-mode: screen;isolation: isolate"/>
                </g>
              </g>
            </g>
            <g id="Group_6151" data-name="Group 6151" transform="translate(0 8.133)">
              <g id="Group_6150" data-name="Group 6150">
                <g id="Group_6149" data-name="Group 6149">
                  <path id="Path_2429" data-name="Path 2429" d="M201.44,93.5a5.216,5.216,0,0,0,2.9-3.053l2.9.691a13.858,13.858,0,0,1-.9,1.092,8.123,8.123,0,0,0-1.619-.034c.1.067.614.472.949.74-2.231,2.2-6.349,4.878-8.988-1.723C196.682,91.209,199.233,94.347,201.44,93.5Z" transform="translate(-196.682 -90.443)" fill="#2f267f"/>
                </g>
              </g>
            </g>
            <g id="Group_6152" data-name="Group 6152" transform="translate(1.207)">
              <path id="Path_2430" data-name="Path 2430" d="M198.215,80.912c-.152.623.64,1.349,1.766,1.621s2.167-.01,2.319-.634-.64-1.349-1.766-1.62S198.368,80.289,198.215,80.912Z" transform="translate(-198.197 -80.175)" fill="#2f267f"/>
            </g>
          </g>
        </g>
      </g>
      <g id="Group_6158" data-name="Group 6158" transform="translate(18.348 28.148)">
        <g id="Group_6156" data-name="Group 6156">
          <path id="Path_2431" data-name="Path 2431" d="M198.018,110.044a4.308,4.308,0,0,0-.975-2.825c-1.9-2.549-5.152-.207-7.635-.263-2.484.056-5.736-2.286-7.637.263a4.311,4.311,0,0,0-.974,2.825c.183,3.453,5.409,5.939,8.608,5.994h.006C192.608,115.983,197.834,113.5,198.018,110.044Z" transform="translate(-180.792 -106.028)" fill="#fff"/>
        </g>
        <g id="Group_6157" data-name="Group 6157" transform="translate(2.958 3.049)">
          <path id="Path_2432" data-name="Path 2432" d="M186.911,110.126c-1.1-.413-2.165-.3-2.373.246s.518,1.327,1.621,1.739,2.165.3,2.373-.246S188.014,110.54,186.911,110.126Z" transform="translate(-184.503 -109.877)" fill="#6148ec"/>
          <path id="Path_2433" data-name="Path 2433" d="M197.627,110.372c-.208-.548-1.27-.658-2.373-.246s-1.829,1.191-1.621,1.739,1.269.657,2.372.246S197.834,110.919,197.627,110.372Z" transform="translate(-186.347 -109.877)" fill="#6148ec"/>
        </g>
      </g>
      <g id="Group_6161" data-name="Group 6161" transform="translate(0 8.905)">
        <g id="Group_6159" data-name="Group 6159">
          <path id="Path_2434" data-name="Path 2434" d="M170.48,81.733s-14.509,3.675-12.518,9.895S168.773,89.649,170.48,81.733Z" transform="translate(-157.775 -81.733)" fill="#f463e5"/>
          <path id="Path_2435" data-name="Path 2435" d="M169,84.992s-8.337,2.277-7.193,6.131S168.02,89.9,169,84.992Z" transform="translate(-158.571 -82.411)" fill="#2f267f"/>
        </g>
        <g id="Group_6160" data-name="Group 6160" transform="translate(41.681)">
          <path id="Path_2436" data-name="Path 2436" d="M210.061,81.733s14.51,3.675,12.519,9.895S211.769,89.649,210.061,81.733Z" transform="translate(-210.061 -81.733)" fill="#f463e5"/>
          <path id="Path_2437" data-name="Path 2437" d="M212.917,84.992s8.336,2.277,7.192,6.131S213.9,89.9,212.917,84.992Z" transform="translate(-210.64 -82.411)" fill="#2f267f"/>
        </g>
      </g>
    </g>
    <g id="Group_6171" data-name="Group 6171">
      <g id="Group_6166" data-name="Group 6166">
        <g id="Group_6163" data-name="Group 6163">
          <path id="Path_2438" data-name="Path 2438" d="M174.521,64.657s-13.961,2.332-17.169-4.665,4.337-14.841,5.57-16.537c0,0-12.344,4.452-14.318,16.537S165.39,75.47,169.832,74.835C169.832,74.835,177.975,71.229,174.521,64.657Z" transform="translate(-148.459 -43.456)" fill="#f6c95b"/>
        </g>
        <path id="Path_2439" data-name="Path 2439" d="M166.744,71.064a13.517,13.517,0,0,1-5.017-26.116c.538-.672.971-1.184,1.195-1.491,0,0-12.344,4.452-14.318,16.537S165.39,75.47,169.832,74.835c0,0,5.446-2.413,5.539-6.89A13.58,13.58,0,0,1,166.744,71.064Z" transform="translate(-148.459 -43.456)" fill="#f6c95b" opacity="0.5" style="mix-blend-mode: multiply;isolation: isolate"/>
        <g id="Group_6164" data-name="Group 6164" transform="translate(0.08 7.186)">
          <path id="Path_2440" data-name="Path 2440" d="M149.15,64.875a16.1,16.1,0,0,0,2.266.4l1.2.127a2.633,2.633,0,0,0,.44,0l1.162-.1a13.114,13.114,0,0,0,1.6-.406,8.967,8.967,0,0,0,1.549-.783c-.117-.257-.216-.516-.305-.775h0a7.329,7.329,0,0,1-1.539.651,13.563,13.563,0,0,1-1.433.261l-1.034.028a2.2,2.2,0,0,1-.392-.024l-1.1-.063-.04,0a15.346,15.346,0,0,1-2.842-.364c-.018.1-.041.2-.058.3-.032.2-.044.383-.065.575C148.759,64.765,148.958,64.824,149.15,64.875Z" transform="translate(-148.56 -54.776)" fill="#fff"/>
          <path id="Path_2441" data-name="Path 2441" d="M152.163,65.791l-.024,0-.015,0Z" transform="translate(-149.283 -55.285)" fill="#fff"/>
          <path id="Path_2442" data-name="Path 2442" d="M174.229,71.063a7.127,7.127,0,0,1-.646,3.169,4.485,4.485,0,0,1-.5.951l-.216.35-.2.363c-.153.215-.371.524-.633.9s-.646.741-1.028,1.167a12.784,12.784,0,0,1-1.389,1.135,9.964,9.964,0,0,1-1.625.98c.4.074.785.143,1.161.2a8.734,8.734,0,0,0,.911-.5,12.547,12.547,0,0,0,1.59-1.113c.446-.429.886-.818,1.205-1.2l.753-.943.244-.388.218-.4a5.142,5.142,0,0,0,.5-1.1,7.748,7.748,0,0,0,.473-3.6c-.011-.13-.034-.252-.05-.379-.253.011-.515.02-.784.027C174.217,70.8,174.228,70.933,174.229,71.063Z" transform="translate(-152.502 -56.295)" fill="#fff"/>
          <path id="Path_2443" data-name="Path 2443" d="M154.114,53.883a9.069,9.069,0,0,0,1.1.587,9.36,9.36,0,0,0,1.195.363,10.67,10.67,0,0,0,1.6.252q.128-.446.283-.882a10.692,10.692,0,0,1-1.6-.39,9.228,9.228,0,0,1-1.044-.406,8.588,8.588,0,0,1-1.013-.442,8.211,8.211,0,0,1-.727-.437q-.311.374-.611.768A8.955,8.955,0,0,0,154.114,53.883Z" transform="translate(-149.523 -52.528)" fill="#fff"/>
          <path id="Path_2444" data-name="Path 2444" d="M156.178,75.947a13.131,13.131,0,0,0,3.581-1.127,8.533,8.533,0,0,0,1.092-.605l.407-.246s.136-.109.367-.307a9.465,9.465,0,0,0,.927-.852,9.586,9.586,0,0,0,1.975-3.044c-.273-.072-.544-.153-.81-.238a9.062,9.062,0,0,1-1.915,2.528,8.654,8.654,0,0,1-.878.72c-.217.168-.344.26-.344.26l-.356.241a8.157,8.157,0,0,1-.962.606,13.091,13.091,0,0,1-3.238,1.266,15,15,0,0,1-1.814.258q.439.328.9.632C155.465,76.02,155.82,75.991,156.178,75.947Z" transform="translate(-149.706 -56.063)" fill="#fff"/>
        </g>
        <g id="Group_6165" data-name="Group 6165" transform="translate(10.11 20.602)" style="mix-blend-mode: screen;isolation: isolate">
          <path id="Path_2445" data-name="Path 2445" d="M165.948,72.171c.165-.51,1.1-.676,2.085-.364s1.654.981,1.488,1.5-1.1.676-2.084.367S165.783,72.686,165.948,72.171Z" transform="translate(-162.111 -69.92)" fill="#f6c95b"/>
          <path id="Path_2446" data-name="Path 2446" d="M161.173,69.775c.152-.356.839-.414,1.528-.123s1.126.821.973,1.18-.839.415-1.529.123S161.018,70.134,161.173,69.775Z" transform="translate(-161.142 -69.466)" fill="#f6c95b"/>
        </g>
      </g>
      <g id="Group_6170" data-name="Group 6170" transform="translate(42.463)">
        <g id="Group_6167" data-name="Group 6167">
          <path id="Path_2447" data-name="Path 2447" d="M202.581,64.657s13.961,2.332,17.169-4.665-4.337-14.841-5.57-16.537c0,0,12.344,4.452,14.318,16.537S211.712,75.47,207.271,74.835C207.271,74.835,199.127,71.229,202.581,64.657Z" transform="translate(-201.727 -43.456)" fill="#f6c95b"/>
        </g>
        <path id="Path_2448" data-name="Path 2448" d="M210.359,71.064a13.517,13.517,0,0,0,5.017-26.116c-.538-.672-.971-1.184-1.195-1.491,0,0,12.344,4.452,14.318,16.537S211.713,75.47,207.272,74.835c0,0-5.446-2.413-5.539-6.89A13.578,13.578,0,0,0,210.359,71.064Z" transform="translate(-201.728 -43.456)" fill="#f6c95b" opacity="0.5" style="mix-blend-mode: multiply;isolation: isolate"/>
        <g id="Group_6168" data-name="Group 6168" transform="translate(4.256 7.186)">
          <path id="Path_2449" data-name="Path 2449" d="M232.56,64.875a16.109,16.109,0,0,1-2.266.4l-1.2.127a2.627,2.627,0,0,1-.44,0l-1.162-.1a13.114,13.114,0,0,1-1.6-.406,8.967,8.967,0,0,1-1.549-.783c.117-.257.216-.516.306-.775h0a7.33,7.33,0,0,0,1.539.651,13.6,13.6,0,0,0,1.432.261l1.034.028a2.2,2.2,0,0,0,.392-.024l1.1-.063.04,0a15.347,15.347,0,0,0,2.842-.364c.018.1.042.2.058.3.033.2.044.383.065.575C232.951,64.765,232.753,64.824,232.56,64.875Z" transform="translate(-210.57 -54.776)" fill="#fff"/>
          <path id="Path_2450" data-name="Path 2450" d="M231.778,65.791l.025,0,.014,0Z" transform="translate(-212.079 -55.285)" fill="#fff"/>
          <path id="Path_2451" data-name="Path 2451" d="M207.919,71.063a7.127,7.127,0,0,0,.646,3.169,4.485,4.485,0,0,0,.5.951l.216.35s.073.131.2.363l.633.9c.269.365.646.741,1.028,1.167a12.79,12.79,0,0,0,1.389,1.135,9.969,9.969,0,0,0,1.625.98c-.4.074-.785.143-1.161.2a8.734,8.734,0,0,1-.911-.5,12.545,12.545,0,0,1-1.59-1.113c-.446-.429-.886-.818-1.205-1.2l-.753-.943-.244-.388-.218-.4a5.18,5.18,0,0,1-.5-1.1,7.748,7.748,0,0,1-.474-3.6c.011-.13.034-.252.05-.379.253.011.515.02.784.027C207.931,70.8,207.92,70.933,207.919,71.063Z" transform="translate(-207.066 -56.295)" fill="#fff"/>
          <path id="Path_2452" data-name="Path 2452" d="M228.567,53.883a9.067,9.067,0,0,1-1.1.587,9.306,9.306,0,0,1-1.195.363,10.652,10.652,0,0,1-1.6.252q-.128-.446-.283-.882a10.692,10.692,0,0,0,1.6-.39,9.23,9.23,0,0,0,1.044-.406,8.585,8.585,0,0,0,1.013-.442,8.209,8.209,0,0,0,.727-.437q.311.374.611.768A8.961,8.961,0,0,1,228.567,53.883Z" transform="translate(-210.578 -52.528)" fill="#fff"/>
          <path id="Path_2453" data-name="Path 2453" d="M225.148,75.947a13.131,13.131,0,0,1-3.581-1.127,8.531,8.531,0,0,1-1.092-.605l-.407-.246s-.136-.109-.367-.307a9.459,9.459,0,0,1-.927-.852,9.584,9.584,0,0,1-1.975-3.044c.274-.072.544-.153.81-.238a9.064,9.064,0,0,0,1.915,2.528,8.657,8.657,0,0,0,.878.72c.217.168.344.26.344.26l.356.241a8.157,8.157,0,0,0,.962.606,13.089,13.089,0,0,0,3.238,1.266,15,15,0,0,0,1.814.258c-.293.219-.592.43-.9.632C225.861,76.02,225.506,75.991,225.148,75.947Z" transform="translate(-209.04 -56.063)" fill="#fff"/>
        </g>
        <g id="Group_6169" data-name="Group 6169" transform="translate(9.371 20.602)" style="mix-blend-mode: screen;isolation: isolate">
          <path id="Path_2454" data-name="Path 2454" d="M217.081,72.171c-.165-.51-1.1-.676-2.085-.364s-1.654.981-1.488,1.5,1.1.676,2.084.367S217.246,72.686,217.081,72.171Z" transform="translate(-213.483 -69.92)" fill="#f6c95b"/>
          <path id="Path_2455" data-name="Path 2455" d="M222.125,69.775c-.151-.356-.838-.414-1.527-.123s-1.126.821-.973,1.18.839.415,1.529.123S222.281,70.134,222.125,69.775Z" transform="translate(-214.722 -69.466)" fill="#f6c95b"/>
        </g>
      </g>
    </g>
  </g>
  <path id="Path_2456" data-name="Path 2456" d="M193.185,54.035h0a1.528,1.528,0,0,1,1.531-1.482v-.612a2.142,2.142,0,0,0-2.148,2.09h0a1.548,1.548,0,0,1-3.062,0h0a2.143,2.143,0,0,0-2.148-2.094v.612a1.528,1.528,0,0,1,1.531,1.478h0a2.14,2.14,0,0,0,1.95,2.085,3.555,3.555,0,1,0,.345,0A2.141,2.141,0,0,0,193.185,54.035Zm.332,5.6a2.53,2.53,0,1,1-2.53-2.514A2.522,2.522,0,0,1,193.518,59.634Z" transform="translate(-150.784 -38.662)" fill="#f6c95b"/>
</svg>
