<svg xmlns="http://www.w3.org/2000/svg" width="80.471" height="80" viewBox="0 0 80.471 80">
  <g id="Group_22356" data-name="Group 22356" transform="translate(-141.062 -194.608)">
    <g id="Group_5956" data-name="Group 5956" transform="translate(141.062 194.608)">
      <g id="Group_5914" data-name="Group 5914" transform="translate(0 0.339)">
        <g id="Group_5913" data-name="Group 5913">
          <path id="Path_2195" data-name="Path 2195" d="M212.213,216.088A35.548,35.548,0,1,0,218.356,236,35.181,35.181,0,0,0,212.213,216.088Zm-43.339-11.652,1.019,2.446a31.987,31.987,0,0,0-9.856,6.523l-1.885-1.865A34.762,34.762,0,0,1,168.873,204.436Zm-11.195,7.574,1.883,1.865a31.641,31.641,0,0,0-6.549,9.669l-2.468-1.016A34.369,34.369,0,0,1,157.678,212.01Zm-7.387,11.131,2.468,1.016a31.241,31.241,0,0,0-2.315,11.51h-2.681A33.819,33.819,0,0,1,150.291,223.141Zm-2.528,13.19h2.681a31.259,31.259,0,0,0,2.279,11.421l-2.471,1.007A33.8,33.8,0,0,1,147.763,236.331Zm2.738,13.045,2.471-1.009a31.684,31.684,0,0,0,6.591,9.757l-1.884,1.865A34.389,34.389,0,0,1,150.5,249.376Zm7.65,11.081,1.885-1.865a32,32,0,0,0,9.767,6.483l-1.026,2.443A34.774,34.774,0,0,1,158.152,260.458Zm23.9,9.816a34.723,34.723,0,0,1-12.654-2.5l1.026-2.443a32.129,32.129,0,0,0,11.628,2.293Zm0-65.895a32.085,32.085,0,0,0-11.536,2.257l-1.02-2.445a34.747,34.747,0,0,1,12.556-2.466Zm34.959,31.289h-2.683a31.232,31.232,0,0,0-2.28-11.42l2.484-1.014A33.864,33.864,0,0,1,217.01,235.668ZM211.1,216.831a34.059,34.059,0,0,1,3.176,5.788l-2.478,1.011a31.648,31.648,0,0,0-6.591-9.756l1.9-1.881A34.5,34.5,0,0,1,211.1,216.831Zm-4.474-5.3-1.892,1.874a32.011,32.011,0,0,0-9.767-6.484l1.024-2.436A34.65,34.65,0,0,1,206.628,211.531Zm-23.908-9.8a34.885,34.885,0,0,1,12.654,2.5l-1.026,2.442a32.081,32.081,0,0,0-11.628-2.293Zm0,68.546v-2.652a32.144,32.144,0,0,0,11.536-2.257l1.02,2.446A34.73,34.73,0,0,1,182.721,270.273Zm13.178-2.709-1.019-2.447a32.031,32.031,0,0,0,9.856-6.524l1.883,1.865A34.789,34.789,0,0,1,195.9,267.564Zm11.195-7.575-1.884-1.865a31.655,31.655,0,0,0,6.55-9.67l2.467,1.017A34.371,34.371,0,0,1,207.094,259.989Zm7.387-11.133-2.467-1.015a31.261,31.261,0,0,0,2.315-11.51h2.681A33.807,33.807,0,0,1,214.48,248.856Z" transform="translate(-142.15 -196.169)" fill="#f6c95b"/>
          <path id="Path_2196" data-name="Path 2196" d="M181.3,195.038a39.832,39.832,0,1,0,40.234,39.83A40.035,40.035,0,0,0,181.3,195.038Zm0,76.986a37.158,37.158,0,1,1,37.533-37.156A37.346,37.346,0,0,1,181.3,272.024Z" transform="translate(-141.062 -195.038)" fill="#f6c95b"/>
        </g>
      </g>
      <path id="Path_2197" data-name="Path 2197" d="M166.284,227.162s.075-.152.233-.435.4-.685.758-1.178a19.17,19.17,0,0,1,1.383-1.693l.949-.964c.349-.325.738-.642,1.134-.988l1.315-.984c.473-.313.982-.609,1.5-.929.534-.284,1.095-.557,1.664-.847.582-.259,1.2-.473,1.817-.717.627-.218,1.284-.377,1.941-.572s1.348-.272,2.034-.4a17.9,17.9,0,0,1,2.092-.224l1.057-.08,1.06.014c.709.032,1.406,0,2.122.092l2.036.2a37.735,37.735,0,0,1,4,.76,19.133,19.133,0,0,1,1.865.524c.609.176,1.186.4,1.748.626a16.325,16.325,0,0,1,1.611.7c.517.233.991.513,1.448.775a17.06,17.06,0,0,1,2.353,1.633c.326.274.62.545.886.8.25.271.492.5.685.741a7.34,7.34,0,0,1,1.076,1.561,4.052,4.052,0,0,0-.31-.382,10.815,10.815,0,0,0-.986-.965,16.214,16.214,0,0,0-1.707-1.279,21.156,21.156,0,0,0-2.417-1.324c-.459-.21-.932-.435-1.449-.614-.507-.2-1.028-.405-1.586-.564-.551-.177-1.115-.359-1.711-.489s-1.186-.319-1.812-.42c-1.241-.276-2.527-.413-3.834-.6l-2.038-.175c-.646-.077-1.331-.035-2-.062l-1-.028-1,.064a16.822,16.822,0,0,0-1.974.183c-.644.122-1.3.171-1.923.325s-1.248.284-1.846.465l-1.742.6-1.625.7-1.483.782-1.338.824-1.178.844q-.54.433-1.021.822c-.618.544-1.145,1.039-1.558,1.468s-.723.782-.926,1.031S166.284,227.162,166.284,227.162Z" transform="translate(-146.189 -199.371)" fill="#f463e5"/>
      <g id="Group_5955" data-name="Group 5955" transform="translate(19.659)">
        <path id="Path_2198" data-name="Path 2198" d="M189.746,282.991v-.138a32.222,32.222,0,0,0,9.724-1.608,10.791,10.791,0,0,0-21.123-.351h0a32.1,32.1,0,0,0,10.73,1.959v.173Z" transform="translate(-168.3 -211.062)" fill="#f463e5"/>
        <path id="Path_2199" data-name="Path 2199" d="M189.551,278.147a13.606,13.606,0,0,1,8.946,3.4q.49-.142.974-.3a10.791,10.791,0,0,0-21.123-.351c.718.263,1.45.5,2.191.71A13.612,13.612,0,0,1,189.551,278.147Z" transform="translate(-168.3 -211.062)" fill="#f463e5" style="mix-blend-mode: multiply;isolation: isolate"/>
        <g id="Group_5954" data-name="Group 5954">
          <g id="Group_5941" data-name="Group 5941" transform="translate(0.325 18.637)">
            <g id="Group_5915" data-name="Group 5915" transform="translate(15.595 34.065)">
              <path id="Path_2200" data-name="Path 2200" d="M195,273.291s-.97,2.127-4.594,2.127-4.683-2.127-4.683-2.127V263.026H195Z" transform="translate(-185.718 -261.765)" fill="#fff"/>
              <path id="Path_2201" data-name="Path 2201" d="M185.718,267.131a15.617,15.617,0,0,0,4.466.631,16.123,16.123,0,0,0,4.811-.719v-5.616h-9.277Z" transform="translate(-185.718 -261.427)" fill="#f463e5" opacity="0.2" style="mix-blend-mode: multiply;isolation: isolate"/>
            </g>
            <g id="Group_5940" data-name="Group 5940">
              <g id="Group_5934" data-name="Group 5934">
                <g id="Group_5933" data-name="Group 5933">
                  <g id="Group_5920" data-name="Group 5920" transform="translate(0 18.857)">
                    <path id="Path_2202" data-name="Path 2202" d="M172.425,242.562s-4.764-1.883-6.063,2.357,3.513,9.58,6.52,7.9S173.951,243.405,172.425,242.562Z" transform="translate(-166.144 -242.145)" fill="#fff"/>
                    <path id="Path_2203" data-name="Path 2203" d="M172.788,242.587a7.028,7.028,0,0,0-1.268-.326,6.65,6.65,0,0,1,.3,1.643q-.115,1.012-.227,2.024a20.274,20.274,0,0,1-.836,1.912,8.3,8.3,0,0,1-2.828,2.71c1.429,2,3.646,3.225,5.313,2.3C176.255,251.168,174.315,243.43,172.788,242.587Z" transform="translate(-166.507 -242.17)" fill="#f463e5" opacity="0.2" style="mix-blend-mode: multiply;isolation: isolate"/>
                    <g id="Group_5919" data-name="Group 5919" transform="translate(1.792 2.282)">
                      <path id="Path_2204" data-name="Path 2204" d="M173.653,247.811c.89,1.936.543,3.871-.774,4.326s-3.1-.741-3.993-2.676-.542-3.87.774-4.325S172.763,245.88,173.653,247.811Z" transform="translate(-168.393 -245.039)" fill="#f463e5" opacity="0.2" style="mix-blend-mode: multiply;isolation: isolate"/>
                      <g id="Group_5918" data-name="Group 5918" transform="translate(0.796 0.059)">
                        <g id="Group_5916" data-name="Group 5916">
                          <path id="Path_2205" data-name="Path 2205" d="M172.247,251.825c-.01.013.072.066.226.143a1.3,1.3,0,0,0,.752.11,1.128,1.128,0,0,0,.778-.67,3.2,3.2,0,0,0,.267-1.021,8.354,8.354,0,0,0-.224-2.78l-.086-.237a2.086,2.086,0,0,0-.372-.594,5.507,5.507,0,0,0-1.66-1.312,3.106,3.106,0,0,0-1.171-.342,1.209,1.209,0,0,0-1.009.365,1.234,1.234,0,0,0-.316.588c-.037.15-.049.235-.033.239.061.021.124-.353.5-.709a.988.988,0,0,1,.83-.23,2.819,2.819,0,0,1,1,.363,5.176,5.176,0,0,1,1.455,1.277,1.749,1.749,0,0,1,.285.5l.067.214a6.632,6.632,0,0,1,.2.811,8.032,8.032,0,0,1,.159,1.833c-.022.644-.193,1.391-.722,1.54A2.5,2.5,0,0,1,172.247,251.825Z" transform="translate(-169.392 -245.115)" fill="#f463e5"/>
                        </g>
                        <g id="Group_5917" data-name="Group 5917" transform="translate(0.998 2.911)">
                          <path id="Path_2206" data-name="Path 2206" d="M171.03,252.212a4.657,4.657,0,0,1,0-1.263,2.05,2.05,0,0,1,.376-.763,1.64,1.64,0,0,1,.19-.218c.048-.051.076-.078.076-.078a2.828,2.828,0,0,1,.3-.274,2.7,2.7,0,0,1,.818-.439,6.848,6.848,0,0,1,1.46-.177,2.322,2.322,0,0,0-1.566-.131,3.048,3.048,0,0,0-1.415.726s-.03.036-.082.1a1.624,1.624,0,0,0-.2.278,2.218,2.218,0,0,0-.327.93A1.614,1.614,0,0,0,171.03,252.212Z" transform="translate(-170.644 -248.805)" fill="#f463e5"/>
                        </g>
                      </g>
                    </g>
                  </g>
                  <g id="Group_5925" data-name="Group 5925" transform="translate(32.107 18.857)">
                    <path id="Path_2207" data-name="Path 2207" d="M208.481,242.562s4.764-1.883,6.063,2.357-3.512,9.58-6.521,7.9S206.954,243.405,208.481,242.562Z" transform="translate(-206.443 -242.145)" fill="#fff"/>
                    <path id="Path_2208" data-name="Path 2208" d="M208.481,242.587a7.051,7.051,0,0,1,1.268-.326,6.722,6.722,0,0,0-.3,1.643l.227,2.024a20.267,20.267,0,0,0,.835,1.912,8.31,8.31,0,0,0,2.828,2.71c-1.428,2-3.647,3.225-5.314,2.3C205.014,251.168,206.954,243.43,208.481,242.587Z" transform="translate(-206.443 -242.17)" fill="#f463e5" opacity="0.2" style="mix-blend-mode: multiply;isolation: isolate"/>
                    <g id="Group_5924" data-name="Group 5924" transform="translate(0.775 2.282)">
                      <path id="Path_2209" data-name="Path 2209" d="M207.909,247.811c-.89,1.936-.543,3.871.774,4.326s3.1-.741,3.992-2.676.542-3.87-.774-4.325S208.8,245.88,207.909,247.811Z" transform="translate(-207.416 -245.039)" fill="#f463e5" opacity="0.2" style="mix-blend-mode: multiply;isolation: isolate"/>
                      <g id="Group_5923" data-name="Group 5923" transform="translate(0.039 0.059)">
                        <g id="Group_5921" data-name="Group 5921">
                          <path id="Path_2210" data-name="Path 2210" d="M209.527,251.825c.009.013-.071.066-.225.143a1.31,1.31,0,0,1-.754.11,1.132,1.132,0,0,1-.777-.67,3.179,3.179,0,0,1-.267-1.021,8.3,8.3,0,0,1,.225-2.78l.085-.237a2.106,2.106,0,0,1,.372-.594,5.486,5.486,0,0,1,1.662-1.312,3.085,3.085,0,0,1,1.17-.342,1.211,1.211,0,0,1,1.009.365,1.251,1.251,0,0,1,.317.588c.036.15.049.235.032.239-.059.021-.124-.353-.5-.709a.986.986,0,0,0-.829-.23,2.814,2.814,0,0,0-1,.363,5.2,5.2,0,0,0-1.455,1.277,1.738,1.738,0,0,0-.286.5l-.065.214a6.708,6.708,0,0,0-.206.811,7.989,7.989,0,0,0-.159,1.833c.023.644.194,1.391.722,1.54A2.493,2.493,0,0,0,209.527,251.825Z" transform="translate(-207.465 -245.115)" fill="#f463e5"/>
                        </g>
                        <g id="Group_5922" data-name="Group 5922" transform="translate(0.316 2.911)">
                          <path id="Path_2211" data-name="Path 2211" d="M211.08,252.212c-.077-.024.174-.653,0-1.263a2.087,2.087,0,0,0-.377-.763,1.486,1.486,0,0,0-.19-.218c-.048-.051-.075-.078-.075-.078a2.938,2.938,0,0,0-.3-.274,2.738,2.738,0,0,0-.821-.439,6.838,6.838,0,0,0-1.459-.177,2.317,2.317,0,0,1,1.566-.131,3.079,3.079,0,0,1,1.024.425,3.222,3.222,0,0,1,.391.3s.031.036.084.1a1.77,1.77,0,0,1,.2.278,2.229,2.229,0,0,1,.327.93A1.617,1.617,0,0,1,211.08,252.212Z" transform="translate(-207.861 -248.805)" fill="#f463e5"/>
                        </g>
                      </g>
                    </g>
                  </g>
                  <g id="Group_5932" data-name="Group 5932" transform="translate(5.395)">
                    <path id="Path_2212" data-name="Path 2212" d="M202.8,239.037c0,11.49-6.983,17.49-15.238,17.49s-14.65-6-14.65-17.49,6.691-20.8,14.944-20.8S202.8,227.55,202.8,239.037Z" transform="translate(-172.915 -218.237)" fill="#fff"/>
                    <path id="Path_2213" data-name="Path 2213" d="M204.691,245.207a6.953,6.953,0,0,0-2.364,13.52c3.13-2.723,5.225-7.012,5.478-12.8A7.069,7.069,0,0,0,204.691,245.207Z" transform="translate(-177.944 -223.935)" fill="#f463e5" opacity="0.2" style="mix-blend-mode: multiply;isolation: isolate"/>
                    <path id="Path_2214" data-name="Path 2214" d="M175.933,245.207a7.077,7.077,0,0,0-2.991.66c.224,5.854,2.177,10.184,5.2,12.912a6.953,6.953,0,0,0-2.206-13.572Z" transform="translate(-172.92 -223.935)" fill="#f463e5" opacity="0.2" style="mix-blend-mode: multiply;isolation: isolate"/>
                    <path id="Path_2215" data-name="Path 2215" d="M178.537,247.193c-.069.285-.571.41-1.122.279s-.94-.47-.869-.757.571-.41,1.123-.278S178.609,246.908,178.537,247.193Z" transform="translate(-173.651 -224.184)" fill="#fad0bf" style="mix-blend-mode: screen;isolation: isolate"/>
                    <path id="Path_2216" data-name="Path 2216" d="M206.025,246.688c.077.284-.3.633-.851.778s-1.052.036-1.13-.248.3-.633.849-.778S205.948,246.4,206.025,246.688Z" transform="translate(-179.241 -224.182)" fill="#fad0bf" style="mix-blend-mode: screen;isolation: isolate"/>
                    <g id="Group_5927" data-name="Group 5927" transform="translate(12.399 23.012)">
                      <path id="Path_2217" data-name="Path 2217" d="M189.387,249.079a1.356,1.356,0,0,0,1.464,1.644c1.758,0,1.367-1.838,1.367-1.838s2.248,2.417-.879,2.708S188.8,249.948,189.387,249.079Z" transform="translate(-188.567 -247.724)" fill="#f463e5" opacity="0.2" style="mix-blend-mode: multiply;isolation: isolate"/>
                      <g id="Group_5926" data-name="Group 5926">
                        <path id="Path_2218" data-name="Path 2218" d="M193.3,250.6c-.14.054-.55-.79-1.137-1.422a2.606,2.606,0,0,0-.859-.66,1.371,1.371,0,0,0-.288-.088l-.1-.009a.87.87,0,0,0-.37-.012,1.74,1.74,0,0,0-.868.513c-.6.594-1.023,1.446-1.163,1.387a2.778,2.778,0,0,1,.6-1.839,2.409,2.409,0,0,1,1.167-.959,1.786,1.786,0,0,1,.559-.1c.141,0,.22.008.22.008l.211.053a2.122,2.122,0,0,1,.49.23,3.107,3.107,0,0,1,.987,1.058A2.88,2.88,0,0,1,193.3,250.6Z" transform="translate(-188.477 -247.413)" fill="#f463e5"/>
                      </g>
                    </g>
                    <g id="Group_5931" data-name="Group 5931" transform="translate(10.069 27.24)">
                      <path id="Path_2219" data-name="Path 2219" d="M187.857,255.172s3.126-3.387,6.056.1c0,0-1.319,4.5-3.222,3.917S187.857,255.172,187.857,255.172Z" transform="translate(-186.021 -252.969)" fill="#f463e5" opacity="0.2" style="mix-blend-mode: multiply;isolation: isolate"/>
                      <g id="Group_5930" data-name="Group 5930">
                        <g id="Group_5928" data-name="Group 5928">
                          <path id="Path_2220" data-name="Path 2220" d="M194.758,253.162c.061.021.006.412-.254.941a5.116,5.116,0,0,1-1.365,1.677,4.841,4.841,0,0,1-2.021.98,4.557,4.557,0,0,1-.761.092c-.093,0-.167,0-.217.006l-.079,0-.3-.041a5.023,5.023,0,0,1-.738-.217,6.212,6.212,0,0,1-1.871-1.181,6.075,6.075,0,0,1-1.324-1.7c-.265-.528-.315-.924-.253-.943s.245.308.591.73a7.211,7.211,0,0,0,1.444,1.35,5.8,5.8,0,0,0,1.719.853,4.18,4.18,0,0,0,.587.119l.217.013.056.009.167.006a3.7,3.7,0,0,0,.6-.02,4.311,4.311,0,0,0,1.756-.636,5.851,5.851,0,0,0,1.454-1.308C194.507,253.467,194.687,253.136,194.758,253.162Z" transform="translate(-185.553 -252.774)" fill="#f463e5"/>
                        </g>
                        <g id="Group_5929" data-name="Group 5929" transform="translate(3.338 4.859)">
                          <path id="Path_2221" data-name="Path 2221" d="M192.973,258.938a2.011,2.011,0,0,1-.563.905,2.326,2.326,0,0,1-.6.483,1.233,1.233,0,0,1-.249.112l-.1.035s-.039.005-.108.011a.976.976,0,0,1-.284,0,1.315,1.315,0,0,1-.744-.338,1.584,1.584,0,0,1-.575-.915c.065-.047.366.4.778.643a1,1,0,0,0,.568.173.757.757,0,0,0,.188-.021c.044-.01.069-.013.069-.015s.026-.008.071-.018a.806.806,0,0,0,.191-.06,2.2,2.2,0,0,0,.564-.335C192.574,259.3,192.913,258.9,192.973,258.938Z" transform="translate(-189.742 -258.935)" fill="#f463e5"/>
                        </g>
                      </g>
                    </g>
                  </g>
                </g>
                <path id="Path_2222" data-name="Path 2222" d="M187.864,218.237c-8,0-14.525,8.741-14.925,19.733a26.6,26.6,0,0,1,.657-3.182c6.882-1.727,11.536-13.53,11.536-13.53a18.305,18.305,0,0,0,.952,2.475,13.864,13.864,0,0,0,1.023,3.212,11.525,11.525,0,0,0,.576,1.092c.1.178.2.354.3.53s.23.324.343.484c.228.316.45.621.66.911l.688.741a8.59,8.59,0,0,0,1.111,1.032l.444.37s.041.032.12.092l.366.221c.159.094.351.209.571.341a4.091,4.091,0,0,0,.765.4,10.265,10.265,0,0,0,4.494.962l1.251-.1c.4-.077.8-.194,1.176-.286.189-.051.378-.09.555-.149l.5-.223.263-.118c.51.024.807.014.807.014a32.834,32.834,0,0,1,.7,6.005c0-.076.009-.144.009-.222C202.808,227.55,196.117,218.237,187.864,218.237Zm12.541,14.987c-.174.047-.359.075-.543.116-.369.069-.748.163-1.135.221l-1.192.045a9.864,9.864,0,0,1-4.2-1.05,3.712,3.712,0,0,1-.708-.391l-.527-.335-.34-.215-.11-.09s-.156-.122-.427-.338a8.2,8.2,0,0,1-1.08-.946l-.677-.686-.66-.849c-.112-.15-.237-.294-.343-.453s-.2-.331-.3-.5a11.475,11.475,0,0,1-.6-1.03,12.592,12.592,0,0,1-.571-1.286c3.829,6.172,10.471,7.479,13.5,7.749Z" transform="translate(-167.525 -218.237)" fill="#6148ec" opacity="0.2"/>
              </g>
              <g id="Group_5938" data-name="Group 5938" transform="translate(6.889 18.736)">
                <g id="Group_5937" data-name="Group 5937">
                  <g id="Group_5935" data-name="Group 5935">
                    <path id="Path_2223" data-name="Path 2223" d="M180.064,244.758a4.732,4.732,0,0,1-2.636-2.766l-2.639.625a12.648,12.648,0,0,0,.815.99,7.457,7.457,0,0,1,1.474-.031c-.093.061-.559.427-.864.67,2.031,1.994,5.778,4.422,8.178-1.562C184.394,242.685,182.072,245.53,180.064,244.758Z" transform="translate(-174.79 -241.992)" fill="#2f267f"/>
                  </g>
                  <g id="Group_5936" data-name="Group 5936" transform="translate(17.045)">
                    <path id="Path_2224" data-name="Path 2224" d="M200.515,244.758a4.735,4.735,0,0,0,2.635-2.766l2.64.625s-.308.424-.816.99a7.478,7.478,0,0,0-1.476-.031c.093.061.56.427.866.67-2.031,1.994-5.777,4.422-8.18-1.562C196.184,242.685,198.507,245.53,200.515,244.758Z" transform="translate(-196.184 -241.992)" fill="#2f267f"/>
                  </g>
                </g>
              </g>
              <g id="Group_5939" data-name="Group 5939" transform="translate(11.643 11.362)">
                <path id="Path_2225" data-name="Path 2225" d="M184.491,233.311c.139.564-.582,1.223-1.607,1.469s-1.971-.009-2.11-.575.582-1.222,1.607-1.468S184.352,232.746,184.491,233.311Z" transform="translate(-180.758 -232.642)" fill="#2f267f"/>
                <path id="Path_2226" data-name="Path 2226" d="M197.57,233.311c-.138.564.582,1.223,1.607,1.469s1.971-.009,2.109-.575-.582-1.222-1.606-1.468S197.708,232.746,197.57,233.311Z" transform="translate(-184.171 -232.642)" fill="#2f267f"/>
              </g>
            </g>
          </g>
          <g id="Group_5953" data-name="Group 5953">
            <g id="Group_5943" data-name="Group 5943" transform="translate(8.504)">
              <path id="Path_2227" data-name="Path 2227" d="M189.505,194.608a11.809,11.809,0,0,0-2.823.352c-.237-.023-.477-.041-.725-.055a11.578,11.578,0,0,0-2.667.242,9.89,9.89,0,0,0-2.515.974,8.619,8.619,0,0,0-1.853,1.466,6.435,6.435,0,0,0-.616.716,4.451,4.451,0,0,0-.418.592c-.214.339-.336.532-.336.532l-.292.555a5.172,5.172,0,0,0-.3.661,5.421,5.421,0,0,0-.3.9,8.358,8.358,0,0,0,1.687,7.256A13.913,13.913,0,0,0,180,210.4l.5.42a11.3,11.3,0,0,0,9,4.325c6.1,0,11.051-4.6,11.051-10.269S195.608,194.608,189.505,194.608Zm-10.839,13.936a7.7,7.7,0,0,1-1.183-2.223,7.529,7.529,0,0,1-.177-4.6,4.824,4.824,0,0,1,.3-.812,4.669,4.669,0,0,1,.292-.607l.288-.518s.111-.184.3-.506a3.979,3.979,0,0,1,.376-.561,5.947,5.947,0,0,1,.551-.676,8.03,8.03,0,0,1,1.673-1.405,9.441,9.441,0,0,1,2.326-.991,11.174,11.174,0,0,1,2.029-.309,10.31,10.31,0,0,0-6.991,9.544,9.648,9.648,0,0,0,1.368,4.946A13.955,13.955,0,0,1,178.666,208.544Z" transform="translate(-176.41 -194.608)" fill="#2f267f"/>
              <path id="Path_2228" data-name="Path 2228" d="M191.379,207.534a14.9,14.9,0,0,1-12.225-4.963,9.582,9.582,0,0,0,.668,8.53,13.958,13.958,0,0,1-1.155-1.279,7.7,7.7,0,0,1-1.183-2.223,7.529,7.529,0,0,1-.177-4.6,4.825,4.825,0,0,1,.3-.812,4.673,4.673,0,0,1,.292-.607l.159-.288q-.244-.31-.477-.631l-.029.047-.292.554a5.174,5.174,0,0,0-.3.661,5.421,5.421,0,0,0-.3.9,8.358,8.358,0,0,0,1.687,7.256A13.913,13.913,0,0,0,180,211.68l.5.42a11.3,11.3,0,0,0,9,4.324c6.1,0,11.051-4.6,11.051-10.269a9.608,9.608,0,0,0-.163-1.695A20.413,20.413,0,0,1,191.379,207.534Z" transform="translate(-176.41 -195.886)" fill="#1d255b" opacity="0.4" style="mix-blend-mode: multiply;isolation: isolate"/>
              <path id="Path_2229" data-name="Path 2229" d="M200.84,205.422a6.53,6.53,0,0,1-3.193.969,8,8,0,0,1-3.282-.593,8.3,8.3,0,0,1-1.37-.669,8.975,8.975,0,0,1-1.286-.821,31.628,31.628,0,0,1-2.632-2.2,6.292,6.292,0,0,1-1.86-2.743c-.019-.073-.029-.14-.042-.207a9.614,9.614,0,0,1,.394-.957,8.567,8.567,0,0,1,1.01-1.556c.7-.844,1.3-1.292,1.256-1.344-.015-.021-.174.077-.445.264a6.406,6.406,0,0,0-1.027.9,7.891,7.891,0,0,0-1.108,1.477c.009-.044.011-.075,0-.079s-.1.128-.217.387a1.553,1.553,0,0,0-.076.3,9.22,9.22,0,0,0-.58,1.534,11.079,11.079,0,0,0-.31,2.205,11.837,11.837,0,0,0,.116,1.938,11.174,11.174,0,0,0,.266,1.349c.086.321.135.5.135.5s.065.179.176.491a12.05,12.05,0,0,0,.544,1.261,13.344,13.344,0,0,0,2.377,3.4,10.606,10.606,0,0,0,3.385,2.383,6.89,6.89,0,0,0,1.3.431,1.452,1.452,0,0,0,.514.07c.017-.062-.711-.245-1.687-.755a11.08,11.08,0,0,1-3.128-2.475,13.213,13.213,0,0,1-2.148-3.335,11.937,11.937,0,0,1-.48-1.214c-.1-.3-.154-.471-.154-.471l-.14-.473a10.559,10.559,0,0,1-.292-1.269,11.581,11.581,0,0,1-.175-1.83,10.912,10.912,0,0,1,.207-2.094c.033-.152.086-.3.128-.446a6.869,6.869,0,0,0,1.7,2.716,28.837,28.837,0,0,0,2.587,2.369,9.152,9.152,0,0,0,1.342.927,8.721,8.721,0,0,0,1.5.665,8.361,8.361,0,0,0,3.551.479,6.5,6.5,0,0,0,3.32-1.246,5.775,5.775,0,0,0,.853-.791c.185-.21.28-.335.261-.353C202.064,204.46,201.627,204.924,200.84,205.422Z" transform="translate(-178.373 -194.753)" fill="#6148ec"/>
              <g id="Group_5942" data-name="Group 5942" transform="translate(14.841 1.778)">
                <path id="Path_2230" data-name="Path 2230" d="M198.358,198.892c-.242.293.016.9.58,1.363s1.219.6,1.462.3-.016-.9-.58-1.361S198.6,198.6,198.358,198.892Z" transform="translate(-195.694 -197.258)" fill="#6148ec"/>
                <path id="Path_2231" data-name="Path 2231" d="M195.087,197c-.157.226.073.649.511.942s.919.351,1.076.123-.072-.651-.513-.945S195.242,196.774,195.087,197Z" transform="translate(-195.038 -196.862)" fill="#6148ec"/>
              </g>
            </g>
            <path id="Path_2232" data-name="Path 2232" d="M206.66,228.345c-1.55-7.292-9.985-14.011-18.322-15.161s-17.449,4.126-21.521,12.474,4.678,13.41,4.678,13.41c-.557-2.138.653-6.4.653-6.4,6.884-1.727,11.537-13.53,11.537-13.53a18.412,18.412,0,0,0,.951,2.475,13.85,13.85,0,0,0,1.024,3.212,11.436,11.436,0,0,0,.576,1.092c.1.179.2.355.3.53s.23.324.342.484c.229.316.451.622.661.911l.687.743a8.683,8.683,0,0,0,1.111,1.03l.444.371.119.092.367.219.571.342a4.1,4.1,0,0,0,.766.4,10.275,10.275,0,0,0,4.494.961l1.251-.1c.4-.078.8-.194,1.176-.286.188-.051.378-.091.555-.151l.5-.222.263-.117c.51.024.725.046.725.046a48.261,48.261,0,0,1,.849,8.59S208.211,235.639,206.66,228.345Zm-7.7,2.754c-.174.049-.359.076-.542.116-.37.069-.747.164-1.135.222l-1.191.045a9.872,9.872,0,0,1-4.2-1.05,3.707,3.707,0,0,1-.708-.391l-.527-.336-.339-.215-.111-.089-.426-.34a7.977,7.977,0,0,1-1.08-.946l-.676-.685-.66-.85c-.112-.149-.237-.293-.344-.453l-.3-.5a11.745,11.745,0,0,1-.6-1.03,12.835,12.835,0,0,1-.57-1.286c3.829,6.172,10.472,7.479,13.5,7.749Z" transform="translate(-165.736 -198.5)" fill="#2f267f"/>
            <path id="Path_2233" data-name="Path 2233" d="M197.064,227.656a24.02,24.02,0,0,1-10.007-8.806,31.188,31.188,0,0,1-2.839-3.655c-2.621,5.58-6.387,10.9-11.967,13.44a7.762,7.762,0,0,1-6.356.23c-1.243,6.7,5.6,10.661,5.6,10.661-.557-2.138.653-6.4.653-6.4,6.884-1.727,11.537-13.53,11.537-13.53a18.413,18.413,0,0,0,.951,2.475,13.848,13.848,0,0,0,1.024,3.212,11.429,11.429,0,0,0,.576,1.092c.1.179.2.355.3.53s.23.324.342.484c.229.316.451.622.661.911l.687.743a8.682,8.682,0,0,0,1.111,1.03l.444.371.12.092.367.219.571.342a4.1,4.1,0,0,0,.766.4,10.275,10.275,0,0,0,4.494.961l1.251-.1c.4-.078.8-.194,1.176-.286.188-.051.378-.091.555-.151l.5-.222.263-.118c.51.024.725.046.725.046a48.261,48.261,0,0,1,.849,8.59s6.354-3.847,5.369-10.7A20.612,20.612,0,0,1,197.064,227.656Zm1.9,3.9c-.174.049-.359.076-.542.116-.37.069-.747.164-1.135.222l-1.191.045a9.872,9.872,0,0,1-4.2-1.05,3.709,3.709,0,0,1-.707-.391l-.527-.336-.339-.215-.111-.089-.426-.34a7.983,7.983,0,0,1-1.08-.946l-.676-.685-.66-.85c-.112-.149-.237-.293-.344-.453l-.3-.5a11.73,11.73,0,0,1-.6-1.03,12.837,12.837,0,0,1-.57-1.286c3.829,6.172,10.472,7.479,13.5,7.749Z" transform="translate(-165.738 -198.958)" fill="#1d255b" opacity="0.4" style="mix-blend-mode: multiply;isolation: isolate"/>
            <g id="Group_5944" data-name="Group 5944" transform="translate(3.356 23.024)">
              <path id="Path_2234" data-name="Path 2234" d="M172.049,225.656c.256.244.845.051,1.318-.432s.648-1.073.39-1.319-.845-.051-1.317.432S171.792,225.41,172.049,225.656Z" transform="translate(-170.351 -223.8)" fill="#6148ec"/>
              <path id="Path_2235" data-name="Path 2235" d="M170.058,228.668c.2.16.613-.019.92-.4s.394-.818.192-.978-.614.019-.92.4S169.855,228.51,170.058,228.668Z" transform="translate(-169.948 -224.525)" fill="#6148ec"/>
            </g>
            <g id="Group_5952" data-name="Group 5952" transform="translate(1.525 14.396)">
              <g id="Group_5945" data-name="Group 5945" transform="translate(16.099 3.263)">
                <path id="Path_2236" data-name="Path 2236" d="M207.165,231.392a1.745,1.745,0,0,1-.551.214,8.006,8.006,0,0,1-1.551.06,22.284,22.284,0,0,1-4.67-.543,21.75,21.75,0,0,1-4.444-1.568c-.566-.308-1.044-.556-1.37-.745l-.494-.326-.488-.334c-.323-.2-.714-.571-1.216-.974a13.873,13.873,0,0,1-2.965-3.642,12.75,12.75,0,0,1-1.46-4.425,4.395,4.395,0,0,1-.08-.863c-.007-.258-.012-.483-.018-.668a2.744,2.744,0,0,1,.014-.581,2.728,2.728,0,0,1,.085.577c.017.182.038.4.063.659a4.657,4.657,0,0,0,.123.848,13.123,13.123,0,0,0,1.571,4.286,13.764,13.764,0,0,0,2.961,3.476,14.684,14.684,0,0,0,1.2.924l.48.317.475.325c.313.19.774.439,1.322.751a21.941,21.941,0,0,0,4.323,1.632,23.786,23.786,0,0,0,4.592.685,9.664,9.664,0,0,0,1.531.032C206.956,231.456,207.155,231.366,207.165,231.392Z" transform="translate(-187.856 -216.997)" fill="#6148ec"/>
              </g>
              <g id="Group_5946" data-name="Group 5946" transform="translate(2.544 5.566)">
                <path id="Path_2237" data-name="Path 2237" d="M184.609,219.917a1.672,1.672,0,0,1,0,.455,5.381,5.381,0,0,1-.235,1.181,13.686,13.686,0,0,1-1.593,3.278c-.705,1.126-1.508,2.183-2.113,2.969l-1.021,1.3s-.406.519-1.081,1.261a18.609,18.609,0,0,1-2.722,2.459,7.889,7.889,0,0,1-3.341,1.521,3.918,3.918,0,0,1-1.22,0,1.773,1.773,0,0,1-.445-.121,6.713,6.713,0,0,0,1.632-.061,8.028,8.028,0,0,0,3.167-1.608,19.087,19.087,0,0,0,2.593-2.482c.641-.738,1.038-1.268,1.038-1.268l1.048-1.271c.621-.767,1.444-1.793,2.176-2.88a14.678,14.678,0,0,0,1.7-3.152A12.98,12.98,0,0,0,184.609,219.917Z" transform="translate(-170.843 -219.917)" fill="#6148ec"/>
              </g>
              <g id="Group_5948" data-name="Group 5948" transform="translate(19.891)">
                <g id="Group_5947" data-name="Group 5947">
                  <path id="Path_2238" data-name="Path 2238" d="M206.872,225.336a1.676,1.676,0,0,1-.44-.024,11.08,11.08,0,0,1-1.147-.161,18.854,18.854,0,0,1-3.383-.979,18.508,18.508,0,0,1-3.122-1.645c-.415-.248-.715-.518-.947-.678l-.354-.267-.326-.3a11.577,11.577,0,0,1-.837-.812,15.051,15.051,0,0,1-2.116-2.811,13.8,13.8,0,0,1-1.313-3.241,10.088,10.088,0,0,1-.222-1.128,1.543,1.543,0,0,1-.043-.433c.044-.008.174.611.448,1.509a14.955,14.955,0,0,0,1.426,3.121,15.365,15.365,0,0,0,2.142,2.675c.315.347.636.577.833.766l.322.283.338.266c.221.161.507.431.905.683a19.07,19.07,0,0,0,3,1.7,21.186,21.186,0,0,0,3.287,1.107C206.248,225.19,206.878,225.292,206.872,225.336Z" transform="translate(-192.615 -212.86)" fill="#6148ec"/>
                </g>
              </g>
              <g id="Group_5949" data-name="Group 5949" transform="translate(31.335 5.661)">
                <path id="Path_2239" data-name="Path 2239" d="M212.7,238.752a16.349,16.349,0,0,1,.531-1.584,17.129,17.129,0,0,0,.72-3.567,13.223,13.223,0,0,0,.054-1.934c-.017-.617-.137-1.183-.185-1.671a14.2,14.2,0,0,0-.443-1.571l-.174-.413c-.054-.132-.121-.291-.2-.476-.038-.091-.08-.189-.122-.292q-.087-.147-.184-.305l-.875-1.457c-.321-.532-.769-1.03-1.161-1.568a15.238,15.238,0,0,0-1.29-1.472,15.4,15.4,0,0,0-1.2-1.221c-.363-.348-.665-.638-.879-.841a1.8,1.8,0,0,1-.314-.344,1.8,1.8,0,0,1,.378.271l.943.776a13.719,13.719,0,0,1,1.27,1.171,14.571,14.571,0,0,1,1.359,1.443c.416.532.887,1.028,1.23,1.561s.659,1.036.932,1.465c.067.107.133.211.2.308s.093.208.135.3l.221.495c.122.275.19.432.19.432a2.122,2.122,0,0,1,.136.45c.069.29.181.705.29,1.2.039.509.147,1.1.147,1.736a13.064,13.064,0,0,1-.115,1.983,15.7,15.7,0,0,1-.884,3.592c-.174.473-.371.849-.49,1.117A1.722,1.722,0,0,1,212.7,238.752Z" transform="translate(-206.979 -220.037)" fill="#6148ec"/>
              </g>
              <g id="Group_5950" data-name="Group 5950" transform="translate(0 10.267)">
                <path id="Path_2240" data-name="Path 2240" d="M170.1,225.879a10.823,10.823,0,0,1-.558.979,11.087,11.087,0,0,0-.93,2.259,12.51,12.51,0,0,0-.437,2.393c-.041.66-.037,1.1-.037,1.1s0,.11.008.3-.007.47.041.8a9.167,9.167,0,0,0,.537,2.353,7.213,7.213,0,0,0,1.271,2.06,11.02,11.02,0,0,1,.783.808c-.01.014-.107-.045-.27-.16a4.228,4.228,0,0,1-.649-.517,6.853,6.853,0,0,1-1.452-2.059,9.2,9.2,0,0,1-.664-2.436,7.619,7.619,0,0,1-.072-.831c-.012-.2-.018-.316-.018-.316s.011-.461.078-1.145a12.2,12.2,0,0,1,.554-2.451,9.88,9.88,0,0,1,1.1-2.253,5.008,5.008,0,0,1,.5-.66C170,225.95,170.084,225.868,170.1,225.879Z" transform="translate(-167.65 -225.878)" fill="#6148ec"/>
              </g>
              <g id="Group_5951" data-name="Group 5951" transform="translate(2.253 1.631)">
                <path id="Path_2241" data-name="Path 2241" d="M180.948,214.928a7.927,7.927,0,0,1-.45,1.279c-.075.191-.156.4-.242.613-.1.211-.21.431-.322.659-.229.455-.455.951-.72,1.427-.551.938-1.085,1.889-1.57,2.549l-.772,1.124L176,223.627c-.5.65-1.288,1.413-2.046,2.2-.4.374-.824.719-1.209,1.055l-.563.475c-.194.133-.377.259-.547.375a8.105,8.105,0,0,1-1.154.728,8.381,8.381,0,0,1,1.039-.877l.515-.4c.17-.159.347-.327.531-.5.365-.352.769-.709,1.146-1.094.719-.806,1.468-1.58,1.942-2.237l.833-1.057s.317-.435.791-1.088c.5-.639,1.056-1.559,1.641-2.466.281-.459.526-.94.776-1.378l.356-.637.277-.591A8.167,8.167,0,0,1,180.948,214.928Z" transform="translate(-170.477 -214.928)" fill="#6148ec"/>
              </g>
            </g>
          </g>
        </g>
      </g>
    </g>
    <path id="Path_2242" data-name="Path 2242" d="M216.462,270.043l-1.007.039a.9.9,0,0,1-.766,1,.816.816,0,0,1-.655-.18.926.926,0,0,1-.095-.1,5.74,5.74,0,0,0,1.313-3.5,2.337,2.337,0,0,0-.631-1.8,1.459,1.459,0,0,0-1.06-.327v-.692c0-.155,0-.309,0-.465.006-.315.01-.639,0-.963a1.589,1.589,0,0,0-1.536-1.574,2.132,2.132,0,0,0-1.526.491,1.677,1.677,0,0,0-1.1-.491,2.129,2.129,0,0,0-1.558.52,1.9,1.9,0,0,0-1.4-.57,1.846,1.846,0,0,0-1.845,1.954H205.6a.859.859,0,0,1,.859-.96.73.73,0,0,1,.809.675c.014.294.009.592,0,.9,0,.159,0,.32,0,.48v5.15h1.007v-5.15c0-.155,0-.308.006-.464,0-.285.006-.579,0-.872a.978.978,0,0,1,1.042-.67.59.59,0,0,1,.59.474l0,.02.007,0a.856.856,0,0,1,.017.128c.014.294.01.592,0,.9,0,.159,0,.32,0,.48v5.15h1.008v-5.15c0-.155,0-.308.006-.464,0-.315.009-.64-.006-.965v-.012a1,1,0,0,1,1.007-.565.6.6,0,0,1,.609.623c.014.294.009.59,0,.9,0,.161-.006.322-.006.481v5.158a3.47,3.47,0,0,0,.316,1.325,4.057,4.057,0,0,1-2.809.995l-.021.636c.056,0,.112,0,.168,0a4.68,4.68,0,0,0,3.02-1.1,1.492,1.492,0,0,0,.134.131,1.777,1.777,0,0,0,1.209.442c.07,0,.141,0,.214-.011A1.867,1.867,0,0,0,216.462,270.043Zm-2.259-4.052a1.654,1.654,0,0,1,.408,1.294,5.118,5.118,0,0,1-.974,2.865,2.573,2.573,0,0,1-.076-.509V265.82A.833.833,0,0,1,214.2,265.991Z" transform="translate(-12.914 -14.12)" fill="#fff"/>
  </g>
</svg>
